<svg xmlns="http://www.w3.org/2000/svg" width="451" height="283" viewBox="0 0 451 283">
    <defs>
        <linearGradient id="a" x1="88.983%" x2="22.902%" y1="9.05%" y2="87.332%">
            <stop offset="0%" stop-color="#57D8F1"/>
            <stop offset="100%" stop-color="#194AAD"/>
        </linearGradient>
    </defs>
    <g fill="none" fill-rule="evenodd">
        <circle cx="58" cy="135" r="6" fill="#FF8337" transform="matrix(-1 0 0 1 116 0)"/>
        <path fill="#3D3A44" d="M420.736 282v-1.6h1.936v-6.416l.032-1.28-.032-.032-1.104.688-1.248.752-.224-1.824 3.488-2.304h1.296V280.4h1.888v1.6h-6.032zm17.12-5.968c0 4.352-1.328 6.144-4.384 6.144-3.104 0-4.368-1.792-4.368-6.144 0-4.528 1.28-6.176 4.384-6.176 3.056 0 4.368 1.648 4.368 6.176zm-2.112-.032c0-3.504-.704-4.208-2.256-4.208-1.568 0-2.288.736-2.288 4.224 0 3.568.72 4.256 2.288 4.256 1.552 0 2.256-.72 2.256-4.272zm8.304-3.376c0 1.904-.816 2.8-2.4 2.8-1.648 0-2.384-.912-2.384-2.8 0-1.952.704-2.784 2.4-2.784 1.568 0 2.384.752 2.384 2.784zm-1.376-.016c0-1.168-.32-1.488-1.008-1.488-.704 0-1.024.304-1.024 1.488s.32 1.488 1.024 1.488c.688 0 1.008-.304 1.008-1.488zm4.272-2.176l1.184.944-6.384 10.272-1.184-.928 6.384-10.288zm2.688 8.928c0 1.904-.816 2.8-2.4 2.8-1.648 0-2.4-.912-2.4-2.8 0-1.952.704-2.832 2.4-2.832 1.584 0 2.4.8 2.4 2.832zm-1.376 0c0-1.168-.32-1.472-1.024-1.472-.688 0-1.008.288-1.008 1.472 0 1.152.32 1.456 1.008 1.456.704 0 1.024-.288 1.024-1.456zM423.168 4.28c0 2.304-2.08 4.256-5.04 6.72v.048h5.056L423.136 13h-7.856v-1.456c2.976-2.88 5.664-5.088 5.664-7.04 0-.96-.64-1.664-2.192-1.664-1.104 0-2.128.448-2.992 1.104l-.528-1.792c.96-.752 2.304-1.28 3.904-1.28 2.656 0 4.032 1.344 4.032 3.408zm4.658 7.696c0 .752-.384 1.2-1.232 1.2-.864 0-1.232-.336-1.232-1.2 0-.784.368-1.216 1.232-1.216.848 0 1.232.432 1.232 1.216zM438.1 8.888c0 2.688-1.344 4.256-4.336 4.256-1.408 0-2.608-.32-3.616-.928l.4-1.76c.96.544 1.808.848 3.008.848 1.728 0 2.416-.752 2.416-2.24 0-1.312-.736-1.856-2.336-1.856-.928 0-1.904.192-2.592.496l-.784-.848.496-5.856h6.704l.08 1.952h-5.104l-.208 2.704a8.183 8.183 0 0 1 2.016-.256c2.496 0 3.856 1.152 3.856 3.488zm6.657-5.264c0 1.904-.816 2.8-2.4 2.8-1.648 0-2.384-.912-2.384-2.8 0-1.952.704-2.784 2.4-2.784 1.568 0 2.384.752 2.384 2.784zm-1.376-.016c0-1.168-.32-1.488-1.008-1.488-.704 0-1.024.304-1.024 1.488s.32 1.488 1.024 1.488c.688 0 1.008-.304 1.008-1.488zm4.272-2.176l1.184.944-6.384 10.272-1.184-.928 6.384-10.288zm2.688 8.928c0 1.904-.816 2.8-2.4 2.8-1.648 0-2.4-.912-2.4-2.8 0-1.952.704-2.832 2.4-2.832 1.584 0 2.4.8 2.4 2.832zm-1.376 0c0-1.168-.32-1.472-1.024-1.472-.688 0-1.008.288-1.008 1.472 0 1.152.32 1.456 1.008 1.456.704 0 1.024-.288 1.024-1.456zM428.648 150.584h-1.296V153h-1.984v-2.416h-5.408l-.192-1.392L424.76 141h2.592v7.728h1.36l-.064 1.856zm-3.216-1.856l.08-4.48.064-1.296-.032-.016-.656 1.136-2.112 3.552-.672 1.056.016.048h3.312zm13.234-4.448c0 2.304-2.08 4.256-5.04 6.72v.048h5.056l-.048 1.952h-7.856v-1.456c2.976-2.88 5.664-5.088 5.664-7.04 0-.96-.64-1.664-2.192-1.664-1.104 0-2.128.448-2.992 1.104l-.528-1.792c.96-.752 2.304-1.28 3.904-1.28 2.656 0 4.032 1.344 4.032 3.408zm6.738-.656c0 1.904-.816 2.8-2.4 2.8-1.648 0-2.384-.912-2.384-2.8 0-1.952.704-2.784 2.4-2.784 1.568 0 2.384.752 2.384 2.784zm-1.376-.016c0-1.168-.32-1.488-1.008-1.488-.704 0-1.024.304-1.024 1.488s.32 1.488 1.024 1.488c.688 0 1.008-.304 1.008-1.488zm4.272-2.176l1.184.944-6.384 10.272-1.184-.928 6.384-10.288zm2.688 8.928c0 1.904-.816 2.8-2.4 2.8-1.648 0-2.4-.912-2.4-2.8 0-1.952.704-2.832 2.4-2.832 1.584 0 2.4.8 2.4 2.832zm-1.376 0c0-1.168-.32-1.472-1.024-1.472-.688 0-1.008.288-1.008 1.472 0 1.152.32 1.456 1.008 1.456.704 0 1.024-.288 1.024-1.456zM32.424 277.824c0 2.912-1.488 4.32-4.16 4.32-2.848 0-4.4-1.552-4.4-5.824 0-4.288 1.776-6.464 5.152-6.464 1.024 0 1.856.128 2.72.464l-.16 1.872c-.768-.272-1.44-.384-2.304-.384-2.144 0-3.136 1.024-3.344 3.264l.032.032a4.668 4.668 0 0 1 2.688-.848c2.528 0 3.776 1.168 3.776 3.568zm-2.096-.032c0-1.264-.624-1.856-2.08-1.856-.736 0-1.744.352-2.224.928.032 2.592.688 3.424 2.224 3.424 1.36 0 2.08-.784 2.08-2.496zm8.578-5.168c0 1.904-.816 2.8-2.4 2.8-1.648 0-2.384-.912-2.384-2.8 0-1.952.704-2.784 2.4-2.784 1.568 0 2.384.752 2.384 2.784zm-1.376-.016c0-1.168-.32-1.488-1.008-1.488-.704 0-1.024.304-1.024 1.488s.32 1.488 1.024 1.488c.688 0 1.008-.304 1.008-1.488zm4.272-2.176l1.184.944-6.384 10.272-1.184-.928 6.384-10.288zm2.688 8.928c0 1.904-.816 2.8-2.4 2.8-1.648 0-2.4-.912-2.4-2.8 0-1.952.704-2.832 2.4-2.832 1.584 0 2.4.8 2.4 2.832zm-1.376 0c0-1.168-.32-1.472-1.024-1.472-.688 0-1.008.288-1.008 1.472 0 1.152.32 1.456 1.008 1.456.704 0 1.024-.288 1.024-1.456zM14.736 140v-1.6h1.936v-6.416l.032-1.28-.032-.032-1.104.688-1.248.752-.224-1.824 3.488-2.304h1.296V138.4h1.888v1.6h-6.032zm10.498 0v-1.6h1.936v-6.416l.032-1.28-.032-.032-1.104.688-1.248.752-.224-1.824 3.488-2.304h1.296V138.4h1.888v1.6h-6.032zm13.17-9.376c0 1.904-.816 2.8-2.4 2.8-1.648 0-2.384-.912-2.384-2.8 0-1.952.704-2.784 2.4-2.784 1.568 0 2.384.752 2.384 2.784zm-1.376-.016c0-1.168-.32-1.488-1.008-1.488-.704 0-1.024.304-1.024 1.488s.32 1.488 1.024 1.488c.688 0 1.008-.304 1.008-1.488zm4.272-2.176l1.184.944-6.384 10.272-1.184-.928 6.384-10.288zm2.688 8.928c0 1.904-.816 2.8-2.4 2.8-1.648 0-2.4-.912-2.4-2.8 0-1.952.704-2.832 2.4-2.832 1.584 0 2.4.8 2.4 2.832zm-1.376 0c0-1.168-.32-1.472-1.024-1.472-.688 0-1.008.288-1.008 1.472 0 1.152.32 1.456 1.008 1.456.704 0 1.024-.288 1.024-1.456zM.736 13v-1.6h1.936V4.984l.032-1.28-.032-.032-1.104.688-1.248.752-.224-1.824L3.584.984H4.88V11.4h1.888V13H.736zm16.93-8.72c0 2.304-2.08 4.256-5.04 6.72v.048h5.056L17.634 13H9.778v-1.456c2.976-2.88 5.664-5.088 5.664-7.04 0-.96-.64-1.664-2.192-1.664-1.104 0-2.128.448-2.992 1.104L9.73 2.152c.96-.752 2.304-1.28 3.904-1.28 2.656 0 4.032 1.344 4.032 3.408zm4.658 7.696c0 .752-.384 1.2-1.232 1.2-.864 0-1.232-.336-1.232-1.2 0-.784.368-1.216 1.232-1.216.848 0 1.232.432 1.232 1.216zm10.273-3.088c0 2.688-1.344 4.256-4.336 4.256-1.408 0-2.608-.32-3.616-.928l.4-1.76c.96.544 1.808.848 3.008.848 1.728 0 2.416-.752 2.416-2.24 0-1.312-.736-1.856-2.336-1.856-.928 0-1.904.192-2.592.496l-.784-.848L25.253 1h6.704l.08 1.952h-5.104l-.208 2.704a8.183 8.183 0 0 1 2.016-.256c2.496 0 3.856 1.152 3.856 3.488zm6.658-5.264c0 1.904-.816 2.8-2.4 2.8-1.648 0-2.384-.912-2.384-2.8 0-1.952.704-2.784 2.4-2.784 1.568 0 2.384.752 2.384 2.784zm-1.376-.016c0-1.168-.32-1.488-1.008-1.488-.704 0-1.024.304-1.024 1.488s.32 1.488 1.024 1.488c.688 0 1.008-.304 1.008-1.488zm4.272-2.176l1.184.944-6.384 10.272-1.184-.928 6.384-10.288zm2.688 8.928c0 1.904-.816 2.8-2.4 2.8-1.648 0-2.4-.912-2.4-2.8 0-1.952.704-2.832 2.4-2.832 1.584 0 2.4.8 2.4 2.832zm-1.376 0c0-1.168-.32-1.472-1.024-1.472-.688 0-1.008.288-1.008 1.472 0 1.152.32 1.456 1.008 1.456.704 0 1.024-.288 1.024-1.456zM32.56 69.632c0 4.736-1.648 6.672-4.944 6.672-1.216 0-2.032-.16-2.928-.56l.304-1.792a6.03 6.03 0 0 0 2.416.48c2.048 0 2.944-1.072 3.088-3.616l-.032-.032c-.704.528-1.6.768-2.64.768-2.608 0-3.824-1.44-3.824-3.632 0-2.4 1.312-3.904 4.144-3.904 2.8 0 4.416 1.84 4.416 5.616zm-2.112-.72c-.032-2.256-.928-3.04-2.336-3.04-1.36 0-2.064.64-2.064 1.968 0 1.28.64 1.984 2.176 1.984.928 0 1.728-.288 2.224-.912zm8.448-2.128c0 1.904-.816 2.8-2.4 2.8-1.648 0-2.384-.912-2.384-2.8 0-1.952.704-2.784 2.4-2.784 1.568 0 2.384.752 2.384 2.784zm-1.376-.016c0-1.168-.32-1.488-1.008-1.488-.704 0-1.024.304-1.024 1.488s.32 1.488 1.024 1.488c.688 0 1.008-.304 1.008-1.488zm4.272-2.176l1.184.944-6.384 10.272-1.184-.928 6.384-10.288zm2.688 8.928c0 1.904-.816 2.8-2.4 2.8-1.648 0-2.4-.912-2.4-2.8 0-1.952.704-2.832 2.4-2.832 1.584 0 2.4.8 2.4 2.832zm-1.376 0c0-1.168-.32-1.472-1.024-1.472-.688 0-1.008.288-1.008 1.472 0 1.152.32 1.456 1.008 1.456.704 0 1.024-.288 1.024-1.456zM32.472 197.016v1.856L27.72 209h-2.432l5.072-9.904h-6.448l.096-2.08h8.464zm6.256 2.608c0 1.904-.816 2.8-2.4 2.8-1.648 0-2.384-.912-2.384-2.8 0-1.952.704-2.784 2.4-2.784 1.568 0 2.384.752 2.384 2.784zm-1.376-.016c0-1.168-.32-1.488-1.008-1.488-.704 0-1.024.304-1.024 1.488s.32 1.488 1.024 1.488c.688 0 1.008-.304 1.008-1.488zm4.272-2.176l1.184.944-6.384 10.272-1.184-.928 6.384-10.288zm2.688 8.928c0 1.904-.816 2.8-2.4 2.8-1.648 0-2.4-.912-2.4-2.8 0-1.952.704-2.832 2.4-2.832 1.584 0 2.4.8 2.4 2.832zm-1.376 0c0-1.168-.32-1.472-1.024-1.472-.688 0-1.008.288-1.008 1.472 0 1.152.32 1.456 1.008 1.456.704 0 1.024-.288 1.024-1.456z"/>
        <circle cx="58" cy="203" r="6" fill="#FFC15A" transform="matrix(-1 0 0 1 116 0)"/>
        <path fill="#FFC15A" fill-rule="nonzero" d="M94.458 203H59v-1h35.873l22.142 21.143h36.654v.848h-37.22z"/>
        <circle cx="58" cy="276" r="6" fill="#50E3C2" transform="matrix(-1 0 0 1 116 0)"/>
        <circle cx="58" cy="70" r="6" fill="#D7297D"/>
        <circle cx="58" cy="7" r="6" fill="#BE89EF"/>
        <circle cx="401" cy="148" r="6" fill="#184AAA"/>
        <circle cx="401" cy="276" r="6" fill="#2CBEDF"/>
        <path fill="#184AAA" fill-rule="nonzero" d="M338 147h63.991v1H338z"/>
        <path fill="#FF8337" fill-rule="nonzero" d="M87.458 135H59v-1h28.873l42.567 42.568-.707.707z"/>
        <path fill="#8248F3" fill-rule="nonzero" d="M399.29 7V6H262.416L226 42.417l.707.707L262.831 7z"/>
        <path fill="#D7297D" fill-rule="nonzero" d="M98.458 70H52v-1h46.873l34.567 34.568-.707.707z"/>
        <path fill="#BE89EF" fill-rule="nonzero" d="M118.458 7H59V6h59.873l52.567 52.568-.707.707z"/>
        <circle cx="401" cy="7" r="6" fill="#8248F3" transform="matrix(-1 0 0 1 802 0)"/>
        <path fill="#2CBEDF" fill-rule="nonzero" d="M397.666 273.655a.5.5 0 1 0 .706-.707l-27-26.948H267.5a.5.5 0 1 0 0 1h103.458l26.708 26.655z"/>
        <path fill="#50E3C2" fill-rule="nonzero" d="M196.246 250a.5.5 0 1 0 0-1H82.374l-27.227 27.155a.5.5 0 0 0 .706.708L82.788 250h113.458z"/>
        <g fill-rule="nonzero">
            <path fill="#8248F3" d="M231 38v12c-.97 0-1.734-.018-3.179-.065-.864-.028-1.147-.037-1.56-.046-1.363-.03-2.384-.008-3.446.087l-1.073-11.952c1.565-.14 3.01-.171 4.785-.132.47.01.777.02 1.686.05 1.321.042 1.984.058 2.787.058z"/>
            <path fill="#BE89EF" d="M210.075 39.989l2.27 11.783c-19.107 3.681-36.57 12.988-50.315 26.607l-8.446-8.525c15.424-15.28 35.031-25.73 56.49-29.865z"/>
            <path fill="#D7297D" d="M146.49 77.582l9.216 7.686c-9.821 11.774-16.771 25.685-20.22 40.694l-11.695-2.687c3.873-16.86 11.678-32.48 22.7-45.693z"/>
            <path fill="#FF8337" d="M121.737 135.2l11.92 1.382A99.098 99.098 0 0 0 133 148c0 14.04 2.95 27.653 8.583 40.17l-10.943 4.924C124.314 179.037 121 163.746 121 148c0-4.3.247-8.572.737-12.8z"/>
            <path fill="#FFC15A" d="M136.717 204.693l10.278-6.193a98.545 98.545 0 0 0 26.946 29.186l-6.995 9.75a110.545 110.545 0 0 1-30.23-32.743z"/>
            <path fill="#50E3C2" d="M177.283 244.013l5.868-10.467a97.303 97.303 0 0 0 35.44 11.677l-1.503 11.905a109.302 109.302 0 0 1-39.805-13.115z"/>
            <path fill="#2CBEDF" d="M231 258v-12c19.03 0 37.24-5.428 52.899-15.488l6.486 10.096C272.807 251.902 252.347 258 231 258z"/>
            <path fill="#184AAA" d="M302.438 231.648l-7.797-9.121C316.298 204.014 329 177.047 329 148c0-49.07-36.282-90.399-84.441-97.07l-1.95-.277 1.687-11.881 1.93.274C300.28 46.534 341 92.919 341 148c0 32.592-14.266 62.88-38.562 83.648z"/>
        </g>
        <g fill="url(#a)" fill-rule="nonzero" transform="translate(164 82)">
            <path d="M66.5 133c36.727 0 66.5-29.773 66.5-66.5C133 29.773 103.227 0 66.5 0 29.773 0 0 29.773 0 66.5a.5.5 0 1 0 1 0C1 30.325 30.325 1 66.5 1S132 30.325 132 66.5 102.675 132 66.5 132a.5.5 0 0 0 0 1z"/>
            <path d="M67 14c-29.271 0-53 23.729-53 53s23.729 53 53 53 53-23.729 53-53a2 2 0 0 0-4 0c0 27.062-21.938 49-49 49S18 94.062 18 67s21.938-49 49-49a2 2 0 1 0 0-4z"/>
        </g>
    </g>
</svg>
