<?xml version="1.0" encoding="UTF-8"?>
<svg width="433px" height="457px" viewBox="0 0 433 457" version="1.1" xmlns="http://www.w3.org/2000/svg" xmlns:xlink="http://www.w3.org/1999/xlink">
    <!-- Generator: Sketch 47 (45396) - http://www.bohemiancoding.com/sketch -->
    <title>Group 25</title>
    <desc>Created with Sketch.</desc>
    <defs>
        <linearGradient x1="0%" y1="59.7579893%" x2="48.2628078%" y2="25.157536%" id="linearGradient-1">
            <stop stop-color="#57D8F1" offset="0%"></stop>
            <stop stop-color="#C991FF" offset="100%"></stop>
        </linearGradient>
        <linearGradient x1="100%" y1="100%" x2="100%" y2="1.52141703%" id="linearGradient-2">
            <stop stop-color="#57D8F1" offset="0%"></stop>
            <stop stop-color="#C991FF" offset="100%"></stop>
        </linearGradient>
        <linearGradient x1="50%" y1="100%" x2="50%" y2="0%" id="linearGradient-3">
            <stop stop-color="#57D8F1" stop-opacity="0.25" offset="0%"></stop>
            <stop stop-color="#ABA4FB" stop-opacity="0.15" offset="69.2149229%"></stop>
            <stop stop-color="#C991FF" offset="100%"></stop>
        </linearGradient>
        <linearGradient x1="0%" y1="59.7579893%" x2="48.2628078%" y2="25.157536%" id="linearGradient-4">
            <stop stop-color="#57D8F1" offset="0%"></stop>
            <stop stop-color="#BDA4D4" offset="100%"></stop>
        </linearGradient>
        <linearGradient x1="0%" y1="59.7579893%" x2="48.2628078%" y2="25.157536%" id="linearGradient-5">
            <stop stop-color="#57D8F1" offset="0%"></stop>
            <stop stop-color="#BDA4D4" offset="100%"></stop>
        </linearGradient>
        <linearGradient x1="50%" y1="80.9803916%" x2="50%" y2="4.85995929%" id="linearGradient-6">
            <stop stop-color="#5BD5F1" offset="0%"></stop>
            <stop stop-color="#E0BE19" offset="100%"></stop>
        </linearGradient>
        <linearGradient x1="50%" y1="167.222293%" x2="50%" y2="100%" id="linearGradient-7">
            <stop stop-color="#5BD5F1" offset="0%"></stop>
            <stop stop-color="#E0BE19" offset="100%"></stop>
        </linearGradient>
        <linearGradient x1="86.9927813%" y1="0%" x2="17.6446144%" y2="84.9158654%" id="linearGradient-8">
            <stop stop-color="#2CBFDF" offset="0%"></stop>
            <stop stop-color="#00FFFD" offset="100%"></stop>
        </linearGradient>
        <linearGradient x1="79.8503089%" y1="0%" x2="16.2570409%" y2="50%" id="linearGradient-9">
            <stop stop-color="#F9FFCD" offset="0%"></stop>
            <stop stop-color="#AAE9FF" offset="100%"></stop>
        </linearGradient>
        <path d="M0.847,444.796 L0.847,443.41 L7.847,443.41 L7.847,444.796 L5.145,444.796 L5.145,453 L3.577,453 L3.577,444.796 L0.847,444.796 Z M12.439,449.584 L12.439,453 L10.885,453 L10.885,443.41 L14.525,443.41 C16.6903442,443.41 17.773,444.427323 17.773,446.462 C17.773,447.824673 17.2503386,448.748664 16.205,449.234 L17.787,453 L16.079,453 L14.693,449.584 L12.439,449.584 Z M16.177,446.476 C16.177,445.327994 15.6263388,444.754 14.525,444.754 L12.439,444.754 L12.439,448.24 L14.553,448.24 C15.1130028,448.24 15.5236654,448.079002 15.785,447.757 C16.0463346,447.434998 16.177,447.008003 16.177,446.476 Z M20.363,453 L22.729,443.41 L25.823,443.41 L28.203,453 L26.635,453 L26.117,450.942 L22.435,450.942 L21.917,453 L20.363,453 Z M23.933,444.712 L22.743,449.57 L25.809,449.57 L24.633,444.712 L23.933,444.712 Z M34.643,453 L31.325,453 L31.325,443.41 L34.643,443.41 C36.117674,443.41 37.125664,443.78333 37.667,444.53 C38.208336,445.27667 38.479,446.447992 38.479,448.044 C38.479,448.856004 38.4253339,449.544331 38.318,450.109 C38.2106661,450.673669 38.021668,451.184664 37.751,451.642 C37.2189973,452.547338 36.1830077,453 34.643,453 Z M36.869,448.044 C36.869,446.886661 36.7243348,446.051336 36.435,445.538 C36.1456652,445.024664 35.5483379,444.768 34.643,444.768 L32.879,444.768 L32.879,451.628 L34.643,451.628 C35.5670046,451.628 36.1829985,451.287337 36.491,450.606 C36.6403341,450.260665 36.7406664,449.892002 36.792,449.5 C36.8433336,449.107998 36.869,448.62267 36.869,448.044 Z M42.049,453 L42.049,443.41 L43.603,443.41 L43.603,453 L42.049,453 Z M46.641,444.796 L46.641,443.41 L53.641,443.41 L53.641,444.796 L50.939,444.796 L50.939,453 L49.371,453 L49.371,444.796 L46.641,444.796 Z M56.679,453 L56.679,443.41 L58.233,443.41 L58.233,453 L56.679,453 Z M63.861,450.97 C64.1783349,451.520669 64.7849955,451.796 65.681,451.796 C66.5770045,451.796 67.1813318,451.525336 67.494,450.984 C67.8066682,450.442664 67.963,449.535006 67.963,448.261 C67.963,446.986994 67.8020016,446.06067 67.48,445.482 C67.1579984,444.90333 66.5583377,444.614 65.681,444.614 C64.8036623,444.614 64.2016683,444.90333 63.875,445.482 C63.5483317,446.06067 63.385,446.982327 63.385,448.247 C63.385,449.511673 63.5436651,450.419331 63.861,450.97 Z M68.705,451.978 C68.1356638,452.762004 67.1276739,453.154 65.681,453.154 C64.2343261,453.154 63.2216696,452.759671 62.643,451.971 C62.0643304,451.182329 61.775,449.943342 61.775,448.254 C61.775,446.564658 62.0666638,445.309337 62.65,444.488 C63.2333363,443.666663 64.2436595,443.256 65.681,443.256 C67.1183405,443.256 68.1263304,443.664329 68.705,444.481 C69.2836696,445.297671 69.573,446.555325 69.573,448.254 C69.573,449.952675 69.2836696,451.193996 68.705,451.978 Z M73.129,453 L73.129,443.41 L75.845,443.41 L78.757,451.628 L78.967,451.628 L78.967,443.41 L80.521,443.41 L80.521,453 L77.861,453 L74.879,444.768 L74.683,444.768 L74.683,453 L73.129,453 Z M83.657,453 L86.023,443.41 L89.117,443.41 L91.497,453 L89.929,453 L89.411,450.942 L85.729,450.942 L85.211,453 L83.657,453 Z M87.227,444.712 L86.037,449.57 L89.103,449.57 L87.927,444.712 L87.227,444.712 Z M99.995,453 L94.619,453 L94.619,443.41 L96.173,443.41 L96.173,451.614 L99.995,451.614 L99.995,453 Z M111.069,453.154 C109.668993,453.154 108.719336,452.766671 108.22,451.992 C107.720664,451.217329 107.471,449.943342 107.471,448.17 C107.471,446.396658 107.722997,445.134337 108.227,444.383 C108.731003,443.631663 109.678326,443.256 111.069,443.256 C111.899671,443.256 112.814328,443.372665 113.813,443.606 L113.757,444.866 C112.916996,444.716666 112.077004,444.642 111.237,444.642 C110.396996,444.642 109.827668,444.891664 109.529,445.391 C109.230332,445.890336 109.081,446.828326 109.081,448.205 C109.081,449.581674 109.225665,450.519664 109.515,451.019 C109.804335,451.518336 110.368996,451.768 111.209,451.768 C112.049004,451.768 112.898329,451.698001 113.757,451.558 L113.799,452.846 C112.837662,453.051334 111.927671,453.154 111.069,453.154 Z M118.699,449.934 C118.699,451.17534 119.352327,451.796 120.659,451.796 C121.965673,451.796 122.619,451.17534 122.619,449.934 L122.619,443.41 L124.187,443.41 L124.187,449.906 C124.187,451.035339 123.89067,451.858997 123.298,452.377 C122.70533,452.895003 121.823339,453.154 120.652,453.154 C119.480661,453.154 118.601003,452.895003 118.013,452.377 C117.424997,451.858997 117.131,451.035339 117.131,449.906 L117.131,443.41 L118.699,443.41 L118.699,449.934 Z M129.619,449.584 L129.619,453 L128.065,453 L128.065,443.41 L131.705,443.41 C133.870344,443.41 134.953,444.427323 134.953,446.462 C134.953,447.824673 134.430339,448.748664 133.385,449.234 L134.967,453 L133.259,453 L131.873,449.584 L129.619,449.584 Z M133.357,446.476 C133.357,445.327994 132.806339,444.754 131.705,444.754 L129.619,444.754 L129.619,448.24 L131.733,448.24 C132.293003,448.24 132.703665,448.079002 132.965,447.757 C133.226335,447.434998 133.357,447.008003 133.357,446.476 Z M140.021,449.584 L140.021,453 L138.467,453 L138.467,443.41 L142.107,443.41 C144.272344,443.41 145.355,444.427323 145.355,446.462 C145.355,447.824673 144.832339,448.748664 143.787,449.234 L145.369,453 L143.661,453 L142.275,449.584 L140.021,449.584 Z M143.759,446.476 C143.759,445.327994 143.208339,444.754 142.107,444.754 L140.021,444.754 L140.021,448.24 L142.135,448.24 C142.695003,448.24 143.105665,448.079002 143.367,447.757 C143.628335,447.434998 143.759,447.008003 143.759,446.476 Z M148.869,453 L148.869,443.41 L154.917,443.41 L154.917,444.768 L150.423,444.768 L150.423,447.484 L154.077,447.484 L154.077,448.828 L150.423,448.828 L150.423,451.628 L154.917,451.628 L154.917,453 L148.869,453 Z M158.361,453 L158.361,443.41 L161.077,443.41 L163.989,451.628 L164.199,451.628 L164.199,443.41 L165.753,443.41 L165.753,453 L163.093,453 L160.111,444.768 L159.915,444.768 L159.915,453 L158.361,453 Z M172.935,453.154 C171.534993,453.154 170.585336,452.766671 170.086,451.992 C169.586664,451.217329 169.337,449.943342 169.337,448.17 C169.337,446.396658 169.588997,445.134337 170.093,444.383 C170.597003,443.631663 171.544326,443.256 172.935,443.256 C173.765671,443.256 174.680328,443.372665 175.679,443.606 L175.623,444.866 C174.782996,444.716666 173.943004,444.642 173.103,444.642 C172.262996,444.642 171.693668,444.891664 171.395,445.391 C171.096332,445.890336 170.947,446.828326 170.947,448.205 C170.947,449.581674 171.091665,450.519664 171.381,451.019 C171.670335,451.518336 172.234996,451.768 173.075,451.768 C173.915004,451.768 174.764329,451.698001 175.623,451.558 L175.665,452.846 C174.703662,453.051334 173.793671,453.154 172.935,453.154 Z M179.081,453 L179.081,443.41 L180.635,443.41 L180.635,453 L179.081,453 Z M184.597,453 L184.597,443.41 L190.645,443.41 L190.645,444.768 L186.151,444.768 L186.151,447.484 L189.805,447.484 L189.805,448.828 L186.151,448.828 L186.151,451.628 L190.645,451.628 L190.645,453 L184.597,453 Z M196.903,444.614 C195.717661,444.614 195.125,445.029329 195.125,445.86 C195.125,446.289335 195.264999,446.594999 195.545,446.777 C195.825001,446.959001 196.443329,447.182999 197.4,447.449 C198.356671,447.715001 199.030998,448.032331 199.423,448.401 C199.815002,448.769669 200.011,449.350663 200.011,450.144 C200.011,451.152005 199.724003,451.905664 199.15,452.405 C198.575997,452.904336 197.794338,453.154 196.805,453.154 C196.011663,453.154 195.134338,453.060668 194.173,452.874 L193.669,452.776 L193.823,451.53 C195.083006,451.698001 196.04433,451.782 196.707,451.782 C197.864339,451.782 198.443,451.268672 198.443,450.242 C198.443,449.840665 198.312335,449.544334 198.051,449.353 C197.789665,449.161666 197.201671,448.951668 196.287,448.723 C195.372329,448.494332 194.691002,448.179335 194.243,447.778 C193.794998,447.376665 193.571,446.742004 193.571,445.874 C193.571,445.005996 193.853331,444.350336 194.418,443.907 C194.982669,443.463664 195.764328,443.242 196.763,443.242 C197.48167,443.242 198.330995,443.325999 199.311,443.494 L199.801,443.578 L199.675,444.838 C198.368327,444.688666 197.444336,444.614 196.903,444.614 Z" id="path-10"></path>
        <filter x="-3.0%" y="-60.5%" width="106.0%" height="221.1%" filterUnits="objectBoundingBox" id="filter-11">
            <feOffset dx="0" dy="0" in="SourceAlpha" result="shadowOffsetOuter1"></feOffset>
            <feGaussianBlur stdDeviation="2" in="shadowOffsetOuter1" result="shadowBlurOuter1"></feGaussianBlur>
            <feColorMatrix values="0 0 0 0 0.921568627   0 0 0 0 0.984313725   0 0 0 0 1  0 0 0 0.02 0" type="matrix" in="shadowBlurOuter1"></feColorMatrix>
        </filter>
        <path d="M273.131,453 L269.813,453 L269.813,443.41 L273.131,443.41 C274.605674,443.41 275.613664,443.78333 276.155,444.53 C276.696336,445.27667 276.967,446.447992 276.967,448.044 C276.967,448.856004 276.913334,449.544331 276.806,450.109 C276.698666,450.673669 276.509668,451.184664 276.239,451.642 C275.706997,452.547338 274.671008,453 273.131,453 Z M275.357,448.044 C275.357,446.886661 275.212335,446.051336 274.923,445.538 C274.633665,445.024664 274.036338,444.768 273.131,444.768 L271.367,444.768 L271.367,451.628 L273.131,451.628 C274.055005,451.628 274.670998,451.287337 274.979,450.606 C275.128334,450.260665 275.228666,449.892002 275.28,449.5 C275.331334,449.107998 275.357,448.62267 275.357,448.044 Z M280.537,453 L280.537,443.41 L282.091,443.41 L282.091,453 L280.537,453 Z M289.959,449.332 L289.959,447.96 L292.689,447.96 L292.689,452.832 C292.436999,452.897334 291.926004,452.967333 291.156,453.042 C290.385996,453.116667 289.828335,453.154 289.483,453.154 C288.026993,453.154 287.023669,452.752671 286.473,451.95 C285.922331,451.147329 285.647,449.889675 285.647,448.177 C285.647,446.464325 285.929331,445.216004 286.494,444.432 C287.058669,443.647996 288.036326,443.256 289.427,443.256 C290.248337,443.256 291.172328,443.349332 292.199,443.536 L292.689,443.634 L292.633,444.866 C291.503661,444.716666 290.491004,444.642 289.595,444.642 C288.698996,444.642 288.085335,444.893997 287.754,445.398 C287.422665,445.902003 287.257,446.835327 287.257,448.198 C287.257,449.560673 287.413332,450.500997 287.726,451.019 C288.038668,451.537003 288.670995,451.796 289.623,451.796 C290.304337,451.796 290.812998,451.754 291.149,451.67 L291.149,449.332 L289.959,449.332 Z M296.385,453 L296.385,443.41 L297.939,443.41 L297.939,453 L296.385,453 Z M300.977,444.796 L300.977,443.41 L307.977,443.41 L307.977,444.796 L305.275,444.796 L305.275,453 L303.707,453 L303.707,444.796 L300.977,444.796 Z M309.615,453 L311.981,443.41 L315.075,443.41 L317.455,453 L315.887,453 L315.369,450.942 L311.687,450.942 L311.169,453 L309.615,453 Z M313.185,444.712 L311.995,449.57 L315.061,449.57 L313.885,444.712 L313.185,444.712 Z M325.953,453 L320.577,453 L320.577,443.41 L322.131,443.41 L322.131,451.614 L325.953,451.614 L325.953,453 Z M337.027,453.154 C335.626993,453.154 334.677336,452.766671 334.178,451.992 C333.678664,451.217329 333.429,449.943342 333.429,448.17 C333.429,446.396658 333.680997,445.134337 334.185,444.383 C334.689003,443.631663 335.636326,443.256 337.027,443.256 C337.857671,443.256 338.772328,443.372665 339.771,443.606 L339.715,444.866 C338.874996,444.716666 338.035004,444.642 337.195,444.642 C336.354996,444.642 335.785668,444.891664 335.487,445.391 C335.188332,445.890336 335.039,446.828326 335.039,448.205 C335.039,449.581674 335.183665,450.519664 335.473,451.019 C335.762335,451.518336 336.326996,451.768 337.167,451.768 C338.007004,451.768 338.856329,451.698001 339.715,451.558 L339.757,452.846 C338.795662,453.051334 337.885671,453.154 337.027,453.154 Z M344.657,449.934 C344.657,451.17534 345.310327,451.796 346.617,451.796 C347.923673,451.796 348.577,451.17534 348.577,449.934 L348.577,443.41 L350.145,443.41 L350.145,449.906 C350.145,451.035339 349.84867,451.858997 349.256,452.377 C348.66333,452.895003 347.781339,453.154 346.61,453.154 C345.438661,453.154 344.559003,452.895003 343.971,452.377 C343.382997,451.858997 343.089,451.035339 343.089,449.906 L343.089,443.41 L344.657,443.41 L344.657,449.934 Z M355.577,449.584 L355.577,453 L354.023,453 L354.023,443.41 L357.663,443.41 C359.828344,443.41 360.911,444.427323 360.911,446.462 C360.911,447.824673 360.388339,448.748664 359.343,449.234 L360.925,453 L359.217,453 L357.831,449.584 L355.577,449.584 Z M359.315,446.476 C359.315,445.327994 358.764339,444.754 357.663,444.754 L355.577,444.754 L355.577,448.24 L357.691,448.24 C358.251003,448.24 358.661665,448.079002 358.923,447.757 C359.184335,447.434998 359.315,447.008003 359.315,446.476 Z M365.979,449.584 L365.979,453 L364.425,453 L364.425,443.41 L368.065,443.41 C370.230344,443.41 371.313,444.427323 371.313,446.462 C371.313,447.824673 370.790339,448.748664 369.745,449.234 L371.327,453 L369.619,453 L368.233,449.584 L365.979,449.584 Z M369.717,446.476 C369.717,445.327994 369.166339,444.754 368.065,444.754 L365.979,444.754 L365.979,448.24 L368.093,448.24 C368.653003,448.24 369.063665,448.079002 369.325,447.757 C369.586335,447.434998 369.717,447.008003 369.717,446.476 Z M374.827,453 L374.827,443.41 L380.875,443.41 L380.875,444.768 L376.381,444.768 L376.381,447.484 L380.035,447.484 L380.035,448.828 L376.381,448.828 L376.381,451.628 L380.875,451.628 L380.875,453 L374.827,453 Z M384.319,453 L384.319,443.41 L387.035,443.41 L389.947,451.628 L390.157,451.628 L390.157,443.41 L391.711,443.41 L391.711,453 L389.051,453 L386.069,444.768 L385.873,444.768 L385.873,453 L384.319,453 Z M398.893,453.154 C397.492993,453.154 396.543336,452.766671 396.044,451.992 C395.544664,451.217329 395.295,449.943342 395.295,448.17 C395.295,446.396658 395.546997,445.134337 396.051,444.383 C396.555003,443.631663 397.502326,443.256 398.893,443.256 C399.723671,443.256 400.638328,443.372665 401.637,443.606 L401.581,444.866 C400.740996,444.716666 399.901004,444.642 399.061,444.642 C398.220996,444.642 397.651668,444.891664 397.353,445.391 C397.054332,445.890336 396.905,446.828326 396.905,448.205 C396.905,449.581674 397.049665,450.519664 397.339,451.019 C397.628335,451.518336 398.192996,451.768 399.033,451.768 C399.873004,451.768 400.722329,451.698001 401.581,451.558 L401.623,452.846 C400.661662,453.051334 399.751671,453.154 398.893,453.154 Z M405.039,453 L405.039,443.41 L406.593,443.41 L406.593,453 L405.039,453 Z M410.555,453 L410.555,443.41 L416.603,443.41 L416.603,444.768 L412.109,444.768 L412.109,447.484 L415.763,447.484 L415.763,448.828 L412.109,448.828 L412.109,451.628 L416.603,451.628 L416.603,453 L410.555,453 Z M422.861,444.614 C421.675661,444.614 421.083,445.029329 421.083,445.86 C421.083,446.289335 421.222999,446.594999 421.503,446.777 C421.783001,446.959001 422.401329,447.182999 423.358,447.449 C424.314671,447.715001 424.988998,448.032331 425.381,448.401 C425.773002,448.769669 425.969,449.350663 425.969,450.144 C425.969,451.152005 425.682003,451.905664 425.108,452.405 C424.533997,452.904336 423.752338,453.154 422.763,453.154 C421.969663,453.154 421.092338,453.060668 420.131,452.874 L419.627,452.776 L419.781,451.53 C421.041006,451.698001 422.00233,451.782 422.665,451.782 C423.822339,451.782 424.401,451.268672 424.401,450.242 C424.401,449.840665 424.270335,449.544334 424.009,449.353 C423.747665,449.161666 423.159671,448.951668 422.245,448.723 C421.330329,448.494332 420.649002,448.179335 420.201,447.778 C419.752998,447.376665 419.529,446.742004 419.529,445.874 C419.529,445.005996 419.811331,444.350336 420.376,443.907 C420.940669,443.463664 421.722328,443.242 422.721,443.242 C423.43967,443.242 424.288995,443.325999 425.269,443.494 L425.759,443.578 L425.633,444.838 C424.326327,444.688666 423.402336,444.614 422.861,444.614 Z" id="path-12"></path>
        <filter x="-3.8%" y="-60.5%" width="107.7%" height="221.1%" filterUnits="objectBoundingBox" id="filter-13">
            <feOffset dx="0" dy="0" in="SourceAlpha" result="shadowOffsetOuter1"></feOffset>
            <feGaussianBlur stdDeviation="2" in="shadowOffsetOuter1" result="shadowBlurOuter1"></feGaussianBlur>
            <feColorMatrix values="0 0 0 0 0.921568627   0 0 0 0 0.984313725   0 0 0 0 1  0 0 0 0.02 0" type="matrix" in="shadowBlurOuter1"></feColorMatrix>
        </filter>
        <path d="M28.825,74.97 C29.1423349,75.5206694 29.7489955,75.796 30.645,75.796 C31.5410045,75.796 32.1453318,75.525336 32.458,74.984 C32.7706682,74.442664 32.927,73.5350064 32.927,72.261 C32.927,70.9869936 32.7660016,70.0606696 32.444,69.482 C32.1219984,68.9033304 31.5223377,68.614 30.645,68.614 C29.7676623,68.614 29.1656683,68.9033304 28.839,69.482 C28.5123317,70.0606696 28.349,70.982327 28.349,72.247 C28.349,73.511673 28.5076651,74.4193306 28.825,74.97 Z M33.669,75.978 C33.0996638,76.7620039 32.0916739,77.154 30.645,77.154 C29.1983261,77.154 28.1856696,76.7596706 27.607,75.971 C27.0283304,75.1823294 26.739,73.9433418 26.739,72.254 C26.739,70.5646582 27.0306638,69.3093374 27.614,68.488 C28.1973363,67.6666626 29.2076595,67.256 30.645,67.256 C32.0823405,67.256 33.0903304,67.6643292 33.669,68.481 C34.2476696,69.2976707 34.537,70.5553248 34.537,72.254 C34.537,73.9526752 34.2476696,75.1939961 33.669,75.978 Z M38.093,77 L38.093,67.41 L44.043,67.41 L44.043,68.768 L39.647,68.768 L39.647,72.002 L43.301,72.002 L43.301,73.36 L39.647,73.36 L39.647,77 L38.093,77 Z M55.299,77.154 C53.898993,77.154 52.9493358,76.7666705 52.45,75.992 C51.9506642,75.2173295 51.701,73.9433422 51.701,72.17 C51.701,70.3966578 51.9529975,69.1343371 52.457,68.383 C52.9610025,67.6316629 53.9083264,67.256 55.299,67.256 C56.1296708,67.256 57.0443283,67.3726655 58.043,67.606 L57.987,68.866 C57.1469958,68.7166659 56.3070042,68.642 55.467,68.642 C54.6269958,68.642 54.0576682,68.8916642 53.759,69.391 C53.4603318,69.8903358 53.311,70.8283265 53.311,72.205 C53.311,73.5816736 53.4556652,74.5196642 53.745,75.019 C54.0343348,75.5183358 54.5989958,75.768 55.439,75.768 C56.2790042,75.768 57.128329,75.6980007 57.987,75.558 L58.029,76.846 C57.0676619,77.0513344 56.157671,77.154 55.299,77.154 Z M62.999,74.97 C63.3163349,75.5206694 63.9229955,75.796 64.819,75.796 C65.7150045,75.796 66.3193318,75.525336 66.632,74.984 C66.9446682,74.442664 67.101,73.5350064 67.101,72.261 C67.101,70.9869936 66.9400016,70.0606696 66.618,69.482 C66.2959984,68.9033304 65.6963377,68.614 64.819,68.614 C63.9416623,68.614 63.3396683,68.9033304 63.013,69.482 C62.6863317,70.0606696 62.523,70.982327 62.523,72.247 C62.523,73.511673 62.6816651,74.4193306 62.999,74.97 Z M67.843,75.978 C67.2736638,76.7620039 66.2656739,77.154 64.819,77.154 C63.3723261,77.154 62.3596696,76.7596706 61.781,75.971 C61.2023304,75.1823294 60.913,73.9433418 60.913,72.254 C60.913,70.5646582 61.2046638,69.3093374 61.788,68.488 C62.3713363,67.6666626 63.3816595,67.256 64.819,67.256 C66.2563405,67.256 67.2643304,67.6643292 67.843,68.481 C68.4216696,69.2976707 68.711,70.5553248 68.711,72.254 C68.711,73.9526752 68.4216696,75.1939961 67.843,75.978 Z M72.267,77 L72.267,67.41 L74.983,67.41 L77.895,75.628 L78.105,75.628 L78.105,67.41 L79.659,67.41 L79.659,77 L76.999,77 L74.017,68.768 L73.821,68.768 L73.821,77 L72.267,77 Z M86.435,68.614 C85.2496607,68.614 84.657,69.0293292 84.657,69.86 C84.657,70.2893355 84.7969986,70.5949991 85.077,70.777 C85.3570014,70.9590009 85.9753286,71.1829987 86.932,71.449 C87.8886715,71.7150013 88.562998,72.0323315 88.955,72.401 C89.347002,72.7696685 89.543,73.3506627 89.543,74.144 C89.543,75.152005 89.2560029,75.9056642 88.682,76.405 C88.1079971,76.9043358 87.3263383,77.154 86.337,77.154 C85.5436627,77.154 84.6663381,77.0606676 83.705,76.874 L83.201,76.776 L83.355,75.53 C84.6150063,75.6980008 85.57633,75.782 86.239,75.782 C87.3963391,75.782 87.975,75.2686718 87.975,74.242 C87.975,73.8406647 87.8443346,73.5443343 87.583,73.353 C87.3216654,73.1616657 86.7336712,72.9516678 85.819,72.723 C84.9043288,72.4943322 84.2230022,72.1793353 83.775,71.778 C83.3269978,71.3766647 83.103,70.7420043 83.103,69.874 C83.103,69.0059957 83.3853305,68.3503355 83.95,67.907 C84.5146695,67.4636644 85.2963283,67.242 86.295,67.242 C87.0136703,67.242 87.8629951,67.3259992 88.843,67.494 L89.333,67.578 L89.207,68.838 C87.9003268,68.6886659 86.976336,68.614 86.435,68.614 Z M94.457,73.934 C94.457,75.1753395 95.1103268,75.796 96.417,75.796 C97.7236732,75.796 98.377,75.1753395 98.377,73.934 L98.377,67.41 L99.945,67.41 L99.945,73.906 C99.945,75.035339 99.6486696,75.8589974 99.056,76.377 C98.4633304,76.8950026 97.5813392,77.154 96.41,77.154 C95.2386608,77.154 94.3590029,76.8950026 93.771,76.377 C93.1829971,75.8589974 92.889,75.035339 92.889,73.906 L92.889,67.41 L94.457,67.41 L94.457,73.934 Z M103.823,77 L103.823,67.41 L106.525,67.41 L108.667,74.9 L110.809,67.41 L113.525,67.41 L113.525,77 L111.957,77 L111.957,69.132 L111.747,69.132 L109.479,76.608 L107.855,76.608 L105.587,69.132 L105.377,69.132 L105.377,77 L103.823,77 Z M117.473,77 L117.473,67.41 L123.521,67.41 L123.521,68.768 L119.027,68.768 L119.027,71.484 L122.681,71.484 L122.681,72.828 L119.027,72.828 L119.027,75.628 L123.521,75.628 L123.521,77 L117.473,77 Z M128.519,73.584 L128.519,77 L126.965,77 L126.965,67.41 L130.605,67.41 C132.770344,67.41 133.853,68.4273232 133.853,70.462 C133.853,71.8246735 133.330339,72.7486642 132.285,73.234 L133.867,77 L132.159,77 L130.773,73.584 L128.519,73.584 Z M132.257,70.476 C132.257,69.3279943 131.706339,68.754 130.605,68.754 L128.519,68.754 L128.519,72.24 L130.633,72.24 C131.193003,72.24 131.603665,72.0790016 131.865,71.757 C132.126335,71.4349984 132.257,71.0080027 132.257,70.476 Z M137.059,73.92 L137.059,72.534 L141.245,72.534 L141.245,73.92 L137.059,73.92 Z M144.955,77 L144.955,67.41 L146.509,67.41 L146.509,77 L144.955,77 Z M150.471,77 L150.471,67.41 L153.187,67.41 L156.099,75.628 L156.309,75.628 L156.309,67.41 L157.863,67.41 L157.863,77 L155.203,77 L152.221,68.768 L152.025,68.768 L152.025,77 L150.471,77 Z M161.825,77 L161.825,67.41 L163.379,67.41 L163.379,77 L161.825,77 Z M166.417,68.796 L166.417,67.41 L173.417,67.41 L173.417,68.796 L170.715,68.796 L170.715,77 L169.147,77 L169.147,68.796 L166.417,68.796 Z M176.455,77 L176.455,67.41 L178.009,67.41 L178.009,77 L176.455,77 Z M181.145,77 L183.511,67.41 L186.605,67.41 L188.985,77 L187.417,77 L186.899,74.942 L183.217,74.942 L182.699,77 L181.145,77 Z M184.715,68.712 L183.525,73.57 L186.591,73.57 L185.415,68.712 L184.715,68.712 Z M190.609,68.796 L190.609,67.41 L197.609,67.41 L197.609,68.796 L194.907,68.796 L194.907,77 L193.339,77 L193.339,68.796 L190.609,68.796 Z M200.647,77 L200.647,67.41 L206.695,67.41 L206.695,68.768 L202.201,68.768 L202.201,71.484 L205.855,71.484 L205.855,72.828 L202.201,72.828 L202.201,75.628 L206.695,75.628 L206.695,77 L200.647,77 Z M213.457,77 L210.139,77 L210.139,67.41 L213.457,67.41 C214.931674,67.41 215.939664,67.7833296 216.481,68.53 C217.022336,69.2766704 217.293,70.447992 217.293,72.044 C217.293,72.8560041 217.239334,73.5443305 217.132,74.109 C217.024666,74.6736695 216.835668,75.1846644 216.565,75.642 C216.032997,76.5473379 214.997008,77 213.457,77 Z M215.683,72.044 C215.683,70.8866609 215.538335,70.0513359 215.249,69.538 C214.959665,69.0246641 214.362338,68.768 213.457,68.768 L211.693,68.768 L211.693,75.628 L213.457,75.628 C214.381005,75.628 214.996998,75.2873367 215.305,74.606 C215.454334,74.2606649 215.554666,73.892002 215.606,73.5 C215.657334,73.107998 215.683,72.6226696 215.683,72.044 Z M224.769,68.796 L224.769,67.41 L231.769,67.41 L231.769,68.796 L229.067,68.796 L229.067,77 L227.499,77 L227.499,68.796 L224.769,68.796 Z M236.361,73.584 L236.361,77 L234.807,77 L234.807,67.41 L238.447,67.41 C240.612344,67.41 241.695,68.4273232 241.695,70.462 C241.695,71.8246735 241.172339,72.7486642 240.127,73.234 L241.709,77 L240.001,77 L238.615,73.584 L236.361,73.584 Z M240.099,70.476 C240.099,69.3279943 239.548339,68.754 238.447,68.754 L236.361,68.754 L236.361,72.24 L238.475,72.24 C239.035003,72.24 239.445665,72.0790016 239.707,71.757 C239.968335,71.4349984 240.099,71.0080027 240.099,70.476 Z M244.285,77 L246.651,67.41 L249.745,67.41 L252.125,77 L250.557,77 L250.039,74.942 L246.357,74.942 L245.839,77 L244.285,77 Z M247.855,68.712 L246.665,73.57 L249.731,73.57 L248.555,68.712 L247.855,68.712 Z M255.247,77 L255.247,67.41 L257.963,67.41 L260.875,75.628 L261.085,75.628 L261.085,67.41 L262.639,67.41 L262.639,77 L259.979,77 L256.997,68.768 L256.801,68.768 L256.801,77 L255.247,77 Z M269.415,68.614 C268.229661,68.614 267.637,69.0293292 267.637,69.86 C267.637,70.2893355 267.776999,70.5949991 268.057,70.777 C268.337001,70.9590009 268.955329,71.1829987 269.912,71.449 C270.868671,71.7150013 271.542998,72.0323315 271.935,72.401 C272.327002,72.7696685 272.523,73.3506627 272.523,74.144 C272.523,75.152005 272.236003,75.9056642 271.662,76.405 C271.087997,76.9043358 270.306338,77.154 269.317,77.154 C268.523663,77.154 267.646338,77.0606676 266.685,76.874 L266.181,76.776 L266.335,75.53 C267.595006,75.6980008 268.55633,75.782 269.219,75.782 C270.376339,75.782 270.955,75.2686718 270.955,74.242 C270.955,73.8406647 270.824335,73.5443343 270.563,73.353 C270.301665,73.1616657 269.713671,72.9516678 268.799,72.723 C267.884329,72.4943322 267.203002,72.1793353 266.755,71.778 C266.306998,71.3766647 266.083,70.7420043 266.083,69.874 C266.083,69.0059957 266.365331,68.3503355 266.93,67.907 C267.494669,67.4636644 268.276328,67.242 269.275,67.242 C269.99367,67.242 270.842995,67.3259992 271.823,67.494 L272.313,67.578 L272.187,68.838 C270.880327,68.6886659 269.956336,68.614 269.415,68.614 Z M275.001,77 L277.367,67.41 L280.461,67.41 L282.841,77 L281.273,77 L280.755,74.942 L277.073,74.942 L276.555,77 L275.001,77 Z M278.571,68.712 L277.381,73.57 L280.447,73.57 L279.271,68.712 L278.571,68.712 Z M289.043,77.154 C287.642993,77.154 286.693336,76.7666705 286.194,75.992 C285.694664,75.2173295 285.445,73.9433422 285.445,72.17 C285.445,70.3966578 285.696997,69.1343371 286.201,68.383 C286.705003,67.6316629 287.652326,67.256 289.043,67.256 C289.873671,67.256 290.788328,67.3726655 291.787,67.606 L291.731,68.866 C290.890996,68.7166659 290.051004,68.642 289.211,68.642 C288.370996,68.642 287.801668,68.8916642 287.503,69.391 C287.204332,69.8903358 287.055,70.8283265 287.055,72.205 C287.055,73.5816736 287.199665,74.5196642 287.489,75.019 C287.778335,75.5183358 288.342996,75.768 289.183,75.768 C290.023004,75.768 290.872329,75.6980007 291.731,75.558 L291.773,76.846 C290.811662,77.0513344 289.901671,77.154 289.043,77.154 Z M294.265,68.796 L294.265,67.41 L301.265,67.41 L301.265,68.796 L298.563,68.796 L298.563,77 L296.995,77 L296.995,68.796 L294.265,68.796 Z M304.303,77 L304.303,67.41 L305.857,67.41 L305.857,77 L304.303,77 Z M311.485,74.97 C311.802335,75.5206694 312.408996,75.796 313.305,75.796 C314.201004,75.796 314.805332,75.525336 315.118,74.984 C315.430668,74.442664 315.587,73.5350064 315.587,72.261 C315.587,70.9869936 315.426002,70.0606696 315.104,69.482 C314.781998,68.9033304 314.182338,68.614 313.305,68.614 C312.427662,68.614 311.825668,68.9033304 311.499,69.482 C311.172332,70.0606696 311.009,70.982327 311.009,72.247 C311.009,73.511673 311.167665,74.4193306 311.485,74.97 Z M316.329,75.978 C315.759664,76.7620039 314.751674,77.154 313.305,77.154 C311.858326,77.154 310.84567,76.7596706 310.267,75.971 C309.68833,75.1823294 309.399,73.9433418 309.399,72.254 C309.399,70.5646582 309.690664,69.3093374 310.274,68.488 C310.857336,67.6666626 311.867659,67.256 313.305,67.256 C314.742341,67.256 315.75033,67.6643292 316.329,68.481 C316.90767,69.2976707 317.197,70.5553248 317.197,72.254 C317.197,73.9526752 316.90767,75.1939961 316.329,75.978 Z M320.753,77 L320.753,67.41 L323.469,67.41 L326.381,75.628 L326.591,75.628 L326.591,67.41 L328.145,67.41 L328.145,77 L325.485,77 L322.503,68.768 L322.307,68.768 L322.307,77 L320.753,77 Z M334.921,68.614 C333.735661,68.614 333.143,69.0293292 333.143,69.86 C333.143,70.2893355 333.282999,70.5949991 333.563,70.777 C333.843001,70.9590009 334.461329,71.1829987 335.418,71.449 C336.374671,71.7150013 337.048998,72.0323315 337.441,72.401 C337.833002,72.7696685 338.029,73.3506627 338.029,74.144 C338.029,75.152005 337.742003,75.9056642 337.168,76.405 C336.593997,76.9043358 335.812338,77.154 334.823,77.154 C334.029663,77.154 333.152338,77.0606676 332.191,76.874 L331.687,76.776 L331.841,75.53 C333.101006,75.6980008 334.06233,75.782 334.725,75.782 C335.882339,75.782 336.461,75.2686718 336.461,74.242 C336.461,73.8406647 336.330335,73.5443343 336.069,73.353 C335.807665,73.1616657 335.219671,72.9516678 334.305,72.723 C333.390329,72.4943322 332.709002,72.1793353 332.261,71.778 C331.812998,71.3766647 331.589,70.7420043 331.589,69.874 C331.589,69.0059957 331.871331,68.3503355 332.436,67.907 C333.000669,67.4636644 333.782328,67.242 334.781,67.242 C335.49967,67.242 336.348995,67.3259992 337.329,67.494 L337.819,67.578 L337.693,68.838 C336.386327,68.6886659 335.462336,68.614 334.921,68.614 Z M345.463,77 L347.829,67.41 L350.923,67.41 L353.303,77 L351.735,77 L351.217,74.942 L347.535,74.942 L347.017,77 L345.463,77 Z M349.033,68.712 L347.843,73.57 L350.909,73.57 L349.733,68.712 L349.033,68.712 Z M356.425,77 L356.425,67.41 L359.141,67.41 L362.053,75.628 L362.263,75.628 L362.263,67.41 L363.817,67.41 L363.817,77 L361.157,77 L358.175,68.768 L357.979,68.768 L357.979,77 L356.425,77 Z M367.779,77 L367.779,67.41 L370.495,67.41 L373.407,75.628 L373.617,75.628 L373.617,67.41 L375.171,67.41 L375.171,77 L372.511,77 L369.529,68.768 L369.333,68.768 L369.333,77 L367.779,77 Z M380.617,73.934 C380.617,75.1753395 381.270327,75.796 382.577,75.796 C383.883673,75.796 384.537,75.1753395 384.537,73.934 L384.537,67.41 L386.105,67.41 L386.105,73.906 C386.105,75.035339 385.80867,75.8589974 385.216,76.377 C384.62333,76.8950026 383.741339,77.154 382.57,77.154 C381.398661,77.154 380.519003,76.8950026 379.931,76.377 C379.342997,75.8589974 379.049,75.035339 379.049,73.906 L379.049,67.41 L380.617,67.41 L380.617,73.934 Z M389.073,77 L391.439,67.41 L394.533,67.41 L396.913,77 L395.345,77 L394.827,74.942 L391.145,74.942 L390.627,77 L389.073,77 Z M392.643,68.712 L391.453,73.57 L394.519,73.57 L393.343,68.712 L392.643,68.712 Z M405.411,77 L400.035,77 L400.035,67.41 L401.589,67.41 L401.589,75.614 L405.411,75.614 L405.411,77 Z M413.811,77 L408.435,77 L408.435,67.41 L409.989,67.41 L409.989,75.614 L413.811,75.614 L413.811,77 Z M419.145,77 L417.577,77 L417.577,73.052 L414.567,67.41 L416.317,67.41 L418.347,71.526 L420.391,67.41 L422.127,67.41 L419.145,73.052 L419.145,77 Z" id="path-14"></path>
        <filter x="-1.5%" y="-60.5%" width="103.0%" height="221.1%" filterUnits="objectBoundingBox" id="filter-15">
            <feOffset dx="0" dy="0" in="SourceAlpha" result="shadowOffsetOuter1"></feOffset>
            <feGaussianBlur stdDeviation="2" in="shadowOffsetOuter1" result="shadowBlurOuter1"></feGaussianBlur>
            <feColorMatrix values="0 0 0 0 0.921568627   0 0 0 0 0.984313725   0 0 0 0 1  0 0 0 0.02 0" type="matrix" in="shadowBlurOuter1"></feColorMatrix>
        </filter>
        <linearGradient x1="78.9502382%" y1="13.6976193%" x2="20.8502202%" y2="70.7439806%" id="linearGradient-16">
            <stop stop-color="#EAACFF" offset="0%"></stop>
            <stop stop-color="#8ED2EA" offset="100%"></stop>
        </linearGradient>
    </defs>
    <g id="Page-1" stroke="none" stroke-width="1" fill="none" fill-rule="evenodd">
        <g id="Group-25" transform="translate(3.000000, 0.000000)">
            <g id="Group-24" transform="translate(38.000000, 93.000000)">
                <path d="M186.510878,144.137008 L372.011322,252.733623 L186.505661,359.835367 L186.505661,359.835367 C186.19626,360.013999 185.815062,360.013999 185.505661,359.835367 L-1.98951966e-13,252.733623 L185.500444,144.137008 L185.500444,144.137008 C185.812486,143.954331 186.198837,143.954331 186.510878,144.137008 Z" id="Polygon-Copy-3" stroke="url(#linearGradient-1)" opacity="0.371999547" stroke-linecap="round" stroke-linejoin="round"></path>
                <path d="M372,109 L372,252" id="Line-2" stroke="url(#linearGradient-2)" opacity="0.25" stroke-linecap="square"></path>
                <path d="M186.510878,0.137007822 L372.011322,108.733623 L186.505661,215.835367 L186.505661,215.835367 C186.19626,216.013999 185.815062,216.013999 185.505661,215.835367 L-1.98951966e-13,108.733623 L185.500444,0.137007822 L185.500444,0.137007822 C185.812486,-0.045669274 186.198837,-0.045669274 186.510878,0.137007822 Z" id="Polygon-Copy-5" stroke="url(#linearGradient-3)" stroke-linecap="round"></path>
                <path d="M371.852198,250.121338 L371.852198,252.091241 L310.431382,287.552566 C310.121981,287.731199 309.740783,287.731199 309.431382,287.552566 L248.010565,252.091241 L248.010565,250.121338" id="Polygon-Copy-4" stroke="url(#linearGradient-4)" stroke-width="2" stroke-linecap="round" stroke-linejoin="round"></path>
                <path d="M310.436599,213.137008 L369.50315,247.716049 L371.852198,249.091241 L310.431382,284.552566 L310.431382,284.552566 C310.121981,284.731199 309.740783,284.731199 309.431382,284.552566 L248.010565,249.091241 L309.426165,213.137008 L309.426165,213.137008 C309.738206,212.954331 310.124557,212.954331 310.436599,213.137008 Z" id="Polygon-Copy-4" stroke="url(#linearGradient-5)" stroke-width="2" stroke-linecap="round" stroke-linejoin="round"></path>
                <path d="M62.4130537,73.129539 L123.841633,107.866808 L123.841633,251.990466 L62.4221202,287.824334 L62.4221202,287.824334 C62.112131,288.00519 61.7289962,288.006061 61.4181881,287.826616 L0.5,252.655484 L0.5,252.655484 C0.190598923,252.476851 -1.20586421e-13,252.146724 -1.30784272e-13,251.789458 L1.77635684e-15,107.866808 L61.428579,73.129539 L61.428579,73.129539 C61.7340106,72.9568203 62.1076221,72.9568203 62.4130537,73.129539 Z" id="Polygon-Copy" stroke="url(#linearGradient-6)" stroke-width="2"></path>
                <path d="M123.841633,108.123657 L62.4221202,143.957525 L62.4221202,143.957525 C62.112131,144.138382 61.7289962,144.139253 61.4181881,143.959807 L0.5,108.788675 L0.5,108.788675 C0.190598923,108.610042 0,108.279915 0,107.92265" id="Polygon-Copy" stroke="url(#linearGradient-7)" stroke-width="2"></path>
            </g>
            <path d="M61.661,420.764 C64.2956798,420.764 65.6303332,419.100017 65.665,415.772 L65.041,415.98 C63.7236601,416.430669 62.6663373,416.656 61.869,416.656 C59.9969906,416.656 58.5670049,416.209671 57.579,415.317 C56.5909951,414.424329 56.097,413.085342 56.097,411.3 C56.097,409.514658 56.6473278,408.110672 57.748,407.088 C58.8486722,406.065328 60.3436572,405.554 62.233,405.554 C64.3996775,405.554 66.0116614,406.325326 67.069,407.868 C68.1263386,409.410674 68.655,411.689985 68.655,414.706 C68.655,417.722015 68.0613393,419.905993 66.874,421.258 C65.6866607,422.610007 63.9490114,423.286 61.661,423.286 C60.3609935,423.286 58.9570075,423.130002 57.449,422.818 L56.695,422.662 L56.955,420.4 C58.6363417,420.642668 60.2049927,420.764 61.661,420.764 Z M62.103,414.108 C63.0910049,414.108 64.1049948,413.917335 65.145,413.536 L65.691,413.354 C65.6563332,409.835316 64.503678,408.076 62.233,408.076 C61.2449951,408.076 60.4736694,408.361997 59.919,408.934 C59.3643306,409.506003 59.087,410.285995 59.087,411.274 C59.087,413.163343 60.0923233,414.108 62.103,414.108 Z M76.221,420.764 C78.8556798,420.764 80.1903332,419.100017 80.225,415.772 L79.601,415.98 C78.2836601,416.430669 77.2263373,416.656 76.429,416.656 C74.5569906,416.656 73.1270049,416.209671 72.139,415.317 C71.1509951,414.424329 70.657,413.085342 70.657,411.3 C70.657,409.514658 71.2073278,408.110672 72.308,407.088 C73.4086722,406.065328 74.9036572,405.554 76.793,405.554 C78.9596775,405.554 80.5716614,406.325326 81.629,407.868 C82.6863386,409.410674 83.215,411.689985 83.215,414.706 C83.215,417.722015 82.6213393,419.905993 81.434,421.258 C80.2466607,422.610007 78.5090114,423.286 76.221,423.286 C74.9209935,423.286 73.5170075,423.130002 72.009,422.818 L71.255,422.662 L71.515,420.4 C73.1963417,420.642668 74.7649927,420.764 76.221,420.764 Z M76.663,414.108 C77.6510049,414.108 78.6649948,413.917335 79.705,413.536 L80.251,413.354 C80.2163332,409.835316 79.063678,408.076 76.793,408.076 C75.8049951,408.076 75.0336694,408.361997 74.479,408.934 C73.9243306,409.506003 73.647,410.285995 73.647,411.274 C73.647,413.163343 74.6523233,414.108 76.663,414.108 Z M85.919,423 L85.919,419.256 L88.961,419.256 L88.961,423 L85.919,423 Z M96.995,420.764 C99.6296798,420.764 100.964333,419.100017 100.999,415.772 L100.375,415.98 C99.0576601,416.430669 98.0003373,416.656 97.203,416.656 C95.3309906,416.656 93.9010049,416.209671 92.913,415.317 C91.9249951,414.424329 91.431,413.085342 91.431,411.3 C91.431,409.514658 91.9813278,408.110672 93.082,407.088 C94.1826722,406.065328 95.6776572,405.554 97.567,405.554 C99.7336775,405.554 101.345661,406.325326 102.403,407.868 C103.460339,409.410674 103.989,411.689985 103.989,414.706 C103.989,417.722015 103.395339,419.905993 102.208,421.258 C101.020661,422.610007 99.2830114,423.286 96.995,423.286 C95.6949935,423.286 94.2910075,423.130002 92.783,422.818 L92.029,422.662 L92.289,420.4 C93.9703417,420.642668 95.5389927,420.764 96.995,420.764 Z M97.437,414.108 C98.4250049,414.108 99.4389948,413.917335 100.479,413.536 L101.025,413.354 C100.990333,409.835316 99.837678,408.076 97.567,408.076 C96.5789951,408.076 95.8076694,408.361997 95.253,408.934 C94.6983306,409.506003 94.421,410.285995 94.421,411.274 C94.421,413.163343 95.4263233,414.108 97.437,414.108 Z M111.555,420.764 C114.18968,420.764 115.524333,419.100017 115.559,415.772 L114.935,415.98 C113.61766,416.430669 112.560337,416.656 111.763,416.656 C109.890991,416.656 108.461005,416.209671 107.473,415.317 C106.484995,414.424329 105.991,413.085342 105.991,411.3 C105.991,409.514658 106.541328,408.110672 107.642,407.088 C108.742672,406.065328 110.237657,405.554 112.127,405.554 C114.293678,405.554 115.905661,406.325326 116.963,407.868 C118.020339,409.410674 118.549,411.689985 118.549,414.706 C118.549,417.722015 117.955339,419.905993 116.768,421.258 C115.580661,422.610007 113.843011,423.286 111.555,423.286 C110.254993,423.286 108.851008,423.130002 107.343,422.818 L106.589,422.662 L106.849,420.4 C108.530342,420.642668 110.098993,420.764 111.555,420.764 Z M111.997,414.108 C112.985005,414.108 113.998995,413.917335 115.039,413.536 L115.585,413.354 C115.550333,409.835316 114.397678,408.076 112.127,408.076 C111.138995,408.076 110.367669,408.361997 109.813,408.934 C109.258331,409.506003 108.981,410.285995 108.981,411.274 C108.981,413.163343 109.986323,414.108 111.997,414.108 Z M121.565,408.44 L121.565,405.84 L132.381,405.84 L132.381,409.272 L126.063,423.286 L123.359,422.506 L129.469,409.22 L129.469,408.44 L121.565,408.44 Z M137.815,423.156 L143.587,405.034 L145.199,405.58 L139.427,423.676 L137.815,423.156 Z M134.747,409.246 C134.747,406.784654 135.74799,405.554 137.75,405.554 C139.75201,405.554 140.753,406.784654 140.753,409.246 C140.753,410.494006 140.493003,411.429997 139.973,412.054 C139.452997,412.678003 138.712005,412.99 137.75,412.99 C136.787995,412.99 136.047003,412.678003 135.527,412.054 C135.006997,411.429997 134.747,410.494006 134.747,409.246 Z M137.061,407.764 C136.939666,408.058668 136.879,408.552663 136.879,409.246 C136.879,409.939337 136.943999,410.441998 137.074,410.754 C137.204001,411.066002 137.433665,411.222 137.763,411.222 C138.092335,411.222 138.321999,411.066002 138.452,410.754 C138.582001,410.441998 138.647,409.939337 138.647,409.246 C138.647,408.552663 138.582001,408.054335 138.452,407.751 C138.321999,407.447665 138.092335,407.296 137.763,407.296 C137.433665,407.296 137.199667,407.451998 137.061,407.764 Z M142.261,419.542 C142.261,417.080654 143.26199,415.85 145.264,415.85 C147.26601,415.85 148.267,417.080654 148.267,419.542 C148.267,420.790006 148.007003,421.725997 147.487,422.35 C146.966997,422.974003 146.226005,423.286 145.264,423.286 C144.301995,423.286 143.561003,422.974003 143.041,422.35 C142.520997,421.725997 142.261,420.790006 142.261,419.542 Z M145.251,417.618 C144.921665,417.618 144.692001,417.769665 144.562,418.073 C144.431999,418.376335 144.367,418.87033 144.367,419.555 C144.367,420.23967 144.431999,420.742332 144.562,421.063 C144.692001,421.383668 144.921665,421.544 145.251,421.544 C145.580335,421.544 145.809999,421.388002 145.94,421.076 C146.070001,420.763998 146.135,420.257004 146.135,419.555 C146.135,418.852996 146.074334,418.354668 145.953,418.06 C145.831666,417.765332 145.597668,417.618 145.251,417.618 Z" id="99.997%" fill="url(#linearGradient-8)"></path>
            <path d="M311.385,407.66 C312.477005,406.255993 314.106323,405.554 316.273,405.554 C318.439678,405.554 320.060328,406.247326 321.135,407.634 C322.209672,409.020674 322.747,411.312984 322.747,414.511 C322.747,417.709016 322.205339,419.970993 321.122,421.297 C320.038661,422.623007 318.418011,423.286 316.26,423.286 C314.101989,423.286 312.481339,422.62734 311.398,421.31 C310.314661,419.99266 309.773,417.735016 309.773,414.537 C309.773,411.338984 310.310328,409.046674 311.385,407.66 Z M318.951,409.506 C318.413664,408.552662 317.521006,408.076 316.273,408.076 C315.024994,408.076 314.128003,408.548329 313.582,409.493 C313.035997,410.437671 312.763,412.097321 312.763,414.472 C312.763,416.846679 313.044664,418.488995 313.608,419.399 C314.171336,420.309005 315.063994,420.764 316.286,420.764 C317.508006,420.764 318.391997,420.309005 318.938,419.399 C319.484003,418.488995 319.757,416.846679 319.757,414.472 C319.757,412.097321 319.488336,410.442005 318.951,409.506 Z M325.139,423 L325.139,419.256 L328.181,419.256 L328.181,423 L325.139,423 Z M332.159,407.66 C333.251005,406.255993 334.880323,405.554 337.047,405.554 C339.213678,405.554 340.834328,406.247326 341.909,407.634 C342.983672,409.020674 343.521,411.312984 343.521,414.511 C343.521,417.709016 342.979339,419.970993 341.896,421.297 C340.812661,422.623007 339.192011,423.286 337.034,423.286 C334.875989,423.286 333.255339,422.62734 332.172,421.31 C331.088661,419.99266 330.547,417.735016 330.547,414.537 C330.547,411.338984 331.084328,409.046674 332.159,407.66 Z M339.725,409.506 C339.187664,408.552662 338.295006,408.076 337.047,408.076 C335.798994,408.076 334.902003,408.548329 334.356,409.493 C333.809997,410.437671 333.537,412.097321 333.537,414.472 C333.537,416.846679 333.818664,418.488995 334.382,419.399 C334.945336,420.309005 335.837994,420.764 337.06,420.764 C338.282006,420.764 339.165997,420.309005 339.712,419.399 C340.258003,418.488995 340.531,416.846679 340.531,414.472 C340.531,412.097321 340.262336,410.442005 339.725,409.506 Z M346.719,407.66 C347.811005,406.255993 349.440323,405.554 351.607,405.554 C353.773678,405.554 355.394328,406.247326 356.469,407.634 C357.543672,409.020674 358.081,411.312984 358.081,414.511 C358.081,417.709016 357.539339,419.970993 356.456,421.297 C355.372661,422.623007 353.752011,423.286 351.594,423.286 C349.435989,423.286 347.815339,422.62734 346.732,421.31 C345.648661,419.99266 345.107,417.735016 345.107,414.537 C345.107,411.338984 345.644328,409.046674 346.719,407.66 Z M354.285,409.506 C353.747664,408.552662 352.855006,408.076 351.607,408.076 C350.358994,408.076 349.462003,408.548329 348.916,409.493 C348.369997,410.437671 348.097,412.097321 348.097,414.472 C348.097,416.846679 348.378664,418.488995 348.942,419.399 C349.505336,420.309005 350.397994,420.764 351.62,420.764 C352.842006,420.764 353.725997,420.309005 354.272,419.399 C354.818003,418.488995 355.091,416.846679 355.091,414.472 C355.091,412.097321 354.822336,410.442005 354.285,409.506 Z M360.603,406.386 C362.215008,405.831331 363.98299,405.554 365.907,405.554 C367.83101,405.554 369.230662,405.92233 370.106,406.659 C370.981338,407.39567 371.419,408.561325 371.419,410.156 C371.419,410.849337 371.284668,411.473331 371.016,412.028 C370.747332,412.582669 370.474335,412.985665 370.197,413.237 C369.919665,413.488335 369.573002,413.752665 369.157,414.03 C370.075671,414.463335 370.738665,414.935664 371.146,415.447 C371.553335,415.958336 371.757,416.785994 371.757,417.93 C371.757,419.750009 371.302005,421.097662 370.392,421.973 C369.481995,422.848338 368.030343,423.286 366.037,423.286 C365.256996,423.286 364.399005,423.221001 363.463,423.091 C362.526995,422.960999 361.781669,422.826667 361.227,422.688 L360.421,422.48 L360.603,420.244 C362.509676,420.590668 364.190993,420.764 365.647,420.764 C367.72701,420.746667 368.767,419.828009 368.767,418.008 C368.767,417.175996 368.498336,416.543336 367.961,416.11 C367.423664,415.676665 366.713004,415.451333 365.829,415.434 L362.371,415.434 L362.371,413.016 L365.829,413.016 C366.470337,413.016 367.063997,412.751669 367.61,412.223 C368.156003,411.694331 368.429,411.053004 368.429,410.299 C368.429,409.544996 368.190669,408.986002 367.714,408.622 C367.237331,408.257998 366.583004,408.076 365.751,408.076 C364.38166,408.076 362.969007,408.197332 361.513,408.44 L360.837,408.57 L360.603,406.386 Z M377.035,423.156 L382.807,405.034 L384.419,405.58 L378.647,423.676 L377.035,423.156 Z M373.967,409.246 C373.967,406.784654 374.96799,405.554 376.97,405.554 C378.97201,405.554 379.973,406.784654 379.973,409.246 C379.973,410.494006 379.713003,411.429997 379.193,412.054 C378.672997,412.678003 377.932005,412.99 376.97,412.99 C376.007995,412.99 375.267003,412.678003 374.747,412.054 C374.226997,411.429997 373.967,410.494006 373.967,409.246 Z M376.281,407.764 C376.159666,408.058668 376.099,408.552663 376.099,409.246 C376.099,409.939337 376.163999,410.441998 376.294,410.754 C376.424001,411.066002 376.653665,411.222 376.983,411.222 C377.312335,411.222 377.541999,411.066002 377.672,410.754 C377.802001,410.441998 377.867,409.939337 377.867,409.246 C377.867,408.552663 377.802001,408.054335 377.672,407.751 C377.541999,407.447665 377.312335,407.296 376.983,407.296 C376.653665,407.296 376.419667,407.451998 376.281,407.764 Z M381.481,419.542 C381.481,417.080654 382.48199,415.85 384.484,415.85 C386.48601,415.85 387.487,417.080654 387.487,419.542 C387.487,420.790006 387.227003,421.725997 386.707,422.35 C386.186997,422.974003 385.446005,423.286 384.484,423.286 C383.521995,423.286 382.781003,422.974003 382.261,422.35 C381.740997,421.725997 381.481,420.790006 381.481,419.542 Z M384.471,417.618 C384.141665,417.618 383.912001,417.769665 383.782,418.073 C383.651999,418.376335 383.587,418.87033 383.587,419.555 C383.587,420.23967 383.651999,420.742332 383.782,421.063 C383.912001,421.383668 384.141665,421.544 384.471,421.544 C384.800335,421.544 385.029999,421.388002 385.16,421.076 C385.290001,420.763998 385.355,420.257004 385.355,419.555 C385.355,418.852996 385.294334,418.354668 385.173,418.06 C385.051666,417.765332 384.817668,417.618 384.471,417.618 Z" id="99.997%" fill="url(#linearGradient-9)"></path>
            <g id="Traditional-currenci" opacity="0.798063859">
                <use fill="black" fill-opacity="1" filter="url(#filter-11)" xlink:href="#path-10"></use>
                <use fill="#E2EFFF" fill-rule="evenodd" xlink:href="#path-10"></use>
            </g>
            <g id="Digital-currencies" opacity="0.798063859">
                <use fill="black" fill-opacity="1" filter="url(#filter-13)" xlink:href="#path-12"></use>
                <use fill="#E2EFFF" fill-rule="evenodd" xlink:href="#path-12"></use>
            </g>
            <g id="OF-CONSUMER-INITIATE" opacity="0.798063859">
                <use fill="black" fill-opacity="1" filter="url(#filter-15)" xlink:href="#path-14"></use>
                <use fill="#E2EFFF" fill-rule="evenodd" xlink:href="#path-14"></use>
            </g>
            <path d="M115.838,30.396 C115.838,33.7933503 114.866176,36.3331583 112.9225,38.0155 C110.978824,39.6978417 108.341017,40.539 105.009,40.539 L104.617,40.539 L103.931,46.223 C101.840323,46.1249995 100.795,46.0106673 100.795,45.88 L101.481,40.343 C99.3903229,40.146999 97.3650098,39.853002 95.405,39.461 L94.425,39.265 L94.964,35.051 C97.5446796,35.4103351 99.9129892,35.6553327 102.069,35.786 L103.392,25.643 C99.9946497,24.7283288 97.5936737,23.60134 96.189,22.262 C94.7843263,20.92266 94.082,18.815681 94.082,15.941 C94.082,13.066319 95.0374904,10.8776742 96.9485,9.375 C98.8595096,7.87232582 101.497317,7.121 104.862,7.121 L105.744,7.121 L106.577,0.555 L109.713,0.555 L108.831,7.366 L115.103,8.248 L114.662,12.462 C112.342655,12.2006654 110.219343,12.0046673 108.292,11.874 L107.067,21.331 C110.36635,22.2783381 112.652994,23.3726605 113.927,24.614 C115.201006,25.8553395 115.838,27.7826536 115.838,30.396 Z M99.325,15.941 C99.325,17.1496727 99.65983,18.0643302 100.3295,18.685 C100.99917,19.3056698 102.232324,19.9099971 104.029,20.498 L105.156,11.727 C101.268647,11.7923337 99.325,13.1969863 99.325,15.941 Z M110.546,30.69 C110.546,29.5793278 110.243836,28.7136698 109.6395,28.093 C109.035164,27.4723302 107.965341,26.9333356 106.43,26.476 L105.205,35.884 C108.765684,35.7533327 110.546,34.0220167 110.546,30.69 Z M135.144,40 L135.144,34.218 L120.591,34.218 L120.591,30.053 L129.117,7.66 L135.144,7.66 L126.128,29.465 L135.144,29.465 L135.144,19.959 L140.632,19.959 L140.632,29.465 L144.16,29.465 L144.16,34.218 L140.632,34.218 L140.632,40 L135.144,40 Z M158.223,35.786 C163.188358,35.786 165.703666,32.6500314 165.769,26.378 L164.593,26.77 C162.110321,27.6193376 160.117674,28.044 158.615,28.044 C155.086982,28.044 152.392009,27.2028417 150.53,25.5205 C148.667991,23.8381583 147.737,21.3146835 147.737,17.95 C147.737,14.5853165 148.774156,11.939343 150.8485,10.012 C152.922844,8.08465703 155.740316,7.121 159.301,7.121 C163.384354,7.121 166.422323,8.57465213 168.415,11.482 C170.407677,14.3893479 171.404,18.6849716 171.404,24.369 C171.404,30.0530284 170.285178,34.1689873 168.0475,36.717 C165.809822,39.2650127 162.535022,40.539 158.223,40.539 C155.772988,40.539 153.127014,40.2450029 150.285,39.657 L148.864,39.363 L149.354,35.1 C152.522683,35.5573356 155.478986,35.786 158.223,35.786 Z M159.056,23.242 C160.918009,23.242 162.82899,22.8826703 164.789,22.164 L165.818,21.821 C165.752666,15.1896335 163.580355,11.874 159.301,11.874 C157.438991,11.874 155.985339,12.4129946 154.94,13.491 C153.894661,14.5690054 153.372,16.0389907 153.372,17.901 C153.372,21.4616845 155.266648,23.242 159.056,23.242 Z M176.5,40 L176.5,32.944 L182.233,32.944 L182.233,40 L176.5,40 Z M190.318,9.375 C192.408677,7.87232582 195.250649,7.121 198.844,7.121 C202.437351,7.121 205.303823,7.86415924 207.4435,9.3505 C209.583177,10.8368408 210.653,12.9683195 210.653,15.745 C210.653,17.7050098 210.350836,19.1831617 209.7465,20.1795 C209.142164,21.1758383 208.007008,22.1966614 206.341,23.242 C208.007008,24.3200054 209.223829,25.4224944 209.9915,26.5495 C210.759171,27.6765056 211.143,29.2363234 211.143,31.229 C211.143,34.495683 210.016011,36.8639927 207.762,38.334 C205.507989,39.8040074 202.535352,40.539 198.844,40.539 C190.742626,40.539 186.692,37.6153626 186.692,31.768 C186.692,29.5793224 187.067663,27.8970059 187.819,26.721 C188.570337,25.5449941 189.762659,24.3853391 191.396,23.242 C189.860659,22.2293283 188.78267,21.1758388 188.162,20.0815 C187.54133,18.9871612 187.231,17.5253425 187.231,15.696 C187.231,12.9519863 188.25999,10.8450074 190.318,9.375 Z M192.523,30.592 C192.523,33.9566835 194.654479,35.639 198.9175,35.639 C203.180521,35.639 205.312,33.9240172 205.312,30.494 C205.312,28.2399887 203.940014,26.6883376 201.196,25.839 L196.492,25.839 C193.845987,26.6883376 192.523,28.2726551 192.523,30.592 Z M204.822,16.529 C204.822,13.5236516 202.86202,12.021 198.942,12.021 C195.02198,12.021 193.062,13.5236516 193.062,16.529 C193.062,18.4890098 194.205322,20.040661 196.492,21.184 L201.196,21.184 C203.613345,20.040661 204.822,18.4890098 204.822,16.529 Z M239.857,20.057 L233.095,20.057 L233.095,30.837 C233.095,32.8296766 233.241999,34.1526634 233.536,34.806 C233.830001,35.4593366 234.581327,35.786 235.79,35.786 L239.808,35.639 L240.053,39.902 C237.864322,40.3266688 236.198339,40.539 235.055,40.539 C232.278319,40.539 230.375505,39.9020064 229.3465,38.628 C228.317495,37.3539936 227.803,34.9530176 227.803,31.425 L227.803,20.057 L224.667,20.057 L224.667,15.5 L227.803,15.5 L227.803,8.395 L233.095,8.395 L233.095,15.5 L239.857,15.5 L239.857,20.057 Z M244.218,40 L244.218,15.5 L249.51,15.5 L249.51,18.44 C252.286681,16.6433244 255.063319,15.4836693 257.84,14.961 L257.84,20.302 C255.030653,20.8573361 252.629677,21.5759956 250.637,22.458 L249.559,22.899 L249.559,40 L244.218,40 Z M261.907,40 L261.907,15.5 L267.248,15.5 L267.248,40 L261.907,40 Z M261.907,11.335 L261.907,5.7 L267.248,5.7 L267.248,11.335 L261.907,11.335 Z M274.01,40 L274.01,5.308 L279.351,5.308 L279.351,40 L274.01,40 Z M286.407,40 L286.407,5.308 L291.748,5.308 L291.748,40 L286.407,40 Z M298.51,40 L298.51,15.5 L303.851,15.5 L303.851,40 L298.51,40 Z M298.51,11.335 L298.51,5.7 L303.851,5.7 L303.851,11.335 L298.51,11.335 Z M311.642,18.146 C313.340675,16.0226561 316.14998,14.961 320.07,14.961 C323.99002,14.961 326.791158,16.0226561 328.4735,18.146 C330.155842,20.269344 330.997,23.4543121 330.997,27.701 C330.997,31.9476879 330.180341,35.1489892 328.547,37.305 C326.913659,39.4610108 324.08802,40.539 320.07,40.539 C316.05198,40.539 313.226342,39.4610108 311.593,37.305 C309.959658,35.1489892 309.143,31.9476879 309.143,27.701 C309.143,23.4543121 309.975992,20.269344 311.642,18.146 Z M315.66,34.071 C316.411337,35.3776732 317.881322,36.031 320.07,36.031 C322.258678,36.031 323.728663,35.3776732 324.48,34.071 C325.231337,32.7643268 325.607,30.6246815 325.607,27.652 C325.607,24.6793185 325.206837,22.5723395 324.4065,21.331 C323.606163,20.0896605 322.160677,19.469 320.07,19.469 C317.979323,19.469 316.533837,20.0896605 315.7335,21.331 C314.933163,22.5723395 314.533,24.6793185 314.533,27.652 C314.533,30.6246815 314.908663,32.7643268 315.66,34.071 Z M341.63,40 L336.289,40 L336.289,15.5 L341.581,15.5 L341.581,17.019 C343.965679,15.6469931 346.219656,14.961 348.343,14.961 C351.609683,14.961 353.839161,15.8838241 355.0315,17.7295 C356.223839,19.5751759 356.82,22.6213121 356.82,26.868 L356.82,40 L351.528,40 L351.528,27.015 C351.528,24.3689868 351.24217,22.4906722 350.6705,21.38 C350.09883,20.2693278 348.931009,19.714 347.167,19.714 C345.500992,19.714 343.900341,20.0406634 342.365,20.694 L341.63,20.988 L341.63,40 Z" id="$49.8-trillion" fill="url(#linearGradient-16)"></path>
        </g>
    </g>
</svg>