<svg xmlns="http://www.w3.org/2000/svg" width="146" height="33" viewBox="0 0 146 33">
    <path fill="#353F57" fill-rule="evenodd" d="M0 32.581V.322h12.056V7.22H7.879v4.737h4.082v6.735H7.879v6.961h4.272v6.897H0v.032zm11.043-5.8H6.772v-9.185h4.081v-4.512H6.772V6.123h4.176V1.45h-9.84v30.003h9.967V26.78h-.032zM20.631 33c-6.107 0-8.164-1.063-8.164-5.833V.387h7.816v24.846c0 .967 0 1.096.253 1.096s.253-.129.253-1.096V.387h7.816v26.619c0 4.802-1.993 5.994-7.974 5.994zm6.93-31.453h-5.696v23.686c0 1.837-.158 2.256-1.266 2.256-1.139 0-1.329-.483-1.329-2.256V1.547h-5.695v24.975c0 4.254 1.234 5.415 7.151 5.415 5.443 0 6.835-1.354 6.835-5.382V1.547zm9.872 31.034V21.27c0-.645-.094-.774-.474-.774v12.085h-7.88V.322h10.158c4.398 0 6.012 1.45 6.012 5.608v6.38c0 2.74-.38 4.254-2.373 4.577 1.994.548 2.373 1.837 2.373 4.866v10.764h-7.816v.064zm6.74-10.796c0-3.48-.854-4.254-3.354-4.866 2.468-.645 3.354-1.515 3.354-4.737V5.994c0-3.287-1.329-4.544-4.746-4.544h-9.24v30.003h5.696v-12.02h.791c1.456 0 1.804.483 1.804 2.288v9.764h5.695v-9.7zm-7.246-7.09h-1.044V5.801h1.076c1.139 0 1.519.451 1.519 1.74v5.317c0 1.45-.412 1.837-1.55 1.837zm.506-7.057c0-.58-.031-.774-.474-.774v6.768c.474 0 .474-.161.474-.87V7.638zM60.66 31.034c-1.234 1.45-2.784 1.934-6.961 1.934-3.892 0-5.79-.387-7.056-1.934-.665-.805-.981-1.676-.981-3.61V6.317c0-1.965.316-3.287 1.234-4.286C48.034.741 49.489 0 53.76 0c4.05 0 5.728.677 6.93 1.934.76.805 1.076 1.74 1.076 3.77V26.62c-.032 1.934-.222 3.384-1.108 4.415zm.032-25.04c0-3.674-1.33-4.963-7.025-4.963s-6.961 1.483-6.961 5.608v20.335c0 3.609 1.234 4.963 6.93 4.963 5.727 0 7.056-1.547 7.056-5.608V5.994zM53.73 27.103c-1.045 0-1.33-.484-1.33-1.999V7.638c0-1.386.285-1.87 1.361-1.87.95 0 1.234.484 1.234 1.934v17.402c0 1.58-.285 1.999-1.265 1.999zM53.95 7.38c0-.387.063-.677-.253-.677-.285 0-.253.258-.253.677v18.079c0 .483 0 .709.253.709s.253-.258.253-.709V7.379zM78.126 32.58V25.17c0-2.707.063-4.447.063-4.447s-.19 1.74-.538 4.35l-1.044 7.477h-5.41l-1.076-7.573c-.317-2.482-.538-4.254-.538-4.254s.063 1.772.063 4.447v7.38H62.24V.322h10.664l.981 7.445L74.899.322h10.568V32.55h-7.34v.032zm6.265-31.13h-8.448l-1.994 12.503L71.861 1.45h-8.544v30.003h5.221V9.185l3.703 22.268h3.385L79.17 9.185v22.268h5.221V1.45zm16.613 29.583c-1.234 1.45-2.785 1.934-6.962 1.934-3.892 0-5.79-.387-7.056-1.934-.664-.805-1.012-1.676-1.012-3.61V6.317c0-1.965.316-3.287 1.234-4.286C88.347.741 89.802 0 94.074 0c4.019 0 5.727.677 6.93 1.934.76.805 1.107 1.74 1.107 3.77V26.62c-.031 1.934-.221 3.384-1.107 4.415zm.032-25.04c0-3.674-1.33-4.963-7.025-4.963-5.696 0-6.962 1.483-6.962 5.608v20.335c0 3.609 1.234 4.963 6.93 4.963 5.728 0 7.057-1.547 7.057-5.608V5.994zm-6.962 21.109c-1.044 0-1.329-.484-1.329-1.999V7.638c0-1.386.285-1.87 1.36-1.87.95 0 1.235.484 1.235 1.934v17.402c0 1.58-.285 1.999-1.266 1.999zm.222-19.723c0-.387.063-.677-.222-.677-.285 0-.253.258-.253.677v18.079c0 .483 0 .709.253.709.222 0 .222-.258.222-.709V7.379zM111.92 32.58l-1.33-6.22c-.474-2.417-.695-4.157-.695-4.157s.094 1.676.094 4.254v6.123h-7.404V.322h8.48l1.266 5.06c.475 1.933.665 3.32.665 3.32s-.032-1.483-.032-3.481V.322h7.341V32.55h-8.385v.032zm7.31-31.13h-5.222v15.21l-3.987-15.21h-6.36v30.002h5.221V13.148l4.082 18.305h6.265V1.45zm9.429 5.832v4.834h2.5v6.703h-2.5v6.8h4.272v6.897H120.78V.322h15.283l1.266 7.251 1.266-7.25H146l-4.778 20.012v12.214h-7.88V20.206l-3.132-12.89h-1.55v-.033zm5.79 24.138h5.696V20.013l4.367-18.498h-4.842l-2.373 11.343-2.31-11.408h-13.1v30.003h9.968V26.78h-4.272v-9.055h2.531v-4.48h-2.531V6.123h3.512l3.354 13.729V31.42z"/>
</svg>
