<svg xmlns="http://www.w3.org/2000/svg" width="112" height="30" viewBox="0 0 112 30">
    <path fill="#C4C4C4" fill-rule="nonzero" d="M31.788 29.323c1.421-.332 2.554-.84 3.567-1.597 2.464-1.842 3.814-4.667 3.938-8.24.123-3.524-.938-6.527-2.99-8.464-1.666-1.572-3.765-2.325-6.478-2.325-2.876 0-5.193.893-6.975 2.688-1.909 1.924-2.919 4.607-2.919 7.757 0 3.267.913 5.905 2.682 7.753.975 1.018 1.925 1.63 3.287 2.114.481.172.835.254 2.122.494.11.02.85.024 1.643.008 1.073-.021 1.616-.07 2.123-.188zm-3.04-1.14c-1.316-.597-2.249-2.414-2.717-5.289-.296-1.822-.324-5.875-.054-7.86.38-2.79 1.18-4.437 2.429-4.993.855-.382 2.04-.156 2.802.533 1.693 1.532 2.547 5.885 2.178 11.102-.264 3.743-1.075 5.773-2.589 6.479-.548.256-1.519.27-2.049.028zm37.767 1.247c2.433-.365 4.218-1.202 5.73-2.686 2.185-2.145 3.237-5.172 3.095-8.903-.073-1.921-.386-3.176-1.181-4.733C73.08 11 71.239 9.52 69.147 9.084c-1.57-.326-3.588-.07-5.123.65-.383.18-.749.326-.814.326-.103 0-.114-.594-.088-4.678l.03-4.679-.321.065c-.177.035-1.98.371-4.007.747-2.027.376-3.764.702-3.86.724-.147.035-.173.09-.157.342.017.28.04.305.336.37 1.015.224 1.196.304 1.574.694.462.479.671 1.09.808 2.365.11 1.016.134 18.52.03 21.103l-.062 1.532.826.177c3.128.67 6.246.901 8.196.608zm-2.858-1.22c-.162-.017-.335-.08-.385-.14-.137-.166-.286-11.054-.194-14.24l.072-2.526.641-.185c.946-.273 1.964-.231 2.685.111 1.45.688 2.401 2.387 2.896 5.167.16.906.137 4.051-.04 5.17-.368 2.337-1.038 4.141-1.97 5.306-.453.565-1.204 1.1-1.791 1.274-.379.113-1.191.14-1.914.063zm21.363 1.372c-3.974-.718-6.817-3.54-7.745-7.69-.12-.534-.172-1.131-.202-2.287-.048-1.828.1-2.962.572-4.372.905-2.707 2.526-4.626 4.881-5.776 2.486-1.213 5.885-1.293 8.085-.189 2.477 1.243 3.935 3.725 4.305 7.33.05.485.078 1.062.064 1.283l-.026.401-5.928.02-5.929.021.023.701c.052 1.625.401 3.062 1.046 4.311.294.568.527.878 1.094 1.451 1.281 1.295 2.556 1.797 4.567 1.797 1.457 0 2.506-.292 3.602-1.001.307-.2.618-.362.691-.362.168 0 .553.497.553.713 0 .353-1.15 1.493-2.27 2.251-.918.621-2.375 1.184-3.637 1.405-.884.155-2.87.151-3.746-.007zm2.515-13.074l1.394-.049-.05-.991c-.177-3.496-1.031-5.406-2.417-5.405-1.506.002-2.71 1.94-3.21 5.171a9.773 9.773 0 0 0-.113 1.046l-.002.325 1.502-.024c.827-.014 2.13-.047 2.896-.073zm17.312 12.927c3.403-.517 5.601-2.345 6.177-5.137.279-1.348.149-2.848-.333-3.85-.675-1.404-1.816-2.251-4.642-3.448-2.1-.888-3.358-1.642-3.873-2.318-.426-.559-.564-.989-.559-1.734.009-1.124.435-1.985 1.247-2.522.68-.45 1.533-.56 2.525-.325 1.2.283 2.101 1.02 2.916 2.383.26.434.792 1.651 1.051 2.402.04.117.087.122.367.039.176-.052.345-.12.375-.15.03-.03.028-1.18-.004-2.553l-.06-2.499-.29-.123c-.49-.208-1.771-.557-2.614-.712-.635-.117-1.193-.147-2.684-.145-1.78.002-1.925.013-2.66.213-2.135.58-3.718 1.786-4.545 3.464-.44.892-.592 1.579-.587 2.654.007 1.526.423 2.652 1.341 3.636.79.847 1.817 1.45 3.567 2.098 1.377.509 2.799 1.22 3.337 1.669.317.264.566.564.751.907.264.488.278.552.278 1.315 0 .735-.021.847-.254 1.34-.609 1.286-1.827 1.925-3.422 1.794-2.167-.177-3.693-1.612-4.935-4.642-.324-.79-.346-.806-.839-.619l-.226.086.057 2.825c.05 2.508.072 2.837.19 2.929.357.273 2.663.821 4.262 1.012 1.242.149 3.147.154 4.086.011zm-90.443-.886c0-.243-.022-.441-.048-.441-.382 0-2.16-.384-2.446-.528-1.018-.513-1.488-1.732-1.67-4.33-.13-1.845-.26-7.269-.175-7.353.076-.076 3.463.06 3.858.154 1.095.262 1.938 1.34 2.36 3.016l.187.739.489.024.489.024v-9.312h-.52c-.487 0-.521.011-.521.18 0 .304-.304 1.266-.592 1.872-.45.95-1.085 1.524-1.892 1.71-.198.046-1.134.12-2.08.163-1.333.062-1.733.058-1.784-.018-.093-.14.12-10.7.225-11.191l.04-.185 2.941.025 2.941.024.685.246c1.585.568 2.726 1.729 3.68 3.744.213.453.488 1.112.61 1.465.12.353.228.653.238.666.01.014.273-.052.584-.147l.567-.173-.04-2.62c-.022-1.44-.06-3.17-.086-3.843l-.046-1.223H.057l.024.501.024.501.72.09c.962.12 1.315.226 1.702.507.587.426.948 1.051 1.176 2.036.353 1.531.48 4.983.421 11.445-.062 6.828-.148 8.248-.583 9.625-.357 1.133-1.023 1.734-2.122 1.916-.302.05-.73.13-.952.177l-.402.086v.87h14.34v-.442h-.001zm36.93.007v-.434l-.62-.053c-1.433-.12-1.825-.265-2.201-.807-.545-.786-.664-2.236-.664-8.111v-4.586l.2-.211c.25-.268 1.033-.64 1.587-.756 1.125-.235 2.562-.032 3.687.52.323.159.6.275.617.258.033-.033 1.88-4.92 1.937-5.126.026-.093-.08-.175-.39-.3-.666-.266-1.242-.357-1.986-.314-1.99.116-3.756 1.439-5.027 3.768-.211.387-.43.703-.486.704-.082 0-.091-.444-.047-2.21l.054-2.21-.193.045c-.106.025-1.707.35-3.557.722-3.97.797-4.52.913-4.615.972-.04.024-.072.167-.072.318 0 .303-.035.286.867.431 1.24.2 1.677.805 1.862 2.574.241 2.307.145 11.3-.134 12.528-.143.628-.511 1.232-.882 1.447-.138.08-.57.208-.961.284l-.712.14-.024.42-.024.421h11.784v-.434z"/>
</svg>
