<svg xmlns="http://www.w3.org/2000/svg" xmlns:xlink="http://www.w3.org/1999/xlink" width="515" height="277" viewBox="0 0 515 277">
    <defs>
        <linearGradient id="a" x1="0%" x2="0%" y1="96.655%" y2="12.377%">
            <stop offset="0%" stop-color="#29B1D7"/>
            <stop offset="100%" stop-color="#1E62B2"/>
        </linearGradient>
        <linearGradient id="b" x1="10.599%" y1="0%" y2="50%">
            <stop offset="0%" stop-color="#98ECF8"/>
            <stop offset="100%" stop-color="#5FD4EF"/>
        </linearGradient>
        <linearGradient id="c" x1="23.566%" y1="50%" y2="50%">
            <stop offset="0%" stop-color="#1E8ACD"/>
            <stop offset="100%" stop-color="#1E62B2"/>
        </linearGradient>
        <linearGradient id="d" x1="23.566%" y1="50%" y2="50%">
            <stop offset="0%" stop-color="#2CA9DF"/>
            <stop offset="100%" stop-color="#1E8ACD"/>
        </linearGradient>
        <linearGradient id="e" x1="50%" x2="50%" y1="25.843%" y2="100%">
            <stop offset="0%" stop-color="#2CBFDF"/>
            <stop offset="100%" stop-color="#2C9CDF"/>
        </linearGradient>
        <linearGradient id="f" x1="50%" x2="50%" y1="80.98%" y2="4.86%">
            <stop offset="0%" stop-color="#2CAFDF"/>
            <stop offset="100%" stop-color="#48F0D5"/>
        </linearGradient>
        <linearGradient id="g" x1="50%" x2="50%" y1="167.222%" y2="100%">
            <stop offset="0%" stop-color="#5BD5F1"/>
            <stop offset="100%" stop-color="#48F0D5"/>
        </linearGradient>
        <linearGradient id="j" x1="79.85%" x2="16.257%" y1="0%" y2="50%">
            <stop offset="0%" stop-color="#F9FFCD"/>
            <stop offset="100%" stop-color="#AAE9FF"/>
        </linearGradient>
        <path id="i" d="M99.91.84V18h-2.886V4.116l-4.03 2.6-1.326-2.158L97.258.84h2.652zm6.422 1.82c1.092-1.404 2.721-2.106 4.888-2.106s3.787.693 4.862 2.08c1.075 1.387 1.612 3.679 1.612 6.877s-.542 5.46-1.625 6.786c-1.083 1.326-2.704 1.989-4.862 1.989s-3.779-.659-4.862-1.976c-1.083-1.317-1.625-3.575-1.625-6.773 0-3.198.537-5.49 1.612-6.877zm7.566 1.846c-.537-.953-1.43-1.43-2.678-1.43s-2.145.472-2.691 1.417c-.546.945-.819 2.604-.819 4.979s.282 4.017.845 4.927c.563.91 1.456 1.365 2.678 1.365s2.106-.455 2.652-1.365c.546-.91.819-2.552.819-4.927 0-2.375-.269-4.03-.806-4.966zm6.994-1.846c1.092-1.404 2.721-2.106 4.888-2.106s3.787.693 4.862 2.08c1.075 1.387 1.612 3.679 1.612 6.877s-.542 5.46-1.625 6.786c-1.083 1.326-2.704 1.989-4.862 1.989s-3.779-.659-4.862-1.976c-1.083-1.317-1.625-3.575-1.625-6.773 0-3.198.537-5.49 1.612-6.877zm7.566 1.846c-.537-.953-1.43-1.43-2.678-1.43s-2.145.472-2.691 1.417c-.546.945-.819 2.604-.819 4.979s.282 4.017.845 4.927c.563.91 1.456 1.365 2.678 1.365s2.106-.455 2.652-1.365c.546-.91.819-2.552.819-4.927 0-2.375-.269-4.03-.806-4.966zm8.19 13.65L142.42.034l1.612.546-5.772 18.096-1.612-.52zm-3.068-13.91c0-2.461 1.001-3.692 3.003-3.692 2.002 0 3.003 1.23 3.003 3.692 0 1.248-.26 2.184-.78 2.808-.52.624-1.261.936-2.223.936s-1.703-.312-2.223-.936c-.52-.624-.78-1.56-.78-2.808zm2.314-1.482c-.121.295-.182.789-.182 1.482s.065 1.196.195 1.508c.13.312.36.468.689.468.33 0 .559-.156.689-.468.13-.312.195-.815.195-1.508 0-.693-.065-1.192-.195-1.495-.13-.303-.36-.455-.689-.455-.33 0-.563.156-.702.468zm5.2 11.778c0-2.461 1.001-3.692 3.003-3.692 2.002 0 3.003 1.23 3.003 3.692 0 1.248-.26 2.184-.78 2.808-.52.624-1.261.936-2.223.936s-1.703-.312-2.223-.936c-.52-.624-.78-1.56-.78-2.808zm2.99-1.924c-.33 0-.559.152-.689.455-.13.303-.195.797-.195 1.482 0 .685.065 1.187.195 1.508.13.32.36.481.689.481.33 0 .559-.156.689-.468.13-.312.195-.819.195-1.521s-.06-1.2-.182-1.495c-.121-.295-.355-.442-.702-.442z"/>
        <filter id="h" width="110.8%" height="132.2%" x="-5.4%" y="-16.1%" filterUnits="objectBoundingBox">
            <feOffset in="SourceAlpha" result="shadowOffsetOuter1"/>
            <feGaussianBlur in="shadowOffsetOuter1" result="shadowBlurOuter1" stdDeviation="1"/>
            <feColorMatrix in="shadowBlurOuter1" values="0 0 0 0 0.0296806755 0 0 0 0 0.203937627 0 0 0 0 0.434311224 0 0 0 0.650928442 0"/>
        </filter>
        <linearGradient id="k" x1="0%" x2="102.681%" y1="0%" y2="106.386%">
            <stop offset="0%" stop-color="#57D8F1"/>
            <stop offset="100%" stop-color="#194AAD"/>
        </linearGradient>
    </defs>
    <g fill="none" fill-rule="evenodd">
        <path fill="#56D7F0" fill-rule="nonzero" d="M180.537 11H158.5a1 1 0 1 0 0 2h22.037a1 1 0 1 0 0-2z"/>
        <path fill="url(#a)" fill-rule="nonzero" d="M291.5 475.5v-416h-1v416z" transform="rotate(90 290 268.5)"/>
        <path fill="#1E62B2" fill-rule="nonzero" d="M500.5 265.048v6.904l6.428 3.48 6.428-3.48v-6.904l-6.428-3.48-6.428 3.48zm6.666-4.488l6.928 3.75a.5.5 0 0 1 .262.44v7.5a.5.5 0 0 1-.262.44l-6.928 3.75a.5.5 0 0 1-.476 0l-6.928-3.75a.5.5 0 0 1-.262-.44v-7.5a.5.5 0 0 1 .262-.44l6.928-3.75a.5.5 0 0 1 .476 0z"/>
        <g fill-rule="nonzero">
            <path fill="url(#b)" d="M98.912 146.5h14.176v-1H98.912z" transform="translate(72 33)"/>
            <path fill="url(#c)" d="M327.5 146.5h14v-1h-14z" transform="translate(72 33)"/>
            <path fill="url(#d)" d="M212.5 146.5h14.588v-1H212.5z" transform="translate(72 33)"/>
            <path fill="#1E62B2" d="M513.749 178.382l-.249.432v-.287l.249-.145zM513.5 169a.5.5 0 0 1 1 0v9.814a.5.5 0 0 1-.249.433l-50.092 29.076c-.408.236-.91.236-1.318 0l-50.092-29.076a.5.5 0 0 1-.249-.433V169a.5.5 0 0 1 1 0v9.527l49.843 28.93a.312.312 0 0 0 .314 0l49.843-28.93V169z"/>
            <path fill="#1E62B2" d="M463.751 139.596a.5.5 0 0 0-.502 0L414 168.198l49.25 28.209a.5.5 0 0 0 .498 0l49.25-28.21-49.248-28.601zm.502-.865l49.998 29.037a.5.5 0 0 1-.002.867l-50.003 28.64a1.5 1.5 0 0 1-1.492 0l-50.003-28.64a.5.5 0 0 1-.002-.867l49.998-29.037a1.5 1.5 0 0 1 1.506 0z"/>
            <path fill="#1E8ACD" d="M399.75 178.655l-.25.434v-.29l.25-.144zM399.5 144a.5.5 0 0 1 1 0v35.089a.5.5 0 0 1-.25.433l-50.093 28.803a1.318 1.318 0 0 1-1.314 0l-50.092-28.803a.5.5 0 0 1-.251-.433V144a.5.5 0 0 1 1 0v34.8l49.841 28.658c.098.056.22.056.318 0L399.5 178.8V144z"/>
            <path fill="url(#e)" d="M163.061 174.459a.307.307 0 0 1-.308 0l-50.253-28.61V71.5a.5.5 0 0 0-1 0v74.639a.5.5 0 0 0 .253.434l50.502 28.753c.403.233.902.233 1.307-.002l49.688-28.752a.5.5 0 0 0 .25-.433V71.5a.5.5 0 0 0-1 0v74.35l-49.439 28.609z" transform="translate(72 33)"/>
            <path fill="#1E8CCF" d="M349.751 114.596a.5.5 0 0 0-.502 0L300 143.198l49.25 28.209a.5.5 0 0 0 .498 0l49.25-28.21-49.248-28.601zm50.5 28.172a.5.5 0 0 1-.002.867l-50.003 28.64a1.5 1.5 0 0 1-1.492 0l-50.003-28.64a.5.5 0 0 1-.002-.867l49.998-29.037a1.5 1.5 0 0 1 1.506 0l49.998 29.037z"/>
            <path fill="#2CBEDF" d="M234.751 75.568a.5.5 0 0 0-.502 0L185 104.17l49.25 28.209a.5.5 0 0 0 .498 0l49.25-28.21-49.248-28.601zm.502-.865l49.998 29.037a.5.5 0 0 1-.002.867l-50.003 28.64a1.5 1.5 0 0 1-1.492 0l-50.003-28.64a.5.5 0 0 1-.002-.867l49.998-29.037a1.5 1.5 0 0 1 1.506 0z"/>
            <path fill="url(#f)" d="M100 28.969L50.5 1.027 1 28.97v116.476l49.497 28.526L100 145.141V28.97zM51.483-.715L102 27.801v118.49L51.504 175.7a2 2 0 0 1-2.005.004L0 147.178A2 2 0 0 1-1 145.445V27.801L49.517-.715a2 2 0 0 1 1.966 0z" transform="translate(72 33)"/>
            <path fill="url(#g)" d="M50.497 55.974l.087.049a.172.172 0 0 0-.173 0l.086-.05zm0 0l50.005-28.68.996 1.735-50.092 28.73c-.56.32-1.249.322-1.81.003L-.086 29.564A1.8 1.8 0 0 1-1 28h2a.2.2 0 0 0-.099-.175l49.596 28.149z" transform="translate(72 33)"/>
        </g>
        <path fill="#E2EFFF" d="M6.378 100.452V98.67h9v1.782h-3.474V111H9.888v-10.548h-3.51zm12.782 7.938c.408.708 1.188 1.062 2.34 1.062s1.929-.348 2.331-1.044c.402-.696.603-1.863.603-3.501s-.207-2.829-.621-3.573c-.414-.744-1.185-1.116-2.313-1.116-1.128 0-1.902.372-2.322 1.116-.42.744-.63 1.929-.63 3.555 0 1.626.204 2.793.612 3.501zm6.228 1.296c-.732 1.008-2.028 1.512-3.888 1.512-1.86 0-3.162-.507-3.906-1.521-.744-1.014-1.116-2.607-1.116-4.779 0-2.172.375-3.786 1.125-4.842.75-1.056 2.049-1.584 3.897-1.584 1.848 0 3.144.525 3.888 1.575.744 1.05 1.116 2.667 1.116 4.851s-.372 3.78-1.116 4.788zM31.024 111h-1.998V98.67h1.998v5.562l1.836-.144 2.52-5.418h2.286l-3.042 6.192L37.792 111H35.47l-2.61-5.148-1.836.126V111zm8.696 0V98.67h7.776v1.746h-5.778v3.492h4.698v1.728h-4.698v3.6h5.778V111H39.72zm10.154 0V98.67h3.492l3.744 10.566h.27V98.67h1.998V111h-3.42l-3.834-10.584h-.252V111h-1.998zm-44.65 16.218c-1.524 0-2.286.534-2.286 1.602 0 .552.18.945.54 1.179.36.234 1.155.522 2.385.864 1.23.342 2.097.75 2.601 1.224s.756 1.221.756 2.241c0 1.296-.369 2.265-1.107 2.907-.738.642-1.743.963-3.015.963-1.02 0-2.148-.12-3.384-.36l-.648-.126.198-1.602c1.62.216 2.856.324 3.708.324 1.488 0 2.232-.66 2.232-1.98 0-.516-.168-.897-.504-1.143-.336-.246-1.092-.516-2.268-.81-1.176-.294-2.052-.699-2.628-1.215-.576-.516-.864-1.332-.864-2.448 0-1.116.363-1.959 1.089-2.529.726-.57 1.731-.855 3.015-.855.924 0 2.016.108 3.276.324l.63.108-.162 1.62c-1.68-.192-2.868-.288-3.564-.288zm8.264 6.84c0 1.596.84 2.394 2.52 2.394 1.68 0 2.52-.798 2.52-2.394v-8.388h2.016v8.352c0 1.452-.381 2.511-1.143 3.177-.762.666-1.896.999-3.402.999-1.506 0-2.637-.333-3.393-.999-.756-.666-1.134-1.725-1.134-3.177v-8.352h2.016v8.388zm14.51.108h-2.52V138H23.48v-12.33h4.518c2.796 0 4.194 1.38 4.194 4.14 0 1.416-.351 2.496-1.053 3.24-.702.744-1.749 1.116-3.141 1.116zm-2.52-1.728h2.502c1.44 0 2.16-.876 2.16-2.628 0-.84-.174-1.452-.522-1.836-.348-.384-.894-.576-1.638-.576h-2.502v5.04zm13.358 1.728h-2.52V138h-1.998v-12.33h4.518c2.796 0 4.194 1.38 4.194 4.14 0 1.416-.351 2.496-1.053 3.24-.702.744-1.749 1.116-3.141 1.116zm-2.52-1.728h2.502c1.44 0 2.16-.876 2.16-2.628 0-.84-.174-1.452-.522-1.836-.348-.384-.894-.576-1.638-.576h-2.502v5.04zM52.068 138h-6.912v-12.33h1.998v10.548h4.914V138zm4.808 0H54.86v-5.076l-3.87-7.254h2.25l2.61 5.292 2.628-5.292h2.232l-3.834 7.254V138z"/>
        <g transform="translate(0 2)">
            <use fill="#000" filter="url(#h)" xlink:href="#i"/>
            <use fill="url(#j)" xlink:href="#i"/>
        </g>
        <path fill="#29B1D7" fill-rule="nonzero" d="M74 264.768v8.467l7.056-4.233L74 264.768zm9.514 5.091l-10 6a1 1 0 0 1-1.514-.857v-12a1 1 0 0 1 1.514-.858l10 6a1 1 0 0 1 0 1.715z"/>
        <path fill="url(#k)" fill-rule="nonzero" d="M189.88 10.501h44.118l-.247-.065c6.873 3.892 17.076 9.667 30.609 17.327a.5.5 0 1 0 .492-.87c-13.533-7.66-23.735-13.435-30.608-17.327a.5.5 0 0 0-.246-.065H189.88a.5.5 0 0 0 0 1zm97.368 29.066l-.248-.066h.133l.115.066zm-.248.934a.5.5 0 0 1-.248-.066l-13.692-7.841a.5.5 0 1 1 .497-.868l13.576 7.775h61.18a.5.5 0 0 1 .248.066c4.543 2.599 15.034 8.638 31.474 18.117a.5.5 0 0 1-.5.866c-16.3-9.399-26.753-15.415-31.355-18.049H287zm113.862 29.066l-.248-.066h.133l.115.066zm62.136-.066c.058 0 14.17 8 42.337 23.997a.5.5 0 1 1-.494.87l-42.09-23.932-62.137.065c-.058 0-4.207-2.336-12.447-7.01a.5.5 0 1 1 .494-.868l12.086 6.878h62.25z" transform="translate(0 2)"/>
        <path fill="#56D7F0" fill-rule="nonzero" d="M182 7.766v8.468L189.056 12 182 7.766zm9.514 5.091l-10 6A1 1 0 0 1 180 18V6a1 1 0 0 1 1.514-.857l10 6a1 1 0 0 1 0 1.714z"/>
        <path fill="#3181C7" fill-rule="nonzero" d="M382.875 56.04l-4.961 8.95 9.94-.34-4.979-8.61zm5.845 9.58l-11.655.4a.5.5 0 0 1-.454-.743l5.818-10.495a.5.5 0 0 1 .87-.008l5.837 10.096a.5.5 0 0 1-.416.75z"/>
        <path fill="#49B8E2" fill-rule="nonzero" d="M267.875 25.04l-4.961 8.95 9.94-.34-4.979-8.61zm5.845 9.58l-11.655.4a.5.5 0 0 1-.454-.743l5.818-10.495a.5.5 0 0 1 .87-.008l5.837 10.096a.5.5 0 0 1-.416.75z"/>
        <path fill="#1B4FAF" fill-rule="nonzero" d="M507.875 92.04l-4.961 8.95 9.94-.34-4.979-8.61zm5.845 9.58l-11.655.4a.5.5 0 0 1-.454-.743l5.818-10.495a.5.5 0 0 1 .87-.008l5.837 10.096a.5.5 0 0 1-.416.75z"/>
    </g>
</svg>
