<svg xmlns="http://www.w3.org/2000/svg" width="217" height="158" viewBox="0 0 217 158">
    <defs>
        <linearGradient id="a" x1="109.237%" x2="50%" y1="45.108%" y2="100%">
            <stop offset="0%" stop-color="#57D8F1"/>
            <stop offset="100%" stop-color="#194AAD"/>
        </linearGradient>
        <linearGradient id="b" x1="108.187%" x2="22.902%" y1="105.771%" y2="87.332%">
            <stop offset="0%" stop-color="#57D8F1"/>
            <stop offset="100%" stop-color="#194AAD"/>
        </linearGradient>
        <linearGradient id="c" x1="22.902%" x2="22.902%" y1="0%" y2="100%">
            <stop offset="0%" stop-color="#57D8F1"/>
            <stop offset="100%" stop-color="#194AAD"/>
        </linearGradient>
        <linearGradient id="d" x1="100%" x2="8.169%" y1="0%" y2="0%">
            <stop offset="0%" stop-color="#57D8F1"/>
            <stop offset="100%" stop-color="#194AAD"/>
        </linearGradient>
    </defs>
    <g fill="none" fill-rule="nonzero">
        <path fill="url(#a)" d="M143.5 71.5c-19.882 0-36-16.118-36-36s16.118-36 36-36 36 16.118 36 36-16.118 36-36 36zm0-1c19.33 0 35-15.67 35-35s-15.67-35-35-35-35 15.67-35 35 15.67 35 35 35z" transform="translate(1 1)"/>
        <path fill="url(#b)" d="M192 155.833h-88c-6.351 0-11.5-5.148-11.5-11.5V113c0-22.912 19.916-41.5 44.5-41.5h6.978a.5.5 0 0 0 0-1H137c-25.122 0-45.5 19.02-45.5 42.5v31.333c0 6.904 5.596 12.5 12.5 12.5h88a.5.5 0 1 0 0-1z" transform="translate(1 1)"/>
        <g opacity=".4">
            <path fill="url(#a)" d="M47.5 65.5c-18.225 0-33-14.775-33-33s14.775-33 33-33 33 14.775 33 33-14.775 33-33 33zm0-1c17.673 0 32-14.327 32-32 0-17.673-14.327-32-32-32-17.673 0-32 14.327-32 32 0 17.673 14.327 32 32 32z" transform="translate(46 14)"/>
            <path fill="url(#b)" d="M91.85 142.5H12C5.649 142.5.5 137.351.5 131v-27.61C.5 82.474 18.773 65.5 41.333 65.5h6.409a.5.5 0 1 0 0-1h-6.41C18.238 64.5-.5 81.903-.5 103.39V131c0 6.904 5.596 12.5 12.5 12.5h79.85a.5.5 0 0 0 0-1z" transform="translate(46 14)"/>
        </g>
        <g opacity=".25">
            <path fill="url(#a)" d="M41.5 56.5c-16.014 0-29-12.758-29-28.5S25.486-.5 41.5-.5s29 12.758 29 28.5-12.986 28.5-29 28.5zm0-1c15.466 0 28-12.314 28-27.5S56.966.5 41.5.5s-28 12.314-28 27.5 12.534 27.5 28 27.5z" transform="translate(1 33)"/>
            <path fill="url(#b)" d="M80 123.5H12C5.649 123.5.5 118.351.5 112V89.469C.5 71.269 16.386 56.5 36 56.5h5.582a.5.5 0 1 0 0-1H36C15.85 55.5-.5 70.7-.5 89.469V112c0 6.904 5.596 12.5 12.5 12.5h68a.5.5 0 0 0 0-1z" transform="translate(1 33)"/>
        </g>
        <path fill="url(#c)" d="M189 90v46a2 2 0 0 0 4 0V90a2 2 0 0 0-4 0z" transform="translate(1 1)"/>
        <path fill="url(#d)" d="M214 111h-46a2 2 0 0 0 0 4h46a2 2 0 0 0 0-4z" transform="translate(1 1)"/>
    </g>
</svg>
