<?xml version="1.0" encoding="UTF-8"?>
<svg width="1240px" height="297px" viewBox="0 0 1240 297" version="1.1" xmlns="http://www.w3.org/2000/svg" xmlns:xlink="http://www.w3.org/1999/xlink">
    <!-- Generator: Sketch 47 (45396) - http://www.bohemiancoding.com/sketch -->
    <title>1</title>
    <desc>Created with Sketch.</desc>
    <defs>
        <linearGradient x1="90.6802675%" y1="58.4716061%" x2="0%" y2="40.5107342%" id="linearGradient-1">
            <stop stop-color="#E2E2E2" offset="0%"></stop>
            <stop stop-color="#C0C0C0" offset="97.9751276%"></stop>
        </linearGradient>
        <linearGradient x1="90.6802675%" y1="58.4716061%" x2="0%" y2="40.5107342%" id="linearGradient-2">
            <stop stop-color="#D5D5D5" offset="0%"></stop>
            <stop stop-color="#A5A5A5" offset="100%"></stop>
        </linearGradient>
    </defs>
    <g id="Page-1" stroke="none" stroke-width="1" fill="none" fill-rule="evenodd" opacity="0.293534873">
        <g id="1" transform="translate(0.000000, -17.000000)" fill-rule="nonzero">
            <g id="Group-34-Copy" style="mix-blend-mode: luminosity;" transform="translate(310.000000, 0.000000)">
                <path d="M750.041609,49.6996949 L794.041609,150.699695 C794.151898,150.952857 794.446533,151.068679 794.699695,150.958391 C794.952857,150.848102 795.068679,150.553467 794.958391,150.300305 L750.958391,49.3003051 C750.848102,49.0471429 750.553467,48.9313209 750.300305,49.0416094 C750.047143,49.1518979 749.931321,49.4465328 750.041609,49.6996949 Z" id="Stroke-74-Copy-2" fill="url(#linearGradient-1)" transform="translate(772.500000, 100.000000) rotate(-44.000000) translate(-772.500000, -100.000000) "></path>
                <path d="M233.041609,2.69969491 L277.041609,103.699695 C277.151898,103.952857 277.446533,104.068679 277.699695,103.958391 C277.952857,103.848102 278.068679,103.553467 277.958391,103.300305 L233.958391,2.30030509 C233.848102,2.04714295 233.553467,1.93132095 233.300305,2.0416094 C233.047143,2.15189786 232.931321,2.44653278 233.041609,2.69969491 Z" id="Stroke-74-Copy-6" fill="url(#linearGradient-1)" transform="translate(255.500000, 53.000000) rotate(-44.000000) translate(-255.500000, -53.000000) "></path>
                <path d="M823.7579,17.5625213 L720.7579,74.5625213 C720.516287,74.6962293 720.428813,75.000487 720.562521,75.2420999 C720.696229,75.4837127 721.000487,75.5711868 721.2421,75.4374787 L824.2421,18.4374787 C824.483713,18.3037707 824.571187,17.999513 824.437479,17.7579001 C824.303771,17.5162873 823.999513,17.4288132 823.7579,17.5625213 Z" id="Stroke-74-Copy-11" fill="url(#linearGradient-1)"></path>
                <path d="M822.7579,128.562521 L719.7579,185.562521 C719.516287,185.696229 719.428813,186.000487 719.562521,186.2421 C719.696229,186.483713 720.000487,186.571187 720.2421,186.437479 L823.2421,129.437479 C823.483713,129.303771 823.571187,128.999513 823.437479,128.7579 C823.303771,128.516287 822.999513,128.428813 822.7579,128.562521 Z" id="Stroke-74-Copy-12" fill="url(#linearGradient-1)"></path>
                <path d="M305.7579,78.5625213 L202.7579,135.562521 C202.516287,135.696229 202.428813,136.000487 202.562521,136.2421 C202.696229,136.483713 203.000487,136.571187 203.2421,136.437479 L306.2421,79.4374787 C306.483713,79.3037707 306.571187,78.999513 306.437479,78.7579001 C306.303771,78.5162873 305.999513,78.4288132 305.7579,78.5625213 Z" id="Stroke-74-Copy-13" fill="url(#linearGradient-1)"></path>
                <path d="M411,178.365234 L411,-23.3652345 C411,-23.9175192 410.552285,-24.3652345 410,-24.3652345 C409.447715,-24.3652345 409,-23.9175192 409,-23.3652345 L409,178.365234 C409,178.917519 409.447715,179.365234 410,179.365234 C410.552285,179.365234 411,178.917519 411,178.365234 Z" id="Stroke-49-Copy-7" fill="url(#linearGradient-1)" transform="translate(410.000000, 77.500000) rotate(-90.000000) translate(-410.000000, -77.500000) "></path>
                <path d="M103,132.365234 L103,-69.3652345 C103,-69.9175192 102.552285,-70.3652345 102,-70.3652345 C101.447715,-70.3652345 101,-69.9175192 101,-69.3652345 L101,132.365234 C101,132.917519 101.447715,133.365234 102,133.365234 C102.552285,133.365234 103,132.917519 103,132.365234 Z" id="Stroke-49-Copy-20" fill="url(#linearGradient-1)" transform="translate(102.000000, 31.500000) rotate(-90.000000) translate(-102.000000, -31.500000) "></path>
                <polygon id="Stroke-49-Copy-11" fill="url(#linearGradient-1)" transform="translate(612.000000, 77.500000) rotate(-90.000000) translate(-612.000000, -77.500000) " points="613 176.865234 613 -21.8652345 611 -21.8652345 611 176.865234"></polygon>
                <path d="M929.5,224.25 L929.5,28.75 C929.5,28.4738576 929.276142,28.25 929,28.25 C928.723858,28.25 928.5,28.4738576 928.5,28.75 L928.5,224.25 C928.5,224.526142 928.723858,224.75 929,224.75 C929.276142,224.75 929.5,224.526142 929.5,224.25 Z" id="Stroke-49-Copy-8" fill="url(#linearGradient-1)"></path>
                <circle id="Oval-8-Copy-28" fill="#B5B5B5" cx="512" cy="77" r="5"></circle>
                <circle id="Oval-8-Copy-43" fill="#B5B5B5" cx="204" cy="31" r="5"></circle>
                <path d="M716,82.5 C712.962434,82.5 710.5,80.0375661 710.5,77 C710.5,73.9624339 712.962434,71.5 716,71.5 C719.037566,71.5 721.5,73.9624339 721.5,77 C721.5,80.0375661 719.037566,82.5 716,82.5 Z M716,81.5 C718.485281,81.5 720.5,79.4852814 720.5,77 C720.5,74.5147186 718.485281,72.5 716,72.5 C713.514719,72.5 711.5,74.5147186 711.5,77 C711.5,79.4852814 713.514719,81.5 716,81.5 Z" id="Oval-8-Copy-31" fill="#B5B5B5"></path>
                <path d="M827,131.5 C823.962434,131.5 821.5,129.037566 821.5,126 C821.5,122.962434 823.962434,120.5 827,120.5 C830.037566,120.5 832.5,122.962434 832.5,126 C832.5,129.037566 830.037566,131.5 827,131.5 Z M827,130.5 C829.485281,130.5 831.5,128.485281 831.5,126 C831.5,123.514719 829.485281,121.5 827,121.5 C824.514719,121.5 822.5,123.514719 822.5,126 C822.5,128.485281 824.514719,130.5 827,130.5 Z" id="Oval-8-Copy-32" fill="#B5B5B5"></path>
                <path d="M826,28.5 C822.962434,28.5 820.5,26.0375661 820.5,23 C820.5,19.9624339 822.962434,17.5 826,17.5 C829.037566,17.5 831.5,19.9624339 831.5,23 C831.5,26.0375661 829.037566,28.5 826,28.5 Z M826,27.5 C828.485281,27.5 830.5,25.4852814 830.5,23 C830.5,20.5147186 828.485281,18.5 826,18.5 C823.514719,18.5 821.5,20.5147186 821.5,23 C821.5,25.4852814 823.514719,27.5 826,27.5 Z" id="Oval-8-Copy-42" fill="#B5B5B5"></path>
                <circle id="Oval-8-Copy-30" fill="#B5B5B5" cx="307" cy="77" r="5"></circle>
                <circle id="Oval-8-Copy-44" fill="#B5B5B5" cx="203" cy="136" r="5"></circle>
                <path d="M274.749046,41.5 L340.250954,41.5 C340.527096,41.5 340.750954,41.2761424 340.750954,41 C340.750954,40.7238576 340.527096,40.5 340.250954,40.5 L274.749046,40.5 C274.472904,40.5 274.249046,40.7238576 274.249046,41 C274.249046,41.2761424 274.472904,41.5 274.749046,41.5 Z" id="Stroke-222-Copy-4" fill="url(#linearGradient-1)"></path>
                <path d="M479.749046,41.5 L545.250954,41.5 C545.527096,41.5 545.750954,41.2761424 545.750954,41 C545.750954,40.7238576 545.527096,40.5 545.250954,40.5 L479.749046,40.5 C479.472904,40.5 479.249046,40.7238576 479.249046,41 C479.249046,41.2761424 479.472904,41.5 479.749046,41.5 Z" id="Stroke-222-Copy-6" fill="url(#linearGradient-1)"></path>
                <path d="M794.749046,86.5 L860.250954,86.5 C860.527096,86.5 860.750954,86.2761424 860.750954,86 C860.750954,85.7238576 860.527096,85.5 860.250954,85.5 L794.749046,85.5 C794.472904,85.5 794.249046,85.7238576 794.249046,86 C794.249046,86.2761424 794.472904,86.5 794.749046,86.5 Z" id="Stroke-222-Copy-7" fill="url(#linearGradient-1)" transform="translate(827.500000, 86.000000) rotate(-270.000000) translate(-827.500000, -86.000000) "></path>
            </g>
            <g id="Group-34" style="mix-blend-mode: luminosity;" transform="translate(0.000000, 127.000000)">
                <path d="M750.041609,49.6996949 L794.041609,150.699695 C794.151898,150.952857 794.446533,151.068679 794.699695,150.958391 C794.952857,150.848102 795.068679,150.553467 794.958391,150.300305 L750.958391,49.3003051 C750.848102,49.0471429 750.553467,48.9313209 750.300305,49.0416094 C750.047143,49.1518979 749.931321,49.4465328 750.041609,49.6996949 Z" id="Stroke-74-Copy-2" fill="url(#linearGradient-2)" transform="translate(772.500000, 100.000000) rotate(-223.000000) translate(-772.500000, -100.000000) "></path>
                <path d="M233.041609,2.69969491 L277.041609,103.699695 C277.151898,103.952857 277.446533,104.068679 277.699695,103.958391 C277.952857,103.848102 278.068679,103.553467 277.958391,103.300305 L233.958391,2.30030509 C233.848102,2.04714295 233.553467,1.93132095 233.300305,2.0416094 C233.047143,2.15189786 232.931321,2.44653278 233.041609,2.69969491 Z" id="Stroke-74-Copy-6" fill="url(#linearGradient-2)" transform="translate(255.500000, 53.000000) rotate(-43.000000) translate(-255.500000, -53.000000) "></path>
                <path d="M823.7579,17.5625213 L720.7579,74.5625213 C720.516287,74.6962293 720.428813,75.000487 720.562521,75.2420999 C720.696229,75.4837127 721.000487,75.5711868 721.2421,75.4374787 L824.2421,18.4374787 C824.483713,18.3037707 824.571187,17.999513 824.437479,17.7579001 C824.303771,17.5162873 823.999513,17.4288132 823.7579,17.5625213 Z" id="Stroke-74-Copy-11" fill="url(#linearGradient-2)" transform="translate(772.500000, 46.500000) rotate(-360.000000) translate(-772.500000, -46.500000) "></path>
                <path d="M822.7579,128.562521 L719.7579,185.562521 C719.516287,185.696229 719.428813,186.000487 719.562521,186.2421 C719.696229,186.483713 720.000487,186.571187 720.2421,186.437479 L823.2421,129.437479 C823.483713,129.303771 823.571187,128.999513 823.437479,128.7579 C823.303771,128.516287 822.999513,128.428813 822.7579,128.562521 Z" id="Stroke-74-Copy-12" fill="url(#linearGradient-2)" transform="translate(771.500000, 157.500000) rotate(-360.000000) translate(-771.500000, -157.500000) "></path>
                <path d="M305.7579,78.5625213 L202.7579,135.562521 C202.516287,135.696229 202.428813,136.000487 202.562521,136.2421 C202.696229,136.483713 203.000487,136.571187 203.2421,136.437479 L306.2421,79.4374787 C306.483713,79.3037707 306.571187,78.999513 306.437479,78.7579001 C306.303771,78.5162873 305.999513,78.4288132 305.7579,78.5625213 Z" id="Stroke-74-Copy-13" fill="url(#linearGradient-2)" transform="translate(254.500000, 107.500000) rotate(-360.000000) translate(-254.500000, -107.500000) "></path>
                <path d="M411,178.365234 L411,-23.3652345 C411,-23.9175192 410.552285,-24.3652345 410,-24.3652345 C409.447715,-24.3652345 409,-23.9175192 409,-23.3652345 L409,178.365234 C409,178.917519 409.447715,179.365234 410,179.365234 C410.552285,179.365234 411,178.917519 411,178.365234 Z" id="Stroke-49-Copy-7" fill="url(#linearGradient-2)" transform="translate(410.000000, 77.500000) rotate(-270.000000) translate(-410.000000, -77.500000) "></path>
                <path d="M103,132.365234 L103,-69.3652345 C103,-69.9175192 102.552285,-70.3652345 102,-70.3652345 C101.447715,-70.3652345 101,-69.9175192 101,-69.3652345 L101,132.365234 C101,132.917519 101.447715,133.365234 102,133.365234 C102.552285,133.365234 103,132.917519 103,132.365234 Z" id="Stroke-49-Copy-20" fill="url(#linearGradient-2)" transform="translate(102.000000, 31.500000) rotate(-270.000000) translate(-102.000000, -31.500000) "></path>
                <polygon id="Stroke-49-Copy-11" fill="url(#linearGradient-2)" transform="translate(612.000000, 77.500000) rotate(-270.000000) translate(-612.000000, -77.500000) " points="613 176.865234 613 -21.8652345 611 -21.8652345 611 176.865234"></polygon>
                <path d="M929.5,224.25 L929.5,28.75 C929.5,28.4738576 929.276142,28.25 929,28.25 C928.723858,28.25 928.5,28.4738576 928.5,28.75 L928.5,224.25 C928.5,224.526142 928.723858,224.75 929,224.75 C929.276142,224.75 929.5,224.526142 929.5,224.25 Z" id="Stroke-49-Copy-8" fill="url(#linearGradient-2)" transform="translate(929.000000, 126.500000) rotate(-270.000000) translate(-929.000000, -126.500000) "></path>
                <path d="M928.5,121.25 L928.5,-74.25 C928.5,-74.5261424 928.276142,-74.75 928,-74.75 C927.723858,-74.75 927.5,-74.5261424 927.5,-74.25 L927.5,121.25 C927.5,121.526142 927.723858,121.75 928,121.75 C928.276142,121.75 928.5,121.526142 928.5,121.25 Z" id="Stroke-49-Copy-19" fill="url(#linearGradient-2)" transform="translate(928.000000, 23.500000) rotate(-270.000000) translate(-928.000000, -23.500000) "></path>
                <circle id="Oval-8-Copy-28" fill="#C5C5C5" cx="512" cy="77" r="5"></circle>
                <circle id="Oval-8-Copy-43" fill="#C5C5C5" cx="204" cy="31" r="5"></circle>
                <path d="M716,82.5 C712.962434,82.5 710.5,80.0375661 710.5,77 C710.5,73.9624339 712.962434,71.5 716,71.5 C719.037566,71.5 721.5,73.9624339 721.5,77 C721.5,80.0375661 719.037566,82.5 716,82.5 Z M716,81.5 C718.485281,81.5 720.5,79.4852814 720.5,77 C720.5,74.5147186 718.485281,72.5 716,72.5 C713.514719,72.5 711.5,74.5147186 711.5,77 C711.5,79.4852814 713.514719,81.5 716,81.5 Z" id="Oval-8-Copy-31" fill="#C5C5C5"></path>
                <path d="M827,131.5 C823.962434,131.5 821.5,129.037566 821.5,126 C821.5,122.962434 823.962434,120.5 827,120.5 C830.037566,120.5 832.5,122.962434 832.5,126 C832.5,129.037566 830.037566,131.5 827,131.5 Z M827,130.5 C829.485281,130.5 831.5,128.485281 831.5,126 C831.5,123.514719 829.485281,121.5 827,121.5 C824.514719,121.5 822.5,123.514719 822.5,126 C822.5,128.485281 824.514719,130.5 827,130.5 Z" id="Oval-8-Copy-32" fill="#C5C5C5"></path>
                <path d="M826,28.5 C822.962434,28.5 820.5,26.0375661 820.5,23 C820.5,19.9624339 822.962434,17.5 826,17.5 C829.037566,17.5 831.5,19.9624339 831.5,23 C831.5,26.0375661 829.037566,28.5 826,28.5 Z M826,27.5 C828.485281,27.5 830.5,25.4852814 830.5,23 C830.5,20.5147186 828.485281,18.5 826,18.5 C823.514719,18.5 821.5,20.5147186 821.5,23 C821.5,25.4852814 823.514719,27.5 826,27.5 Z" id="Oval-8-Copy-42" fill="#C5C5C5"></path>
                <circle id="Oval-8-Copy-30" fill="#C5C5C5" cx="307" cy="77" r="5"></circle>
                <path d="M274.749046,41.5 L340.250954,41.5 C340.527096,41.5 340.750954,41.2761424 340.750954,41 C340.750954,40.7238576 340.527096,40.5 340.250954,40.5 L274.749046,40.5 C274.472904,40.5 274.249046,40.7238576 274.249046,41 C274.249046,41.2761424 274.472904,41.5 274.749046,41.5 Z" id="Stroke-222-Copy-4" fill="url(#linearGradient-2)" transform="translate(307.500000, 41.000000) rotate(-270.000000) translate(-307.500000, -41.000000) "></path>
                <path d="M479.749046,41.5 L545.250954,41.5 C545.527096,41.5 545.750954,41.2761424 545.750954,41 C545.750954,40.7238576 545.527096,40.5 545.250954,40.5 L479.749046,40.5 C479.472904,40.5 479.249046,40.7238576 479.249046,41 C479.249046,41.2761424 479.472904,41.5 479.749046,41.5 Z" id="Stroke-222-Copy-6" fill="url(#linearGradient-2)" transform="translate(512.500000, 41.000000) rotate(-270.000000) translate(-512.500000, -41.000000) "></path>
                <path d="M794.749046,86.5 L860.250954,86.5 C860.527096,86.5 860.750954,86.2761424 860.750954,86 C860.750954,85.7238576 860.527096,85.5 860.250954,85.5 L794.749046,85.5 C794.472904,85.5 794.249046,85.7238576 794.249046,86 C794.249046,86.2761424 794.472904,86.5 794.749046,86.5 Z" id="Stroke-222-Copy-7" fill="url(#linearGradient-2)" transform="translate(827.500000, 86.000000) rotate(-270.000000) translate(-827.500000, -86.000000) "></path>
            </g>
        </g>
    </g>
</svg>