<?xml version="1.0" encoding="UTF-8"?>
<svg width="1440px" height="619px" viewBox="0 0 1440 619" version="1.1" xmlns="http://www.w3.org/2000/svg" xmlns:xlink="http://www.w3.org/1999/xlink">
    <!-- Generator: Sketch 47 (45396) - http://www.bohemiancoding.com/sketch -->
    <title>Group 17</title>
    <desc>Created with Sketch.</desc>
    <defs>
        <polygon id="path-1" points="0 0 1440 0 1440 619 0 619"></polygon>
        <linearGradient x1="50%" y1="97.3955332%" x2="4.53825233%" y2="30.7529885%" id="linearGradient-3">
            <stop stop-color="#E1E1E1" stop-opacity="0.3" offset="0%"></stop>
            <stop stop-color="#C8C8CF" stop-opacity="0.15" offset="69.2149229%"></stop>
            <stop stop-color="#9D9D9D" offset="100%"></stop>
        </linearGradient>
    </defs>
    <g id="Page-1" stroke="none" stroke-width="1" fill="none" fill-rule="evenodd">
        <g id="Group-17">
            <mask id="mask-2" fill="white">
                <use xlink:href="#path-1"></use>
            </mask>
            <g id="Mask"></g>
            <g opacity="0.28" mask="url(#mask-2)">
                <g transform="translate(-166.000000, -276.000000)">
                    <path d="M1450,337.5 L1449.55044,337.78115 L1449.68731,337.5 L1450,337.5 Z M1449.55044,-2.78115352 C1449.86977,-3.30733639 1477.87166,53.4535695 1533.5561,167.501564 L1450.31269,338.5 L1283.68731,338.5 L1200.55044,167.720412 C1200.86977,167.194227 1228.79052,223.787423 1284.31269,337.5 L1449.68731,337.5 L1532.4439,167.50156 L1449.55044,-2.78115352 Z" id="Stroke-10" fill="url(#linearGradient-3)" fill-rule="nonzero" transform="translate(1367.027992, 167.499943) rotate(90.000000) translate(-1367.027992, -167.499943) "></path>
                    <path d="M1113.44956,419.78115 L1030.44956,249.282712 C1030.32869,249.034427 1030.02944,248.931134 1029.78115,249.052001 C1029.53286,249.172869 1029.42957,249.472126 1029.55044,249.720412 L1112.55044,420.21885 C1112.67131,420.467135 1112.97056,420.570428 1113.21885,420.449561 C1113.46714,420.328693 1113.57043,420.029436 1113.44956,419.78115 Z M1361.4439,249.50156 L1278.55044,419.78115 C1279.02944,420.570428 1279.32869,420.467135 1279.44956,420.21885 L1362.5561,249.501564 L1279.3127,78.5 L1113,78.5 C1112.66667,79.0174282 1167.89577,79.3507616 1278.6873,79.5 L1361.4439,249.50156 Z" id="Stroke-47" fill="url(#linearGradient-3)" fill-rule="nonzero" transform="translate(1196.027992, 249.500057) rotate(90.000000) translate(-1196.027992, -249.500057) "></path>
                    <path d="M936.687306,419.5 L1019.4439,249.50156 L936.687303,79.5 L771.312697,79.5 L688.556097,249.50156 L771.312694,419.5 L936.687306,419.5 Z M687.443903,249.501564 L770.687303,78.5 L937.312697,78.5 L1020.5561,249.501564 L937.312694,420.5 L770.687306,420.5 L687.443903,249.501564 Z" id="Stroke-48" fill="url(#linearGradient-3)" fill-rule="nonzero" transform="translate(854.000000, 249.500000) rotate(90.000000) translate(-854.000000, -249.500000) "></path>
                    <path d="M389.556097,208.50156 L472.449562,38.2188465 C471.97056,37.4295722 471.671303,37.5328671 471.550438,37.7811535 L388.443903,208.501564 L471.687306,379.5 L638,379.5 C638.333333,378.982572 583.104231,378.649238 472.312694,378.5 L389.556097,208.50156 Z" id="Stroke-49" fill="url(#linearGradient-3)" fill-rule="nonzero" transform="translate(513.471951, 208.499943) rotate(90.000000) translate(-513.471951, -208.499943) "></path>
                    <path d="M386.698781,459.969627 L469.698781,289.468065 C469.819647,289.219779 469.716352,288.920522 469.468065,288.799657 C469.219779,288.678791 468.920522,288.782086 468.799657,289.030373 L385.799657,459.531935 C385.678791,459.780221 385.782086,460.079478 386.030373,460.200343 C386.278659,460.321209 386.577916,460.217914 386.698781,459.969627 Z" id="Stroke-49-Copy" fill="url(#linearGradient-3)" fill-rule="nonzero" transform="translate(427.749219, 374.500000) rotate(90.000000) translate(-427.749219, -374.500000) "></path>
                    <path d="M1619.68731,918.5 L1454.31269,918.5 L1371.5561,748.50156 L1454.44956,578.218846 C1454.13023,577.692664 1426.12834,634.453569 1370.4439,748.501564 L1453.68731,919.5 L1620.31269,919.5 L1703.5561,748.501564 L1620.44956,577.781154 C1619.83843,577.70792 1647.16988,634.614722 1702.4439,748.50156 L1619.68731,918.5 Z" id="Stroke-71" fill="url(#linearGradient-3)" fill-rule="nonzero" transform="translate(1537.000000, 748.499943) rotate(90.000000) translate(-1537.000000, -748.499943) "></path>
                    <circle id="Oval-8-Copy-22" fill="#A6A6A6" fill-rule="evenodd" cx="1367.5" cy="664.5" r="3.5"></circle>
                    <path d="M1408.68731,710.5 L1243,710.5 C1242.66667,711.017428 1298.10423,711.350762 1409.31269,711.5 L1492.5561,540.501564 L1409.44956,369.781154 C1408.53287,369.671303 1408.42957,369.97056 1408.55044,370.218846 L1491.4439,540.50156 L1408.68731,710.5 Z" id="Stroke-71-Copy" fill="url(#linearGradient-3)" fill-rule="nonzero" transform="translate(1367.528049, 540.499943) rotate(90.000000) translate(-1367.528049, -540.499943) "></path>
                    <path d="M1030.5561,748.50156 L1113.44956,578.218846 C1113.57043,577.97056 1113.46713,577.671303 1113.21885,577.550438 C1112.97056,577.429572 1112.6713,577.532867 1112.55044,577.781154 L1029.4439,748.501564 L1112.55044,919.21885 C1112.67131,919.467135 1112.97056,919.570428 1113.21885,919.449561 C1113.46714,919.328693 1113.57043,919.029436 1113.44956,918.78115 L1030.5561,748.50156 Z M1361.55044,748.282712 L1278.55044,918.78115 C1278.42957,919.029436 1278.53286,919.328693 1278.78115,919.449561 C1279.02944,919.570428 1279.32869,919.467135 1279.44956,919.21885 L1362.44956,748.720412 C1362.57043,748.472126 1362.46714,748.172869 1362.21885,748.052001 C1361.97056,747.931134 1361.67131,748.034427 1361.55044,748.282712 Z" id="Stroke-72" fill="url(#linearGradient-3)" fill-rule="nonzero" transform="translate(1195.972008, 748.500000) rotate(90.000000) translate(-1195.972008, -748.500000) "></path>
                    <path d="M596.687306,917.5 L679.443903,747.50156 L596.687303,577.5 L431.312697,577.5 L348.556097,747.50156 L431.312694,917.5 L596.687306,917.5 Z M347.443903,747.501564 L430.687303,576.5 L597.312697,576.5 L680.556097,747.501564 L597.312694,918.5 L430.687306,918.5 L347.443903,747.501564 Z" id="Stroke-74" fill="url(#linearGradient-3)" fill-rule="nonzero" transform="translate(514.000000, 747.500000) rotate(90.000000) translate(-514.000000, -747.500000) "></path>
                    <path d="M895.687306,794.5 L730,794.5 C729.666667,795.017428 785.104231,795.350762 896.312694,795.5 L979.556097,624.501564 L896.449562,453.781154 C895.532867,453.671303 895.429572,453.97056 895.550438,454.218846 L978.443903,624.50156 L895.687306,794.5 Z" id="Stroke-74-Copy" fill="url(#linearGradient-3)" fill-rule="nonzero" transform="translate(854.528049, 624.499943) rotate(90.000000) translate(-854.528049, -624.499943) "></path>
                    <path d="M859.556097,997.501558 L942.312697,827.5 L1107.6873,827.5 L1190.55044,997.720406 C1191.16157,997.79364 1163.74899,940.720171 1108.3127,826.5 L941.687303,826.5 L858.443903,997.501562 L941.687306,1168.5 L1108,1168.5 C1108.33333,1167.98257 1053.10423,1167.64924 942.312694,1167.5 L859.556097,997.501558 Z" id="Stroke-106" fill="url(#linearGradient-3)" fill-rule="nonzero" transform="translate(1024.972008, 997.500000) rotate(90.000000) translate(-1024.972008, -997.500000) "></path>
                    <path d="M600.312694,1167.5 L517.556097,997.501558 L600.312697,827.5 L766,827.5 C766.333333,826.982572 710.895768,826.649238 599.687303,826.5 L516.443903,997.501562 L599.687306,1168.5 L766.312694,1168.5 L849.449561,997.72041 C849.13023,997.194225 821.209478,1053.78742 765.687306,1167.5 L600.312694,1167.5 Z" id="Stroke-107" fill="url(#linearGradient-3)" fill-rule="nonzero" transform="translate(682.972008, 997.500000) rotate(90.000000) translate(-682.972008, -997.500000) "></path>
                    <path d="M255.687303,412.5 L338.443903,582.50156 L255.550439,752.78115 C255.86977,753.307335 283.871656,696.547473 339.556097,582.501564 L256.312697,411.5 L89.687303,411.5 L6.55043775,582.282716 C6.86977251,582.808898 34.7905256,526.21466 90.312697,412.5 L255.687303,412.5 Z" id="Stroke-108" fill="url(#linearGradient-3)" fill-rule="nonzero" transform="translate(173.027992, 582.500057) rotate(90.000000) translate(-173.027992, -582.500057) "></path>
                    <path d="M1618.68731,586.5 L1701.4439,416.50156 L1618.6873,246.5 L1453.3127,246.5 L1370.5561,416.50156 L1453.31269,586.5 L1618.68731,586.5 Z M1369.4439,416.501564 L1452.6873,245.5 L1619.3127,245.5 L1702.5561,416.501564 L1619.31269,587.5 L1452.68731,587.5 L1369.4439,416.501564 Z" id="Stroke-219" fill="url(#linearGradient-3)" fill-rule="nonzero" transform="translate(1536.000000, 416.500000) rotate(90.000000) translate(-1536.000000, -416.500000) "></path>
                    <path d="M1237.44956,121.218846 C1237.57043,120.97056 1237.46713,120.671303 1237.21885,120.550438 C1236.97056,120.429572 1236.6713,120.532867 1236.55044,120.781154 L1153.4439,291.501564 L1236.55044,462.21885 C1236.67131,462.467135 1236.97056,462.570428 1237.21885,462.449561 C1237.46714,462.328693 1237.57043,462.029436 1237.44956,461.78115 L1154.5561,291.50156 L1237.44956,121.218846 Z" id="Stroke-220" fill="url(#linearGradient-3)" fill-rule="nonzero" transform="translate(1195.472008, 291.500000) rotate(90.000000) translate(-1195.472008, -291.500000) "></path>
                    <path d="M1533.6869,580.5 L1616.55019,751.21833 C1617.46676,751.329233 1617.57039,751.030095 1617.44981,750.78167 L1534.3131,579.5 L1367.6869,579.5 L1284.55019,750.78167 C1284.42961,751.030095 1284.53324,751.329233 1284.78167,751.449813 C1284.94729,751.5302 1312.7911,694.546929 1368.3131,580.5 L1533.6869,580.5 Z" id="Stroke-220-Copy" fill="url(#linearGradient-3)" fill-rule="nonzero" transform="translate(1451.000000, 665.500057) rotate(90.000000) translate(-1451.000000, -665.500057) "></path>
                    <path d="M430.312694,585.5 L595.687306,585.5 L678.443903,415.50156 L595.687303,245.5 L430.312697,245.5 L347.556097,415.50156 L430.312694,585.5 Z M346.550439,415.720412 C346.505605,415.628313 374.172271,358.64856 429.550438,244.781154 C429.606258,244.666485 485.089446,244.572768 596,244.5 C596.127533,244.5 623.944054,301.427572 679.449562,415.282716 C679.494396,415.374815 651.827729,472.353526 596.449561,586.21885 C596.39374,586.333517 540.910553,586.427233 430,586.5 C429.872468,586.5 402.055948,529.573471 346.550439,415.720412 Z" id="Stroke-222" fill="url(#linearGradient-3)" fill-rule="nonzero" transform="translate(513.000000, 415.500000) rotate(90.000000) translate(-513.000000, -415.500000) "></path>
                    <path d="M855.208566,420.553364 C855.120297,420.512851 798.439748,446.463613 685.16692,498.40565 L854.780154,581.440266 C854.872621,581.485533 911.556929,553.807328 1024.83308,498.40565 L855.208566,420.553364 Z M1026.20857,497.936658 C1026.59183,498.112563 1026.5986,498.654737 1026.21985,498.840155 L855.659536,582.338416 C855.243438,582.542117 854.756562,582.542117 854.340463,582.338415 L683.780154,498.840155 C683.401403,498.654737 683.408172,498.112563 683.791434,497.936658 L854.374301,419.644518 C854.771514,419.46221 855.228486,419.46221 855.625699,419.644518 L1026.20857,497.936658 Z" id="Polygon-Copy-3" fill="url(#linearGradient-3)" fill-rule="nonzero" transform="translate(855.000000, 500.999489) rotate(-180.000000) translate(-855.000000, -500.999489) "></path>
                    <polygon id="Line-2" fill="url(#linearGradient-3)" fill-rule="nonzero" transform="translate(1025.000000, 416.500000) rotate(-180.000000) translate(-1025.000000, -416.500000) " points="1024.5 333.5 1024.5 499.5 1025.5 499.5 1025.5 333.5"></polygon>
                    <polygon id="Line-2-Copy" fill="url(#linearGradient-3)" fill-rule="nonzero" points="683 333.5 683 499.041667 684 499.041667 684 333.5"></polygon>
                    <polygon id="Line-2-Copy" fill="url(#linearGradient-3)" fill-rule="nonzero" transform="translate(683.500000, 416.270833) rotate(-180.000000) translate(-683.500000, -416.270833) " points="682.5 333 682.5 499.541667 684.5 499.541667 684.5 333"></polygon>
                    <path d="M1025.77955,333.448777 C1026.0274,333.570529 1026.32702,333.468305 1026.44878,333.220452 C1026.57053,332.972599 1026.4683,332.672975 1026.22045,332.551223 L855,248.442931 L683.779548,332.551223 C683.531695,332.672975 683.429471,332.972599 683.551223,333.220452 C683.672975,333.468305 683.972599,333.570529 684.220452,333.448777 L855,249.557069 L1025.77955,333.448777 Z" id="Polygon-Copy-5" fill="url(#linearGradient-3)" fill-rule="nonzero"></path>
                    <path d="M855,421.007787 L686.333841,498.420218 L854.999999,580.991191 L1023.66616,498.420218 L855,421.007787 Z M1026.41713,497.482235 C1027.18366,497.834046 1027.19719,498.918392 1026.43969,499.28923 L855.879381,582.787491 C855.324584,583.059092 854.675416,583.059092 854.120618,582.78749 L683.560309,499.28923 C682.802806,498.918392 682.816343,497.834046 683.582868,497.482235 L854.165735,419.190096 C854.695352,418.947017 855.304648,418.947017 855.834265,419.190096 L1026.41713,497.482235 Z" id="Polygon-Copy-3" fill="url(#linearGradient-3)" fill-rule="nonzero" transform="translate(855.000000, 500.999489) rotate(-180.000000) translate(-855.000000, -500.999489) "></path>
                    <path d="M1025.77955,333.448777 C1026.0274,333.570529 1026.32702,333.468305 1026.44878,333.220452 C1026.57053,332.972599 1026.4683,332.672975 1026.22045,332.551223 L855,248.442931 L683.779548,332.551223 C683.531695,332.672975 683.429471,332.972599 683.551223,333.220452 C683.672975,333.468305 683.972599,333.570529 684.220452,333.448777 L855,249.557069 L1025.77955,333.448777 Z" id="Polygon-Copy-5" fill="url(#linearGradient-3)" fill-rule="nonzero"></path>
                    <path d="M254.687306,585.5 L337.443903,415.50156 L254.687303,245.5 L89.312697,245.5 L6.55609749,415.50156 L89.3126945,585.5 L254.687306,585.5 Z M5.44390251,415.501564 L88.687303,244.5 L255.312697,244.5 L338.556097,415.501564 L255.312694,586.5 L88.6873055,586.5 L5.44390251,415.501564 Z" id="Stroke-223" fill="url(#linearGradient-3)" fill-rule="nonzero" transform="translate(172.000000, 415.500000) rotate(90.000000) translate(-172.000000, -415.500000) "></path>
                    <path d="M1534,999.5 L1533.55019,999.78167 L1533.6869,999.5 L1534,999.5 Z M1616.55019,828.78167 C1617.46676,828.670767 1617.57039,828.969905 1617.44981,829.21833 L1534.3131,1000.5 L1367.6869,1000.5 L1284.55019,829.21833 C1284.42961,828.969905 1284.53324,828.670767 1284.78167,828.550187 C1284.94729,828.4698 1312.7911,885.453071 1368.3131,999.5 L1533.6869,999.5 L1616.55019,828.78167 Z" id="Stroke-244" fill="url(#linearGradient-3)" fill-rule="nonzero" transform="translate(1451.000000, 914.499943) rotate(90.000000) translate(-1451.000000, -914.499943) "></path>
                    <path d="M1154.3127,703.5 L1320,703.5 C1320.33333,702.982572 1264.89577,702.649238 1153.6873,702.5 L1070.4439,873.501562 L1153.55044,1044.21885 C1154.46714,1044.32869 1154.57043,1044.02944 1154.44956,1043.78115 L1071.5561,873.501558 L1154.3127,703.5 Z" id="Stroke-245" fill="url(#linearGradient-3)" fill-rule="nonzero" transform="translate(1195.471951, 873.500057) rotate(90.000000) translate(-1195.471951, -873.500057) "></path>
                    <path d="M688.556097,914.501558 L771.449562,744.218846 C770.97056,743.429572 770.671303,743.532867 770.550438,743.781154 L687.443903,914.501562 L770.687306,1085.5 L937,1085.5 C937.333333,1084.98257 882.104231,1084.64924 771.312694,1084.5 L688.556097,914.501558 Z M936.550438,744.218846 L1019.55044,914.720406 C1019.6713,914.968693 1019.97056,915.071988 1020.21885,914.951122 C1020.46713,914.830257 1020.57043,914.531 1020.44956,914.282714 L937.449562,743.781154 C937.328697,743.532867 937.02944,743.429572 936.781154,743.550438 C936.532867,743.671303 936.429572,743.97056 936.550438,744.218846 Z" id="Stroke-246" fill="url(#linearGradient-3)" fill-rule="nonzero" transform="translate(853.972008, 914.499943) rotate(90.000000) translate(-853.972008, -914.499943) "></path>
                    <path d="M942.312697,495.5 L1107.6873,495.5 L1190.4439,665.50156 L1107.68731,835.5 L942,835.5 C941.666667,836.017428 997.104231,836.350762 1108.31269,836.5 L1191.5561,665.501564 L1108.3127,494.5 L941.687303,494.5 L858.550438,665.282716 C858.869773,665.808898 886.790526,609.21466 942.312697,495.5 Z" id="Stroke-254" fill="url(#linearGradient-3)" fill-rule="nonzero" transform="translate(1025.027992, 665.500000) rotate(90.000000) translate(-1025.027992, -665.500000) "></path>
                    <path d="M595.687306,1084.5 L678.443903,914.501558 L595.687303,744.5 L430.312697,744.5 L347.556097,914.501558 L430.312694,1084.5 L595.687306,1084.5 Z M346.443903,914.501562 L429.687303,743.5 L596.312697,743.5 L679.556097,914.501562 L596.312694,1085.5 L429.687306,1085.5 L346.443903,914.501562 Z" id="Stroke-247" fill="url(#linearGradient-3)" fill-rule="nonzero" transform="translate(513.000000, 914.500000) rotate(90.000000) translate(-513.000000, -914.500000) "></path>
                    <path d="M89.312697,744.5 L254.687303,744.5 L337.550438,914.720406 C338.161568,914.79364 310.748988,857.720171 255.312697,743.5 L88.687303,743.5 L5.44390251,914.501562 L88.5504393,1085.21885 C89.1615699,1085.29208 61.8301226,1028.38631 6.55609749,914.501558 L89.312697,744.5 Z" id="Stroke-248" fill="url(#linearGradient-3)" fill-rule="nonzero" transform="translate(171.972008, 914.500057) rotate(90.000000) translate(-171.972008, -914.500057) "></path>
                    <path d="M942.312694,669.5 L859.556097,499.50156 L942.449562,329.218846 C942.130227,328.692664 914.128341,385.453569 858.443903,499.501564 L941.687306,670.5 L1108.31269,670.5 L1191.44956,499.720412 C1191.13023,499.194227 1163.20948,555.787423 1107.68731,669.5 L942.312694,669.5 Z" id="Stroke-254-Copy" fill="url(#linearGradient-3)" fill-rule="nonzero" transform="translate(1024.972008, 499.499943) rotate(90.000000) translate(-1024.972008, -499.499943) "></path>
                    <path d="M425.687306,834.5 L508.443903,664.50156 L425.687303,494.5 L260.312697,494.5 L177.556097,664.50156 L260.312694,834.5 L425.687306,834.5 Z M176.443903,664.501564 L259.687303,493.5 L426.312697,493.5 L509.556097,664.501564 L426.312694,835.5 L259.687306,835.5 L176.443903,664.501564 Z" id="Stroke-256" fill="url(#linearGradient-3)" fill-rule="nonzero" transform="translate(343.000000, 664.500000) rotate(90.000000) translate(-343.000000, -664.500000) "></path>
                    <circle id="Oval-8-Copy-5" fill="#A6A6A6" fill-rule="evenodd" cx="854.5" cy="749.5" r="5.5"></circle>
                    <circle id="Oval-8-Copy-14" fill="#A6A6A6" fill-rule="evenodd" cx="1197.5" cy="582.5" r="5.5"></circle>
                    <circle id="Oval-8-Copy-10" fill="#A6A6A6" fill-rule="evenodd" cx="684.5" cy="498.5" r="5.5"></circle>
                    <circle id="Oval-8-Copy-9" fill="#A6A6A6" fill-rule="evenodd" cx="1536.5" cy="582.5" r="5.5"></circle>
                    <circle id="Oval-8-Copy-11" fill="#A6A6A6" fill-rule="evenodd" cx="1366.5" cy="332.5" r="5.5"></circle>
                    <circle id="Oval-8-Copy-20" fill="#A6A6A6" fill-rule="evenodd" cx="1024.5" cy="332.5" r="3.5"></circle>
                    <circle id="Oval-8-Copy-25" fill="#A6A6A6" fill-rule="evenodd" cx="514.5" cy="415.5" r="3.5"></circle>
                    <circle id="Oval-8-Copy-18" fill="#A6A6A6" fill-rule="evenodd" cx="1024.5" cy="664.5" r="3.5"></circle>
                    <circle id="Oval-8-Copy-21" fill="#A6A6A6" fill-rule="evenodd" cx="683.5" cy="831.5" r="3.5"></circle>
                    <circle id="Oval-8-Copy-15" fill="#A6A6A6" fill-rule="evenodd" cx="1365.5" cy="830.5" r="3.5"></circle>
                    <circle id="Oval-8-Copy-16" fill="#A6A6A6" fill-rule="evenodd" cx="513.5" cy="414.5" r="5.5"></circle>
                    <circle id="Oval-8-Copy-24" fill="#A6A6A6" fill-rule="evenodd" cx="512.5" cy="581.5" r="5.5"></circle>
                </g>
            </g>
        </g>
    </g>
</svg>