<?xml version="1.0" encoding="UTF-8"?>
<svg width="488px" height="508px" viewBox="0 0 488 508" version="1.1" xmlns="http://www.w3.org/2000/svg" xmlns:xlink="http://www.w3.org/1999/xlink">
    <!-- Generator: Sketch 47 (45396) - http://www.bohemiancoding.com/sketch -->
    <title>solution-diagram copy</title>
    <desc>Created with Sketch.</desc>
    <defs>
        <linearGradient x1="88.9832823%" y1="9.04993444%" x2="22.9020979%" y2="87.3320039%" id="linearGradient-1">
            <stop stop-color="#57D8F1" offset="0%"></stop>
            <stop stop-color="#194AAD" offset="100%"></stop>
        </linearGradient>
        <linearGradient x1="57.9334077%" y1="100%" x2="86.3504464%" y2="28.5365607%" id="linearGradient-2">
            <stop stop-color="#57D8F1" offset="0%"></stop>
            <stop stop-color="#194AAD" offset="100%"></stop>
        </linearGradient>
        <linearGradient x1="51.3867188%" y1="10.5123882%" x2="66.4350818%" y2="76.916287%" id="linearGradient-3">
            <stop stop-color="#57D8F1" offset="0%"></stop>
            <stop stop-color="#194AAD" offset="100%"></stop>
        </linearGradient>
        <linearGradient x1="150.979735%" y1="100%" x2="50%" y2="0%" id="linearGradient-4">
            <stop stop-color="#57D8F1" offset="0%"></stop>
            <stop stop-color="#194AAD" offset="100%"></stop>
        </linearGradient>
        <linearGradient x1="92.7110015%" y1="72.9172003%" x2="8.19992316%" y2="25.4498591%" id="linearGradient-5">
            <stop stop-color="#57D8F1" offset="0%"></stop>
            <stop stop-color="#194AAD" offset="100%"></stop>
        </linearGradient>
        <linearGradient x1="19.8042072%" y1="79.6642866%" x2="69.4439997%" y2="11.0847848%" id="linearGradient-6">
            <stop stop-color="#57D8F1" offset="0%"></stop>
            <stop stop-color="#194AAD" offset="100%"></stop>
        </linearGradient>
        <linearGradient x1="0%" y1="100%" x2="100%" y2="0%" id="linearGradient-7">
            <stop stop-color="#57D8F1" offset="0%"></stop>
            <stop stop-color="#194AAD" offset="100%"></stop>
        </linearGradient>
        <linearGradient x1="100%" y1="0%" x2="4.36547756%" y2="100%" id="linearGradient-8">
            <stop stop-color="#57D8F1" offset="0%"></stop>
            <stop stop-color="#194AAD" offset="100%"></stop>
        </linearGradient>
        <linearGradient x1="0%" y1="100%" x2="100%" y2="0%" id="linearGradient-9">
            <stop stop-color="#4CBEE4" offset="0%"></stop>
            <stop stop-color="#194AAD" offset="100%"></stop>
        </linearGradient>
        <linearGradient x1="1.5002182%" y1="98.421589%" x2="50%" y2="0%" id="linearGradient-10">
            <stop stop-color="#57D8F1" offset="0%"></stop>
            <stop stop-color="#194AAD" offset="100%"></stop>
        </linearGradient>
        <linearGradient x1="103.491475%" y1="71.4817579%" x2="24.1395236%" y2="-7.34545676%" id="linearGradient-11">
            <stop stop-color="#296EBE" offset="0%"></stop>
            <stop stop-color="#3A96D1" offset="100%"></stop>
        </linearGradient>
        <linearGradient x1="0%" y1="31.4147949%" x2="83.7280273%" y2="50%" id="linearGradient-12">
            <stop stop-color="#3C99D3" offset="0%"></stop>
            <stop stop-color="#3181C7" offset="100%"></stop>
        </linearGradient>
    </defs>
    <g id="Page-1" stroke="none" stroke-width="1" fill="none" fill-rule="evenodd">
        <g id="solution-diagram-copy">
            <path d="M147,1.15470054 L95.1724504,31.0773503 L95.1724504,90.9226497 L147,120.845299 L198.82755,90.9226497 L198.82755,31.0773503 L147,1.15470054 Z" id="Polygon-Copy" stroke="url(#linearGradient-1)" stroke-width="2"></path>
            <path d="M304.003269,91.1358702 L356,121.418751 L303.998058,151.28693 L303.998058,151.28693 C303.689646,151.464072 303.310354,151.464072 303.001942,151.28693 L251,121.418751 L302.996731,91.1358702 L302.996731,91.1358702 C303.307789,90.9547099 303.692211,90.9547099 304.003269,91.1358702 Z" id="Polygon-Copy-13" stroke="url(#linearGradient-2)" opacity="0.2" stroke-linecap="round" stroke-linejoin="round"></path>
            <path d="M304.003269,91.1358702 L356,121.418751 L303.998058,151.28693 L303.998058,151.28693 C303.689646,151.464072 303.310354,151.464072 303.001942,151.28693 L251,121.418751 L302.996731,91.1358702 L302.996731,91.1358702 C303.307789,90.9547099 303.692211,90.9547099 304.003269,91.1358702 Z" id="Polygon-Copy-13" stroke="url(#linearGradient-2)" opacity="0.2" stroke-linecap="round" stroke-linejoin="round"></path>
            <path d="M304.003269,333.13587 L356,363.418751 L304.005561,393.885402 L304.005561,393.885402 C303.693346,394.068348 303.306654,394.068348 302.994439,393.885402 L251,363.418751 L302.996731,333.13587 L302.996731,333.13587 C303.307789,332.95471 303.692211,332.95471 304.003269,333.13587 Z" id="Polygon-Copy-22" stroke="url(#linearGradient-3)" opacity="0.2" stroke-linecap="round" stroke-linejoin="round"></path>
            <path d="M199.003269,333.13587 L251,363.418751 L199.005561,393.885402 L199.005561,393.885402 C198.693346,394.068348 198.306654,394.068348 197.994439,393.885402 L146,363.418751 L197.996731,333.13587 L197.996731,333.13587 C198.307789,332.95471 198.692211,332.95471 199.003269,333.13587 Z" id="Polygon-Copy-23" stroke="url(#linearGradient-3)" opacity="0.2" stroke-linecap="round" stroke-linejoin="round"></path>
            <path d="M329.915804,136.497257 L379.920878,165.620198 L381.912535,166.780138 L329.910593,196.648317 L329.910593,196.648317 C329.602181,196.825459 329.222889,196.825459 328.914477,196.648317 L276.912535,166.780138 L328.909266,136.497257 L328.909266,136.497257 C329.220324,136.316097 329.604746,136.316097 329.915804,136.497257 Z" id="Polygon-Copy-13" stroke="url(#linearGradient-2)" opacity="0.2" stroke-linecap="round" stroke-linejoin="round" transform="translate(329.412535, 166.571280) rotate(-60.000000) translate(-329.412535, -166.571280) "></path>
            <path d="M382.915804,348.497257 L432.920878,377.620198 L434.912535,378.780138 L382.910593,408.648317 L382.910593,408.648317 C382.602181,408.825459 382.222889,408.825459 381.914477,408.648317 L329.912535,378.780138 L381.909266,348.497257 L381.909266,348.497257 C382.220324,348.316097 382.604746,348.316097 382.915804,348.497257 Z" id="Polygon-Copy-27" stroke="url(#linearGradient-2)" opacity="0.2" stroke-linecap="round" stroke-linejoin="round" transform="translate(382.412535, 378.571280) rotate(-60.000000) translate(-382.412535, -378.571280) "></path>
            <path d="M147.231321,121.137008 L197.451973,150.537438 L199.452207,151.708425 L147.226104,181.86118 L147.226104,181.86118 C146.916703,182.039813 146.535505,182.039813 146.226104,181.86118 L94,151.708425 L146.220886,121.137008 L146.220886,121.137008 C146.532928,120.954331 146.919279,120.954331 147.231321,121.137008 Z" id="Polygon-Copy-12" stroke="url(#linearGradient-4)" opacity="0.20238904" stroke-linecap="round" stroke-linejoin="round"></path>
            <path d="M146,243.154701 L94.1724504,273.07735 L94.1724504,332.92265 L146,362.845299 L197.82755,332.92265 L197.82755,273.07735 L146,243.154701 Z" id="Polygon-Copy-6" stroke="url(#linearGradient-1)" stroke-width="2"></path>
            <path d="M286.5,407 L286.476984,442.965792 C286.475247,443.828981 285.803821,444.499999 284.975749,444.499999 L240.999986,444.501212 C240.723844,444.50122 240.499992,444.725084 240.5,445.001226 C240.500008,445.277368 240.723871,445.50122 241.000014,445.501212 L284.975763,445.499999 C286.342779,445.499999 287.453661,444.402749 287.475424,443.040714 C287.476098,443.032095 287.48429,431.019035 287.5,407.001533 C287.5,405.619288 286.380712,404.5 285,404.5 C284.992136,404.5 270.325469,404.500404 241,404.501212 C240.723858,404.501212 240.5,404.72507 240.5,405.001212 C240.5,405.277355 240.723858,405.501212 241,405.501212 L285,405.501212 C285.844803,405.5165 286.5,406.181735 286.5,407 Z" id="Rectangle-10" fill="#2A5C96" fill-rule="nonzero"></path>
            <path d="M249.115234,432 L249.115234,425.896484 L255.355469,425.896484 L255.355469,424.333984 L249.115234,424.333984 L249.115234,419.490234 L255.912109,419.490234 L255.912109,417.908203 L247.357422,417.908203 L247.357422,432 L249.115234,432 Z M267.655859,430.417969 L260.683203,430.417969 L260.683203,425.574219 L267.294531,425.574219 L267.294531,424.011719 L260.683203,424.011719 L260.683203,419.490234 L267.655859,419.490234 L267.655859,417.908203 L258.925391,417.908203 L258.925391,432 L267.655859,432 L267.655859,430.417969 Z M279.712109,430.417969 L272.739453,430.417969 L272.739453,425.574219 L279.350781,425.574219 L279.350781,424.011719 L272.739453,424.011719 L272.739453,419.490234 L279.712109,419.490234 L279.712109,417.908203 L270.981641,417.908203 L270.981641,432 L279.712109,432 L279.712109,430.417969 Z" id="FEE" fill="#2A5C96"></path>
            <path d="M241.029794,420.805077 L231.386244,443.584768 C231.151379,444.139558 230.607379,444.5 230.004923,444.5 L219,444.5 C218.171573,444.5 217.5,443.828427 217.5,443 L217.5,407 C217.5,406.171573 218.171573,405.5 219,405.5 L245.490234,405.5 L245.490234,404.5 L219,404.5 C217.619288,404.5 216.5,405.619288 216.5,407 L216.5,443 C216.5,444.380712 217.619288,445.5 219,445.5 L230.004923,445.5 C231.009017,445.5 231.915683,444.899264 232.307124,443.974613 L241.950675,421.194923 L241.029794,420.805077 Z" id="Rectangle-10" fill="#2A5C96" fill-rule="nonzero"></path>
            <path d="M240.5,405 L240.5,409.00006 C240.5,409.276202 240.723858,409.50006 241,409.50006 C241.276142,409.50006 241.5,409.276202 241.5,409.00006 L241.5,405 C241.5,404.723858 241.276142,404.5 241,404.5 C240.723858,404.5 240.5,404.723858 240.5,405 Z M240.5,412.999402 L240.5,416.998765 C240.5,417.274907 240.723858,417.498765 241,417.498765 C241.276142,417.498765 241.5,417.274907 241.5,416.998765 L241.5,412.999402 C241.5,412.72326 241.276142,412.499402 241,412.499402 C240.723858,412.499402 240.5,412.72326 240.5,412.999402 Z M240.5,420.998706 L240.5,424.998846 C240.5,425.274989 240.723858,425.498846 241,425.498846 C241.276142,425.498846 241.5,425.274989 241.5,424.998846 L241.5,420.998706 C241.5,420.722564 241.276142,420.498706 241,420.498706 C240.723858,420.498706 240.5,420.722564 240.5,420.998706 Z M240.5,429.00106 L240.5,433.001128 C240.5,433.27727 240.723858,433.501128 241,433.501128 C241.276142,433.501128 241.5,433.27727 241.5,433.001128 L241.5,429.00106 C241.5,428.724917 241.276142,428.50106 241,428.50106 C240.723858,428.50106 240.5,428.724917 240.5,429.00106 Z M240.5,436.999779 L240.5,440.999693 C240.5,441.275836 240.723858,441.499693 241,441.499693 C241.276142,441.499693 241.5,441.275836 241.5,440.999693 L241.5,436.999779 C241.5,436.723636 241.276142,436.499779 241,436.499779 C240.723858,436.499779 240.5,436.723636 240.5,436.999779 Z" id="Line-6" fill="#2A5C96" fill-rule="nonzero"></path>
            <path d="M230.65,427.872 C230.65,430.308012 229.384013,431.526 226.852,431.526 L226.582,431.526 L226.33,433.596 C225.717997,433.56 225.412,433.518 225.412,433.47 L225.664,431.472 L223.09,431.148 L223.234,430.05 C224.158005,430.182001 225.015996,430.272 225.808,430.32 L226.402,425.82 C225.177994,425.531999 224.305003,425.163002 223.783,424.713 C223.260997,424.262998 223,423.522005 223,422.49 C223,420.365989 224.271987,419.304 226.816,419.304 C226.996001,419.304 227.134,419.31 227.23,419.322 L227.536,417 L228.454,417 L228.148,419.376 L230.398,419.646 L230.29,420.762 C229.461996,420.666 228.700003,420.588 228.004,420.528 L227.464,424.722 C228.628006,424.998001 229.449998,425.351998 229.93,425.784 C230.410002,426.216002 230.65,426.911995 230.65,427.872 Z M224.332,422.418 C224.332,423.066003 224.493998,423.527999 224.818,423.804 C225.142002,424.080001 225.723996,424.319999 226.564,424.524 L227.086,420.474 L226.906,420.474 C225.189991,420.474 224.332,421.121994 224.332,422.418 Z M229.318,427.962 C229.318,427.385997 229.168001,426.960001 228.868,426.684 C228.567998,426.407999 228.046004,426.180001 227.302,426 L226.744,430.356 L226.78,430.356 C228.472008,430.356 229.318,429.558008 229.318,427.962 Z" id="$" fill="#2A5C96"></path>
            <g id="Group-22" transform="translate(124.000000, 279.000000)" stroke="#2A5C96" stroke-linecap="round" stroke-linejoin="round">
                <path d="M21.6268215,0.470116105 L42.6,16.2 L42.6,16.2 C43.0418278,16.5313708 43.1313708,17.1581722 42.8,17.6 C42.6111456,17.8518058 42.3147573,18 42,18 L1.80140782,18 L1.80140782,18 C1.24912307,18 0.801407823,17.5522847 0.801407823,17 C0.801407823,16.7000669 0.936034599,16.4159717 1.16817003,16.2260427 L20.3935837,0.496158805 L20.3935837,0.496158805 C20.7497127,0.204780508 21.2587091,0.194031858 21.6268215,0.470116105 Z" id="Rectangle-11"></path>
                <path d="M1,40 L21.5058594,40 L43,40 L43,40 C43.5522847,40 44,40.4477153 44,41 L44,42 L44,42 C44,42.5522847 43.5522847,43 43,43 L1,43 L1,43 C0.44771525,43 6.76353751e-17,42.5522847 0,42 L0,41 L0,41 C-6.76353751e-17,40.4477153 0.44771525,40 1,40 Z" id="Rectangle-12"></path>
                <g id="Group-21" transform="translate(5.000000, 20.000000)">
                    <path d="M8,1 L6.07873535,1 M1.90722656,1 L0,1 M0,17 C0.802517361,17 1.45632595,17 1.96142578,17 M6.01855469,17 C6.41633198,17 7.07681375,17 8,17 M6,1 L6,17 M2,17 L2,1 L2,1" id="Combined-Shape-Copy-4"></path>
                    <path d="M21,1 L19,1 M15,1 L13,1 M13,17 C13.8183,17 14.4849667,17 15,17 M19,17 C19.4015022,17 20.0681688,17 21,17 M19,1 L19,17 M15,17 L15,1 L15,1" id="Combined-Shape-Copy-5"></path>
                    <path d="M34,1 L32.0787354,1 M27.9072266,1 L26,1 M26,17 C26.8025174,17 27.456326,17 27.9614258,17 M32.0185547,17 C32.416332,17 33.0768138,17 34,17 M32,1 L32,17 M28,17 L28,1 L28,1" id="Combined-Shape-Copy-6"></path>
                </g>
            </g>
            <g id="Group-15" transform="translate(133.000000, 37.000000)" stroke="#2A5C96">
                <path d="M22.65625,12.828604 C22.65625,8.32403146 19.0045725,4.67235395 14.5,4.67235395 C9.99542751,4.67235395 6.34375,8.32403146 6.34375,12.828604 C6.34375,17.3331764 9.99542751,20.984854 14.5,20.984854" id="Oval-2" stroke-linecap="round" transform="translate(14.500000, 12.828604) rotate(-91.000000) translate(-14.500000, -12.828604) "></path>
                <path d="M19.796396,12.6875 C19.796396,9.68445167 17.3619444,7.25 14.358896,7.25 C11.3558477,7.25 8.92139605,9.68445167 8.92139605,12.6875 C8.92139605,15.6905483 11.3558477,18.125 14.358896,18.125" id="Oval-2" stroke-linecap="round" transform="translate(14.358896, 12.687500) rotate(-270.000000) translate(-14.358896, -12.687500) "></path>
                <rect id="Rectangle-7" x="0" y="0" width="29" height="47.125" rx="3"></rect>
                <circle id="Oval-3" cx="14.5" cy="42.59375" r="1.8125"></circle>
                <path d="M5.4375,29.90625 L23.5625,29.90625" id="Line-3" stroke-linecap="round" stroke-linejoin="round"></path>
                <path d="M5.4375,33.53125 L16.0104167,33.53125 M19.03125,33.53125 L23.5625,33.53125" id="Line-3-Copy" stroke-linecap="round" stroke-linejoin="round"></path>
            </g>
            <g id="Group-16" transform="translate(337.000000, 38.000000)" stroke="#2A5C96">
                <path d="M0.57279597,1.66404074 C2.92072941,0.554680248 9.06313075,1.53715644e-15 19,0 C28.9369126,0 35.0793241,0.554685083 37.4272347,1.66405525 L37.4272225,1.66408112 C37.7769385,1.82931929 38,2.18142159 38,2.56820951 C38,4.78226266 38,9.25952616 38,16 C38,28.1933594 31.6666667,38.860026 19,48 C6.33333333,39.7330729 -8.88173338e-16,29.0664062 -8.88173338e-16,16 C-8.88173338e-16,9.52060381 -8.88173338e-16,5.04333957 -8.88173338e-16,2.56820727 L-1.01942581e-05,2.56820727 C-1.01942581e-05,2.18140176 0.223062939,1.82928393 0.57279597,1.66404074 Z" id="Rectangle-8" stroke-linecap="round" stroke-linejoin="round"></path>
                <path d="M3,5.26442982 L2.99999227,5.26442982 C2.99999227,4.86674077 3.23564203,4.50684885 3.60015802,4.3478373 L3.60015802,4.3478373 C5.66000109,3.4492791 10.7932817,3 19,3 C27.2066683,3 32.3399364,3.44927363 34.3998043,4.34782088 L34.3998149,4.34779669 C34.7643421,4.50680925 35,4.86671018 35,5.26440988" id="Rectangle-8" stroke-linecap="round" stroke-linejoin="round"></path>
                <path d="M15,19 L15,15.430867 C15,13.5360515 16.790861,12 19,12 C21.209139,12 23,13.5360515 23,15.430867 L23,19" id="Rectangle-9" stroke-linecap="round" stroke-linejoin="round"></path>
                <circle id="Oval-4" cx="19" cy="25" r="7"></circle>
                <circle id="Oval-4" cx="19" cy="25" r="3"></circle>
            </g>
            <path d="M418.106,56 L418.106,46.41 L424.056,46.41 L424.056,47.768 L419.66,47.768 L419.66,51.002 L423.314,51.002 L423.314,52.36 L419.66,52.36 L419.66,56 L418.106,56 Z M427.5035,52.584 L427.5035,56 L425.9495,56 L425.9495,46.41 L429.5895,46.41 C431.754844,46.41 432.8375,47.4273232 432.8375,49.462 C432.8375,50.8246735 432.314839,51.7486642 431.2695,52.234 L432.8515,56 L431.1435,56 L429.7575,52.584 L427.5035,52.584 Z M431.2415,49.476 C431.2415,48.3279943 430.690839,47.754 429.5895,47.754 L427.5035,47.754 L427.5035,51.24 L429.6175,51.24 C430.177503,51.24 430.588165,51.0790016 430.8495,50.757 C431.110835,50.4349984 431.2415,50.0080027 431.2415,49.476 Z M434.115,56 L436.481,46.41 L439.575,46.41 L441.955,56 L440.387,56 L439.869,53.942 L436.187,53.942 L435.669,56 L434.115,56 Z M437.685,47.712 L436.495,52.57 L439.561,52.57 L438.385,47.712 L437.685,47.712 Z M445.1645,52.934 C445.1645,54.1753395 445.817827,54.796 447.1245,54.796 C448.431173,54.796 449.0845,54.1753395 449.0845,52.934 L449.0845,46.41 L450.6525,46.41 L450.6525,52.906 C450.6525,54.035339 450.35617,54.8589974 449.7635,55.377 C449.17083,55.8950026 448.288839,56.154 447.1175,56.154 C445.946161,56.154 445.066503,55.8950026 444.4785,55.377 C443.890497,54.8589974 443.5965,54.035339 443.5965,52.906 L443.5965,46.41 L445.1645,46.41 L445.1645,52.934 Z M456.536,56 L453.218,56 L453.218,46.41 L456.536,46.41 C458.010674,46.41 459.018664,46.7833296 459.56,47.53 C460.101336,48.2766704 460.372,49.447992 460.372,51.044 C460.372,51.8560041 460.318334,52.5443305 460.211,53.109 C460.103666,53.6736695 459.914668,54.1846644 459.644,54.642 C459.111997,55.5473379 458.076008,56 456.536,56 Z M458.762,51.044 C458.762,49.8866609 458.617335,49.0513359 458.328,48.538 C458.038665,48.0246641 457.441338,47.768 456.536,47.768 L454.772,47.768 L454.772,54.628 L456.536,54.628 C457.460005,54.628 458.075998,54.2873367 458.384,53.606 C458.533334,53.2606649 458.633666,52.892002 458.685,52.5 C458.736334,52.107998 458.762,51.6226696 458.762,51.044 Z M419.66,73.584 L419.66,77 L418.106,77 L418.106,67.41 L421.746,67.41 C423.911344,67.41 424.994,68.4273232 424.994,70.462 C424.994,71.8246735 424.471339,72.7486642 423.426,73.234 L425.008,77 L423.3,77 L421.914,73.584 L419.66,73.584 Z M423.398,70.476 C423.398,69.3279943 422.847339,68.754 421.746,68.754 L419.66,68.754 L419.66,72.24 L421.774,72.24 C422.334003,72.24 422.744665,72.0790016 423.006,71.757 C423.267335,71.4349984 423.398,71.0080027 423.398,70.476 Z M427.1955,77 L427.1955,67.41 L433.2435,67.41 L433.2435,68.768 L428.7495,68.768 L428.7495,71.484 L432.4035,71.484 L432.4035,72.828 L428.7495,72.828 L428.7495,75.628 L433.2435,75.628 L433.2435,77 L427.1955,77 Z M438.189,68.614 C437.003661,68.614 436.411,69.0293292 436.411,69.86 C436.411,70.2893355 436.550999,70.5949991 436.831,70.777 C437.111001,70.9590009 437.729329,71.1829987 438.686,71.449 C439.642671,71.7150013 440.316998,72.0323315 440.709,72.401 C441.101002,72.7696685 441.297,73.3506627 441.297,74.144 C441.297,75.152005 441.010003,75.9056642 440.436,76.405 C439.861997,76.9043358 439.080338,77.154 438.091,77.154 C437.297663,77.154 436.420338,77.0606676 435.459,76.874 L434.955,76.776 L435.109,75.53 C436.369006,75.6980008 437.33033,75.782 437.993,75.782 C439.150339,75.782 439.729,75.2686718 439.729,74.242 C439.729,73.8406647 439.598335,73.5443343 439.337,73.353 C439.075665,73.1616657 438.487671,72.9516678 437.573,72.723 C436.658329,72.4943322 435.977002,72.1793353 435.529,71.778 C435.080998,71.3766647 434.857,70.7420043 434.857,69.874 C434.857,69.0059957 435.139331,68.3503355 435.704,67.907 C436.268669,67.4636644 437.050328,67.242 438.049,67.242 C438.76767,67.242 439.616995,67.3259992 440.597,67.494 L441.087,67.578 L440.961,68.838 C439.654327,68.6886659 438.730336,68.614 438.189,68.614 Z M443.4145,77 L443.4145,67.41 L444.9685,67.41 L444.9685,77 L443.4145,77 Z M450.432,68.614 C449.246661,68.614 448.654,69.0293292 448.654,69.86 C448.654,70.2893355 448.793999,70.5949991 449.074,70.777 C449.354001,70.9590009 449.972329,71.1829987 450.929,71.449 C451.885671,71.7150013 452.559998,72.0323315 452.952,72.401 C453.344002,72.7696685 453.54,73.3506627 453.54,74.144 C453.54,75.152005 453.253003,75.9056642 452.679,76.405 C452.104997,76.9043358 451.323338,77.154 450.334,77.154 C449.540663,77.154 448.663338,77.0606676 447.702,76.874 L447.198,76.776 L447.352,75.53 C448.612006,75.6980008 449.57333,75.782 450.236,75.782 C451.393339,75.782 451.972,75.2686718 451.972,74.242 C451.972,73.8406647 451.841335,73.5443343 451.58,73.353 C451.318665,73.1616657 450.730671,72.9516678 449.816,72.723 C448.901329,72.4943322 448.220002,72.1793353 447.772,71.778 C447.323998,71.3766647 447.1,70.7420043 447.1,69.874 C447.1,69.0059957 447.382331,68.3503355 447.947,67.907 C448.511669,67.4636644 449.293328,67.242 450.292,67.242 C451.01067,67.242 451.859995,67.3259992 452.84,67.494 L453.33,67.578 L453.204,68.838 C451.897327,68.6886659 450.973336,68.614 450.432,68.614 Z M454.7335,68.796 L454.7335,67.41 L461.7335,67.41 L461.7335,68.796 L459.0315,68.796 L459.0315,77 L457.4635,77 L457.4635,68.796 L454.7335,68.796 Z M462.059,77 L464.425,67.41 L467.519,67.41 L469.899,77 L468.331,77 L467.813,74.942 L464.131,74.942 L463.613,77 L462.059,77 Z M465.629,68.712 L464.439,73.57 L467.505,73.57 L466.329,68.712 L465.629,68.712 Z M471.7085,77 L471.7085,67.41 L474.4245,67.41 L477.3365,75.628 L477.5465,75.628 L477.5465,67.41 L479.1005,67.41 L479.1005,77 L476.4405,77 L473.4585,68.768 L473.2625,68.768 L473.2625,77 L471.7085,77 Z M480.826,68.796 L480.826,67.41 L487.826,67.41 L487.826,68.796 L485.124,68.796 L485.124,77 L483.556,77 L483.556,68.796 L480.826,68.796 Z" id="FRAUD-RESISTANT" fill="#2A5C96"></path>
            <path d="M4.326,67.154 C2.925993,67.154 1.97633583,66.7666705 1.477,65.992 C0.97766417,65.2173295 0.728,63.9433422 0.728,62.17 C0.728,60.3966578 0.97999748,59.1343371 1.484,58.383 C1.98800252,57.6316629 2.93532638,57.256 4.326,57.256 C5.15667082,57.256 6.07132834,57.3726655 7.07,57.606 L7.014,58.866 C6.1739958,58.7166659 5.3340042,58.642 4.494,58.642 C3.6539958,58.642 3.08466816,58.8916642 2.786,59.391 C2.48733184,59.8903358 2.338,60.8283264 2.338,62.205 C2.338,63.5816735 2.48266522,64.5196642 2.772,65.019 C3.06133478,65.5183358 3.6259958,65.768 4.466,65.768 C5.3060042,65.768 6.15532904,65.6980007 7.014,65.558 L7.056,66.846 C6.09466186,67.0513344 5.18467096,67.154 4.326,67.154 Z M10.7135,64.97 C11.0308349,65.5206694 11.6374955,65.796 12.5335,65.796 C13.4295045,65.796 14.0338318,65.525336 14.3465,64.984 C14.6591682,64.442664 14.8155,63.5350064 14.8155,62.261 C14.8155,60.9869936 14.6545016,60.0606696 14.3325,59.482 C14.0104984,58.9033304 13.4108377,58.614 12.5335,58.614 C11.6561623,58.614 11.0541683,58.9033304 10.7275,59.482 C10.4008317,60.0606696 10.2375,60.982327 10.2375,62.247 C10.2375,63.511673 10.3961651,64.4193306 10.7135,64.97 Z M15.5575,65.978 C14.9881638,66.7620039 13.9801739,67.154 12.5335,67.154 C11.0868261,67.154 10.0741696,66.7596706 9.4955,65.971 C8.91683044,65.1823294 8.6275,63.9433418 8.6275,62.254 C8.6275,60.5646582 8.91916375,59.3093374 9.5025,58.488 C10.0858363,57.6666626 11.0961595,57.256 12.5335,57.256 C13.9708405,57.256 14.9788304,57.6643293 15.5575,58.481 C16.1361696,59.2976708 16.4255,60.5553248 16.4255,62.254 C16.4255,63.9526752 16.1361696,65.1939961 15.5575,65.978 Z M18.669,67 L18.669,57.41 L21.385,57.41 L24.297,65.628 L24.507,65.628 L24.507,57.41 L26.061,57.41 L26.061,67 L23.401,67 L20.419,58.768 L20.223,58.768 L20.223,67 L18.669,67 Z M34.0165,57.41 L35.6405,57.41 L33.2885,67 L30.2365,67 L27.8845,57.41 L29.5085,57.41 L31.4125,65.628 L32.1125,65.628 L34.0165,57.41 Z M37.464,67 L37.464,57.41 L43.512,57.41 L43.512,58.768 L39.018,58.768 L39.018,61.484 L42.672,61.484 L42.672,62.828 L39.018,62.828 L39.018,65.628 L43.512,65.628 L43.512,67 L37.464,67 Z M45.6435,67 L45.6435,57.41 L48.3595,57.41 L51.2715,65.628 L51.4815,65.628 L51.4815,57.41 L53.0355,57.41 L53.0355,67 L50.3755,67 L47.3935,58.768 L47.1975,58.768 L47.1975,67 L45.6435,67 Z M55.685,67 L55.685,57.41 L57.239,57.41 L57.239,67 L55.685,67 Z M59.8885,67 L59.8885,57.41 L65.9365,57.41 L65.9365,58.768 L61.4425,58.768 L61.4425,61.484 L65.0965,61.484 L65.0965,62.828 L61.4425,62.828 L61.4425,65.628 L65.9365,65.628 L65.9365,67 L59.8885,67 Z M68.068,67 L68.068,57.41 L70.784,57.41 L73.696,65.628 L73.906,65.628 L73.906,57.41 L75.46,57.41 L75.46,67 L72.8,67 L69.818,58.768 L69.622,58.768 L69.622,67 L68.068,67 Z M77.1855,58.796 L77.1855,57.41 L84.1855,57.41 L84.1855,58.796 L81.4835,58.796 L81.4835,67 L79.9155,67 L79.9155,58.796 L77.1855,58.796 Z" id="CONVENIENT" fill="#2A5C96"></path>
            <path d="M27.482,307 L22.106,307 L22.106,297.41 L23.66,297.41 L23.66,305.614 L27.482,305.614 L27.482,307 Z M29.1935,307 L29.1935,297.41 L30.7475,297.41 L30.7475,307 L29.1935,307 Z M36.617,307.154 C35.216993,307.154 34.2673358,306.766671 33.768,305.992 C33.2686642,305.217329 33.019,303.943342 33.019,302.17 C33.019,300.396658 33.2709975,299.134337 33.775,298.383 C34.2790025,297.631663 35.2263264,297.256 36.617,297.256 C37.4476708,297.256 38.3623283,297.372665 39.361,297.606 L39.305,298.866 C38.4649958,298.716666 37.6250042,298.642 36.785,298.642 C35.9449958,298.642 35.3756682,298.891664 35.077,299.391 C34.7783318,299.890336 34.629,300.828326 34.629,302.205 C34.629,303.581674 34.7736652,304.519664 35.063,305.019 C35.3523348,305.518336 35.9169958,305.768 36.757,305.768 C37.5970042,305.768 38.446329,305.698001 39.305,305.558 L39.347,306.846 C38.3856619,307.051334 37.475671,307.154 36.617,307.154 Z M41.4505,307 L41.4505,297.41 L47.4985,297.41 L47.4985,298.768 L43.0045,298.768 L43.0045,301.484 L46.6585,301.484 L46.6585,302.828 L43.0045,302.828 L43.0045,305.628 L47.4985,305.628 L47.4985,307 L41.4505,307 Z M49.63,307 L49.63,297.41 L52.346,297.41 L55.258,305.628 L55.468,305.628 L55.468,297.41 L57.022,297.41 L57.022,307 L54.362,307 L51.38,298.768 L51.184,298.768 L51.184,307 L49.63,307 Z M62.4855,298.614 C61.3001607,298.614 60.7075,299.029329 60.7075,299.86 C60.7075,300.289335 60.8474986,300.594999 61.1275,300.777 C61.4075014,300.959001 62.0258286,301.182999 62.9825,301.449 C63.9391715,301.715001 64.613498,302.032331 65.0055,302.401 C65.397502,302.769669 65.5935,303.350663 65.5935,304.144 C65.5935,305.152005 65.3065029,305.905664 64.7325,306.405 C64.1584971,306.904336 63.3768383,307.154 62.3875,307.154 C61.5941627,307.154 60.7168381,307.060668 59.7555,306.874 L59.2515,306.776 L59.4055,305.53 C60.6655063,305.698001 61.62683,305.782 62.2895,305.782 C63.4468391,305.782 64.0255,305.268672 64.0255,304.242 C64.0255,303.840665 63.8948346,303.544334 63.6335,303.353 C63.3721654,303.161666 62.7841712,302.951668 61.8695,302.723 C60.9548288,302.494332 60.2735022,302.179335 59.8255,301.778 C59.3774978,301.376665 59.1535,300.742004 59.1535,299.874 C59.1535,299.005996 59.4358305,298.350336 60.0005,297.907 C60.5651695,297.463664 61.3468283,297.242 62.3455,297.242 C63.0641703,297.242 63.9134951,297.325999 64.8935,297.494 L65.3835,297.578 L65.2575,298.838 C63.9508268,298.688666 63.026836,298.614 62.4855,298.614 Z M67.711,307 L67.711,297.41 L73.759,297.41 L73.759,298.768 L69.265,298.768 L69.265,301.484 L72.919,301.484 L72.919,302.828 L69.265,302.828 L69.265,305.628 L73.759,305.628 L73.759,307 L67.711,307 Z M79.2085,307 L75.8905,307 L75.8905,297.41 L79.2085,297.41 C80.683174,297.41 81.691164,297.78333 82.2325,298.53 C82.773836,299.27667 83.0445,300.447992 83.0445,302.044 C83.0445,302.856004 82.9908339,303.544331 82.8835,304.109 C82.7761661,304.673669 82.587168,305.184664 82.3165,305.642 C81.7844973,306.547338 80.7485077,307 79.2085,307 Z M81.4345,302.044 C81.4345,300.886661 81.2898348,300.051336 81.0005,299.538 C80.7111652,299.024664 80.1138379,298.768 79.2085,298.768 L77.4445,298.768 L77.4445,305.628 L79.2085,305.628 C80.1325046,305.628 80.7484985,305.287337 81.0565,304.606 C81.2058341,304.260665 81.3061664,303.892002 81.3575,303.5 C81.4088336,303.107998 81.4345,302.62267 81.4345,302.044 Z" id="LICENSED" fill="#2A5C96"></path>
            <path d="M418.106,307 L418.106,297.41 L419.66,297.41 L419.66,307 L418.106,307 Z M422.3095,307 L422.3095,297.41 L425.0255,297.41 L427.9375,305.628 L428.1475,305.628 L428.1475,297.41 L429.7015,297.41 L429.7015,307 L427.0415,307 L424.0595,298.768 L423.8635,298.768 L423.8635,307 L422.3095,307 Z M435.165,298.614 C433.979661,298.614 433.387,299.029329 433.387,299.86 C433.387,300.289335 433.526999,300.594999 433.807,300.777 C434.087001,300.959001 434.705329,301.182999 435.662,301.449 C436.618671,301.715001 437.292998,302.032331 437.685,302.401 C438.077002,302.769669 438.273,303.350663 438.273,304.144 C438.273,305.152005 437.986003,305.905664 437.412,306.405 C436.837997,306.904336 436.056338,307.154 435.067,307.154 C434.273663,307.154 433.396338,307.060668 432.435,306.874 L431.931,306.776 L432.085,305.53 C433.345006,305.698001 434.30633,305.782 434.969,305.782 C436.126339,305.782 436.705,305.268672 436.705,304.242 C436.705,303.840665 436.574335,303.544334 436.313,303.353 C436.051665,303.161666 435.463671,302.951668 434.549,302.723 C433.634329,302.494332 432.953002,302.179335 432.505,301.778 C432.056998,301.376665 431.833,300.742004 431.833,299.874 C431.833,299.005996 432.115331,298.350336 432.68,297.907 C433.244669,297.463664 434.026328,297.242 435.025,297.242 C435.74367,297.242 436.592995,297.325999 437.573,297.494 L438.063,297.578 L437.937,298.838 C436.630327,298.688666 435.706336,298.614 435.165,298.614 Z M439.4665,298.796 L439.4665,297.41 L446.4665,297.41 L446.4665,298.796 L443.7645,298.796 L443.7645,307 L442.1965,307 L442.1965,298.796 L439.4665,298.796 Z M446.792,307 L449.158,297.41 L452.252,297.41 L454.632,307 L453.064,307 L452.546,304.942 L448.864,304.942 L448.346,307 L446.792,307 Z M450.362,298.712 L449.172,303.57 L452.238,303.57 L451.062,298.712 L450.362,298.712 Z M456.4415,307 L456.4415,297.41 L459.1575,297.41 L462.0695,305.628 L462.2795,305.628 L462.2795,297.41 L463.8335,297.41 L463.8335,307 L461.1735,307 L458.1915,298.768 L457.9955,298.768 L457.9955,307 L456.4415,307 Z M465.559,298.796 L465.559,297.41 L472.559,297.41 L472.559,298.796 L469.857,298.796 L469.857,307 L468.289,307 L468.289,298.796 L465.559,298.796 Z" id="INSTANT" fill="#2A5C96"></path>
            <path d="M205.18375,254.796 L205.18375,253.41 L212.18375,253.41 L212.18375,254.796 L209.48175,254.796 L209.48175,263 L207.91375,263 L207.91375,254.796 L205.18375,254.796 Z M215.46325,259.584 L215.46325,263 L213.90925,263 L213.90925,253.41 L217.54925,253.41 C219.714594,253.41 220.79725,254.427323 220.79725,256.462 C220.79725,257.824673 220.274589,258.748664 219.22925,259.234 L220.81125,263 L219.10325,263 L217.71725,259.584 L215.46325,259.584 Z M219.20125,256.476 C219.20125,255.327994 218.650589,254.754 217.54925,254.754 L215.46325,254.754 L215.46325,258.24 L217.57725,258.24 C218.137253,258.24 218.547915,258.079002 218.80925,257.757 C219.070585,257.434998 219.20125,257.008003 219.20125,256.476 Z M224.48275,259.934 C224.48275,261.17534 225.136077,261.796 226.44275,261.796 C227.749423,261.796 228.40275,261.17534 228.40275,259.934 L228.40275,253.41 L229.97075,253.41 L229.97075,259.906 C229.97075,261.035339 229.67442,261.858997 229.08175,262.377 C228.48908,262.895003 227.607089,263.154 226.43575,263.154 C225.264411,263.154 224.384753,262.895003 223.79675,262.377 C223.208747,261.858997 222.91475,261.035339 222.91475,259.906 L222.91475,253.41 L224.48275,253.41 L224.48275,259.934 Z M235.35025,254.614 C234.164911,254.614 233.57225,255.029329 233.57225,255.86 C233.57225,256.289335 233.712249,256.594999 233.99225,256.777 C234.272251,256.959001 234.890579,257.182999 235.84725,257.449 C236.803921,257.715001 237.478248,258.032331 237.87025,258.401 C238.262252,258.769669 238.45825,259.350663 238.45825,260.144 C238.45825,261.152005 238.171253,261.905664 237.59725,262.405 C237.023247,262.904336 236.241588,263.154 235.25225,263.154 C234.458913,263.154 233.581588,263.060668 232.62025,262.874 L232.11625,262.776 L232.27025,261.53 C233.530256,261.698001 234.49158,261.782 235.15425,261.782 C236.311589,261.782 236.89025,261.268672 236.89025,260.242 C236.89025,259.840665 236.759585,259.544334 236.49825,259.353 C236.236915,259.161666 235.648921,258.951668 234.73425,258.723 C233.819579,258.494332 233.138252,258.179335 232.69025,257.778 C232.242248,257.376665 232.01825,256.742004 232.01825,255.874 C232.01825,255.005996 232.300581,254.350336 232.86525,253.907 C233.429919,253.463664 234.211578,253.242 235.21025,253.242 C235.92892,253.242 236.778245,253.325999 237.75825,253.494 L238.24825,253.578 L238.12225,254.838 C236.815577,254.688666 235.891586,254.614 235.35025,254.614 Z M239.65175,254.796 L239.65175,253.41 L246.65175,253.41 L246.65175,254.796 L243.94975,254.796 L243.94975,263 L242.38175,263 L242.38175,254.796 L239.65175,254.796 Z M247.28525,259.92 L247.28525,258.534 L251.47125,258.534 L251.47125,259.92 L247.28525,259.92 Z M253.86875,253.41 L257.50875,253.41 C258.488755,253.41 259.221414,253.608331 259.70675,254.005 C260.192086,254.401669 260.43475,255.033996 260.43475,255.902 C260.43475,256.471336 260.343751,256.919332 260.16175,257.246 C259.979749,257.572668 259.692752,257.843332 259.30075,258.058 C260.215421,258.412668 260.67275,259.154661 260.67275,260.284 C260.67275,262.094676 259.655427,263 257.62075,263 L253.86875,263 L253.86875,253.41 Z M257.50875,258.814 L255.42275,258.814 L255.42275,261.656 L257.53675,261.656 C258.050086,261.656 258.435082,261.548668 258.69175,261.334 C258.948418,261.119332 259.07675,260.750669 259.07675,260.228 C259.07675,259.705331 258.927418,259.339001 258.62875,259.129 C258.330082,258.918999 257.956752,258.814 257.50875,258.814 Z M257.42475,254.754 L255.42275,254.754 L255.42275,257.498 L257.48075,257.498 C258.395421,257.498 258.85275,257.026671 258.85275,256.084 C258.85275,255.197329 258.376755,254.754 257.42475,254.754 Z M261.92225,263 L264.28825,253.41 L267.38225,253.41 L269.76225,263 L268.19425,263 L267.67625,260.942 L263.99425,260.942 L263.47625,263 L261.92225,263 Z M265.49225,254.712 L264.30225,259.57 L267.36825,259.57 L266.19225,254.712 L265.49225,254.712 Z M274.28775,254.614 C273.102411,254.614 272.50975,255.029329 272.50975,255.86 C272.50975,256.289335 272.649749,256.594999 272.92975,256.777 C273.209751,256.959001 273.828079,257.182999 274.78475,257.449 C275.741421,257.715001 276.415748,258.032331 276.80775,258.401 C277.199752,258.769669 277.39575,259.350663 277.39575,260.144 C277.39575,261.152005 277.108753,261.905664 276.53475,262.405 C275.960747,262.904336 275.179088,263.154 274.18975,263.154 C273.396413,263.154 272.519088,263.060668 271.55775,262.874 L271.05375,262.776 L271.20775,261.53 C272.467756,261.698001 273.42908,261.782 274.09175,261.782 C275.249089,261.782 275.82775,261.268672 275.82775,260.242 C275.82775,259.840665 275.697085,259.544334 275.43575,259.353 C275.174415,259.161666 274.586421,258.951668 273.67175,258.723 C272.757079,258.494332 272.075752,258.179335 271.62775,257.778 C271.179748,257.376665 270.95575,256.742004 270.95575,255.874 C270.95575,255.005996 271.238081,254.350336 271.80275,253.907 C272.367419,253.463664 273.149078,253.242 274.14775,253.242 C274.86642,253.242 275.715745,253.325999 276.69575,253.494 L277.18575,253.578 L277.05975,254.838 C275.753077,254.688666 274.829086,254.614 274.28775,254.614 Z M279.51325,263 L279.51325,253.41 L285.56125,253.41 L285.56125,254.768 L281.06725,254.768 L281.06725,257.484 L284.72125,257.484 L284.72125,258.828 L281.06725,258.828 L281.06725,261.628 L285.56125,261.628 L285.56125,263 L279.51325,263 Z M291.01075,263 L287.69275,263 L287.69275,253.41 L291.01075,253.41 C292.485424,253.41 293.493414,253.78333 294.03475,254.53 C294.576086,255.27667 294.84675,256.447992 294.84675,258.044 C294.84675,258.856004 294.793084,259.544331 294.68575,260.109 C294.578416,260.673669 294.389418,261.184664 294.11875,261.642 C293.586747,262.547338 292.550758,263 291.01075,263 Z M293.23675,258.044 C293.23675,256.886661 293.092085,256.051336 292.80275,255.538 C292.513415,255.024664 291.916088,254.768 291.01075,254.768 L289.24675,254.768 L289.24675,261.628 L291.01075,261.628 C291.934755,261.628 292.550748,261.287337 292.85875,260.606 C293.008084,260.260665 293.108416,259.892002 293.15975,259.5 C293.211084,259.107998 293.23675,258.62267 293.23675,258.044 Z" id="TRUST-BASED" fill="#2A5C96"></path>
            <path d="M190.901,498.768 L190.901,497.41 L197.201,497.41 L197.201,498.908 L192.749,505.376 L192.749,505.642 L197.201,505.642 L197.201,507 L190.901,507 L190.901,505.516 L195.339,499.048 L195.339,498.768 L190.901,498.768 Z M199.3325,507 L199.3325,497.41 L205.3805,497.41 L205.3805,498.768 L200.8865,498.768 L200.8865,501.484 L204.5405,501.484 L204.5405,502.828 L200.8865,502.828 L200.8865,505.628 L205.3805,505.628 L205.3805,507 L199.3325,507 Z M209.066,503.584 L209.066,507 L207.512,507 L207.512,497.41 L211.152,497.41 C213.317344,497.41 214.4,498.427323 214.4,500.462 C214.4,501.824673 213.877339,502.748664 212.832,503.234 L214.414,507 L212.706,507 L211.32,503.584 L209.066,503.584 Z M212.804,500.476 C212.804,499.327994 212.253339,498.754 211.152,498.754 L209.066,498.754 L209.066,502.24 L211.18,502.24 C211.740003,502.24 212.150665,502.079002 212.412,501.757 C212.673335,501.434998 212.804,501.008003 212.804,500.476 Z M218.2675,504.97 C218.584835,505.520669 219.191496,505.796 220.0875,505.796 C220.983504,505.796 221.587832,505.525336 221.9005,504.984 C222.213168,504.442664 222.3695,503.535006 222.3695,502.261 C222.3695,500.986994 222.208502,500.06067 221.8865,499.482 C221.564498,498.90333 220.964838,498.614 220.0875,498.614 C219.210162,498.614 218.608168,498.90333 218.2815,499.482 C217.954832,500.06067 217.7915,500.982327 217.7915,502.247 C217.7915,503.511673 217.950165,504.419331 218.2675,504.97 Z M223.1115,505.978 C222.542164,506.762004 221.534174,507.154 220.0875,507.154 C218.640826,507.154 217.62817,506.759671 217.0495,505.971 C216.47083,505.182329 216.1815,503.943342 216.1815,502.254 C216.1815,500.564658 216.473164,499.309337 217.0565,498.488 C217.639836,497.666663 218.650159,497.256 220.0875,497.256 C221.524841,497.256 222.53283,497.664329 223.1115,498.481 C223.69017,499.297671 223.9795,500.555325 223.9795,502.254 C223.9795,503.952675 223.69017,505.193996 223.1115,505.978 Z M225.971,503.92 L225.971,502.534 L230.157,502.534 L230.157,503.92 L225.971,503.92 Z M230.7905,498.796 L230.7905,497.41 L237.7905,497.41 L237.7905,498.796 L235.0885,498.796 L235.0885,507 L233.5205,507 L233.5205,498.796 L230.7905,498.796 Z M241.014,504.97 C241.331335,505.520669 241.937996,505.796 242.834,505.796 C243.730004,505.796 244.334332,505.525336 244.647,504.984 C244.959668,504.442664 245.116,503.535006 245.116,502.261 C245.116,500.986994 244.955002,500.06067 244.633,499.482 C244.310998,498.90333 243.711338,498.614 242.834,498.614 C241.956662,498.614 241.354668,498.90333 241.028,499.482 C240.701332,500.06067 240.538,500.982327 240.538,502.247 C240.538,503.511673 240.696665,504.419331 241.014,504.97 Z M245.858,505.978 C245.288664,506.762004 244.280674,507.154 242.834,507.154 C241.387326,507.154 240.37467,506.759671 239.796,505.971 C239.21733,505.182329 238.928,503.943342 238.928,502.254 C238.928,500.564658 239.219664,499.309337 239.803,498.488 C240.386336,497.666663 241.396659,497.256 242.834,497.256 C244.271341,497.256 245.27933,497.664329 245.858,498.481 C246.43667,499.297671 246.726,500.555325 246.726,502.254 C246.726,503.952675 246.43667,505.193996 245.858,505.978 Z M248.7175,503.92 L248.7175,502.534 L252.9035,502.534 L252.9035,503.92 L248.7175,503.92 Z M260.677,507 L255.301,507 L255.301,497.41 L256.855,497.41 L256.855,505.614 L260.677,505.614 L260.677,507 Z M263.8865,504.97 C264.203835,505.520669 264.810496,505.796 265.7065,505.796 C266.602504,505.796 267.206832,505.525336 267.5195,504.984 C267.832168,504.442664 267.9885,503.535006 267.9885,502.261 C267.9885,500.986994 267.827502,500.06067 267.5055,499.482 C267.183498,498.90333 266.583838,498.614 265.7065,498.614 C264.829162,498.614 264.227168,498.90333 263.9005,499.482 C263.573832,500.06067 263.4105,500.982327 263.4105,502.247 C263.4105,503.511673 263.569165,504.419331 263.8865,504.97 Z M268.7305,505.978 C268.161164,506.762004 267.153174,507.154 265.7065,507.154 C264.259826,507.154 263.24717,506.759671 262.6685,505.971 C262.08983,505.182329 261.8005,503.943342 261.8005,502.254 C261.8005,500.564658 262.092164,499.309337 262.6755,498.488 C263.258836,497.666663 264.269159,497.256 265.7065,497.256 C267.143841,497.256 268.15183,497.664329 268.7305,498.481 C269.30917,499.297671 269.5985,500.555325 269.5985,502.254 C269.5985,503.952675 269.30917,505.193996 268.7305,505.978 Z M271.072,497.41 L272.71,497.41 L274.082,505.656 L274.376,505.656 L276.196,497.438 L278.016,497.438 L279.836,505.656 L280.144,505.656 L281.516,497.41 L283.154,497.41 L281.264,507 L278.758,507 L277.106,499.314 L275.468,507 L272.948,507 L271.072,497.41 Z M288.551,507 L288.551,497.41 L294.501,497.41 L294.501,498.768 L290.105,498.768 L290.105,502.002 L293.759,502.002 L293.759,503.36 L290.105,503.36 L290.105,507 L288.551,507 Z M296.3945,507 L296.3945,497.41 L302.4425,497.41 L302.4425,498.768 L297.9485,498.768 L297.9485,501.484 L301.6025,501.484 L301.6025,502.828 L297.9485,502.828 L297.9485,505.628 L302.4425,505.628 L302.4425,507 L296.3945,507 Z M304.574,507 L304.574,497.41 L310.622,497.41 L310.622,498.768 L306.128,498.768 L306.128,501.484 L309.782,501.484 L309.782,502.828 L306.128,502.828 L306.128,505.628 L310.622,505.628 L310.622,507 L304.574,507 Z M315.5675,498.614 C314.382161,498.614 313.7895,499.029329 313.7895,499.86 C313.7895,500.289335 313.929499,500.594999 314.2095,500.777 C314.489501,500.959001 315.107829,501.182999 316.0645,501.449 C317.021171,501.715001 317.695498,502.032331 318.0875,502.401 C318.479502,502.769669 318.6755,503.350663 318.6755,504.144 C318.6755,505.152005 318.388503,505.905664 317.8145,506.405 C317.240497,506.904336 316.458838,507.154 315.4695,507.154 C314.676163,507.154 313.798838,507.060668 312.8375,506.874 L312.3335,506.776 L312.4875,505.53 C313.747506,505.698001 314.70883,505.782 315.3715,505.782 C316.528839,505.782 317.1075,505.268672 317.1075,504.242 C317.1075,503.840665 316.976835,503.544334 316.7155,503.353 C316.454165,503.161666 315.866171,502.951668 314.9515,502.723 C314.036829,502.494332 313.355502,502.179335 312.9075,501.778 C312.459498,501.376665 312.2355,500.742004 312.2355,499.874 C312.2355,499.005996 312.517831,498.350336 313.0825,497.907 C313.647169,497.463664 314.428828,497.242 315.4275,497.242 C316.14617,497.242 316.995495,497.325999 317.9755,497.494 L318.4655,497.578 L318.3395,498.838 C317.032827,498.688666 316.108836,498.614 315.5675,498.614 Z" id="ZERO-TO-LOW-FEES" fill="#2A5C96"></path>
            <path d="M251,122.154701 L199.17245,152.07735 L199.17245,211.92265 L251,241.845299 L302.82755,211.92265 L302.82755,152.07735 L251,122.154701 Z" id="Polygon-Copy-2" stroke="url(#linearGradient-1)" stroke-width="2"></path>
            <g id="Group-19" transform="translate(220.000000, 153.000000)" stroke="#2A5C96">
                <g id="Group-18" transform="translate(7.000000, 26.000000)">
                    <rect id="Rectangle-10-Copy" transform="translate(7.071068, 7.071068) rotate(-45.000000) translate(-7.071068, -7.071068) " x="0.0710678119" y="4.07106781" width="14" height="6" rx="3"></rect>
                    <path d="M12.2781746,13.5710678 L18.863961,13.5710678 L18.863961,13.5710678 C20.5208153,13.5710678 21.863961,14.9142136 21.863961,16.5710678 L21.863961,16.5710678 L21.863961,16.5710678 C21.863961,18.2279221 20.5208153,19.5710678 18.863961,19.5710678 L12.2781746,19.5710678 L12.2781746,19.5710678 C10.6213203,19.5710678 9.27817459,18.2279221 9.27817459,16.5710678 L9.27817459,16.5710678 L9.27817459,16.5710678 C9.27817459,14.9142136 10.6213203,13.5710678 12.2781746,13.5710678 Z" id="Rectangle-10-Copy-3" transform="translate(15.571068, 16.571068) rotate(-45.000000) translate(-15.571068, -16.571068) "></path>
                    <path d="M19.6923882,16.5710678 L23.4497475,16.5710678 L23.4497475,16.5710678 C25.1066017,16.5710678 26.4497475,17.9142136 26.4497475,19.5710678 L26.4497475,19.5710678 L26.4497475,19.5710678 C26.4497475,21.2279221 25.1066017,22.5710678 23.4497475,22.5710678 L19.6923882,22.5710678 L19.6923882,22.5710678 C18.0355339,22.5710678 16.6923882,21.2279221 16.6923882,19.5710678 L16.6923882,19.5710678 L16.6923882,19.5710678 C16.6923882,17.9142136 18.0355339,16.5710678 19.6923882,16.5710678 Z" id="Rectangle-10-Copy-4" transform="translate(21.571068, 19.571068) rotate(-45.000000) translate(-21.571068, -19.571068) "></path>
                    <path d="M5.65685425,9.07106781 L16.4852814,9.07106781 L16.4852814,9.07106781 C18.1421356,9.07106781 19.4852814,10.4142136 19.4852814,12.0710678 L19.4852814,12.0710678 L19.4852814,12.0710678 C19.4852814,13.7279221 18.1421356,15.0710678 16.4852814,15.0710678 L5.65685425,15.0710678 L5.65685425,15.0710678 C4,15.0710678 2.65685425,13.7279221 2.65685425,12.0710678 L2.65685425,12.0710678 L2.65685425,12.0710678 C2.65685425,10.4142136 4,9.07106781 5.65685425,9.07106781 Z" id="Rectangle-10-Copy-2" transform="translate(11.071068, 12.071068) rotate(-45.000000) translate(-11.071068, -12.071068) "></path>
                </g>
                <path d="M31.5096599,15.9081169 L43.1923882,15.9081169 L49.3847763,15.9081169 C51.0416306,15.9081169 52.3847763,17.2512627 52.3847763,18.9081169 C52.3847763,20.5649712 51.0416306,21.9081169 49.3847763,21.9081169 L39.5251263,21.9081169 L39.5251263,21.9081169 C39.4246212,21.9081169 39.3431458,21.9895924 39.3431458,22.0900974 L39.3431458,22.0900974 L39.3431458,22.0900974 C39.3431458,22.1906025 39.4246212,22.2720779 39.5251263,22.2720779 L51.5060967,22.2720779 C53.1629509,22.2720779 54.5060967,23.6152237 54.5060967,25.2720779 C54.5060967,26.9289322 53.1629509,28.2720779 51.5060967,28.2720779 L39.5251263,28.2720779 L39.5251263,28.2720779 C39.4246212,28.2720779 39.3431458,28.3535534 39.3431458,28.4540585 L39.3431458,28.4540585 L39.3431458,28.4540585 C39.3431458,28.5545635 39.4246212,28.636039 39.5251263,28.636039 L49.3847763,28.636039 C51.0416306,28.636039 52.3847763,29.9791847 52.3847763,31.636039 C52.3847763,33.2928932 51.0416306,34.636039 49.3847763,34.636039 L45.1819805,34.636039 L45.1819805,34.636039 C45.0814755,34.636039 45,34.7175144 45,34.8180195 L45,34.8180195 L45,34.8180195 C45,34.9185245 45.0814755,35 45.1819805,35 L47.263456,35 C48.9203102,35 50.263456,36.3431458 50.263456,38 C50.263456,39.6568542 48.9203102,41 47.263456,41 L46.3345238,41 M16.0665583,40.9947868 C13.1468371,40.9947868 9.31991315,40.9947868 4.58578644,40.9947868 C2.92893219,40.9947868 1.58578644,39.6516411 1.58578644,37.9947868 L1.58578644,28.0489368 C1.58578737,26.5342882 2.7148288,25.2572219 4.21805549,25.0715608 C7.65811751,24.6466842 10.0297179,24.0007603 11.3328568,23.1337891 C12.5754556,22.3070947 13.7363718,20.6874286 14.8156054,18.2747907 C15.2569451,17.2881604 16.06736,16.5423806 17.0413235,16.1706642" id="Combined-Shape" stroke-linecap="round" stroke-linejoin="round" transform="translate(28.045942, 28.454058) rotate(-315.000000) translate(-28.045942, -28.454058) "></path>
                <path d="M43.4719456,32.5708359 L31.0875963,32.6529205 L31.0875963,32.6529205 C29.4307785,32.663902 28.0787599,31.3296881 28.0677784,29.6728702 C28.0677345,29.6662424 28.0677125,29.6596144 28.0677125,29.6529864 L28.0677125,19.7270866 L28.0677134,19.7270866 C28.0677134,18.2124379 29.1967549,16.9353716 30.6999816,16.7497105 C34.1400436,16.324834 36.511644,15.6789101 37.8147828,14.8119388 C39.074105,13.9741185 40.2495311,12.3218387 41.3410611,9.85509943 L41.3410616,9.85509964 C41.9570576,8.46301562 43.3098285,7.54124993 44.8307665,7.47724669 L44.8307665,7.47724669 L53.6337186,7.10680592 L53.6337208,7.10685894 C55.5172762,7.02759625 57.1084545,8.49026441 57.1877172,10.3738197 C57.2506439,11.8691745 56.3321194,13.2311156 54.9221368,13.7331064 C54.9221368,13.7331064 54.9221368,13.7331064 54.9221368,13.7331064 C53.306884,14.3081788 51.528253,14.8264369 49.5862438,15.2878806 L49.5862452,15.2878868 C47.862097,15.6975643 46.6130375,17.1928751 46.5168473,18.9624146 L45.7779398,32.5555515" id="Combined-Shape" stroke-linecap="round" stroke-linejoin="round" transform="translate(42.629236, 19.878386) scale(-1, 1) rotate(-318.000000) translate(-42.629236, -19.878386) "></path>
            </g>
            <path d="M356,243.154701 L304.17245,273.07735 L304.17245,332.92265 L356,362.845299 L407.82755,332.92265 L407.82755,273.07735 L356,243.154701 Z" id="Polygon-Copy-7" stroke="url(#linearGradient-5)" stroke-width="2"></path>
            <g id="Group-23" transform="translate(330.000000, 276.000000)" stroke="#2A5C96" stroke-linecap="round">
                <path d="M7.27191325,42.627109 C11.7999498,47.1809223 18.0707595,50 25,50 L25,50 C32.6330048,50 39.4670406,46.5792065 44.0526811,41.1870457 M40.9887417,5.78043001 C36.6548266,2.17109905 31.080957,0 25,0 C17.4166664,0 10.6219374,3.37641713 6.03712642,8.70793771" id="Oval-6" stroke-linejoin="round"></path>
                <polyline id="Line-4" points="41 2 41 6 37 6"></polyline>
                <polyline id="Line-4" transform="translate(9.000000, 44.000000) rotate(-180.000000) translate(-9.000000, -44.000000) " points="11 42 11 46 7 46"></polyline>
                <circle id="Oval-6" stroke-linejoin="round" cx="25" cy="25" r="17"></circle>
                <path d="M3.13480588,12.4169172 C2.5721293,13.4217107 2.0768223,14.4693329 1.6550017,15.5536671 C0.962727501,17.3332306 0.468381524,19.2116741 0.199001962,21.1619593 M2.22044605e-16,25.9934972 C0.0455063013,26.8303369 0.285839655,28.321242 0.494236403,29.4788142 M46.4475559,37.40432 C48.3238732,34.2592586 49.5292219,30.6675094 49.8660294,26.826645 M49.7215016,21.1282477 C49.5505184,19.9026625 49.2906811,18.7055336 48.9487084,17.5435794" id="Oval-7"></path>
            </g>
            <path d="M356,1.15470054 L304.17245,31.0773503 L304.17245,90.9226497 L356,120.845299 L407.82755,90.9226497 L407.82755,31.0773503 L356,1.15470054 Z" id="Polygon-Copy-11" stroke="url(#linearGradient-1)" stroke-width="2"></path>
            <path d="M251,364.154701 L199.17245,394.07735 L199.17245,453.92265 L251,483.845299 L302.82755,453.92265 L302.82755,394.07735 L251,364.154701 Z" id="Polygon-Copy-17" stroke="url(#linearGradient-6)" stroke-width="2"></path>
            <polygon id="Polygon-Copy-12" stroke="url(#linearGradient-4)" stroke-width="2" stroke-linecap="round" stroke-linejoin="round" points="148 121 197.448052 149.637792 199.448287 150.80878"></polygon>
            <polygon id="Polygon-Copy-24" stroke="url(#linearGradient-4)" stroke-width="2" stroke-linecap="round" stroke-linejoin="round" points="147 364 196.448052 392.637792 198.448287 393.80878"></polygon>
            <path d="M356.039551,121 L303.996117,150.638105 C303.687704,150.815247 303.308413,150.815247 303,150.638105" id="Polygon-Copy-13" stroke="url(#linearGradient-7)" stroke-width="2" stroke-linecap="round" stroke-linejoin="round"></path>
            <path d="M356.039551,364 L303.996117,393.638105 C303.687704,393.815247 303.308413,393.815247 303,393.638105" id="Polygon-Copy-25" stroke="url(#linearGradient-8)" stroke-width="2" stroke-linecap="round" stroke-linejoin="round"></path>
            <path d="M198.671631,212.116699 L146.087402,243.067871" id="Polygon-Copy-13" stroke="url(#linearGradient-9)" stroke-width="2" stroke-linecap="round" stroke-linejoin="round"></path>
            <path d="M41,302.137008 L41,302.137008 C41.3120418,301.954331 41.6983928,301.954331 42.0104346,302.137008 L42.0104346,302.137008 M94.231321,332.708425 L42.0052173,362.86118 L42.0052173,362.86118 C41.6958162,363.039813 41.3146184,363.039813 41.0052173,362.86118" id="Polygon-Copy-20" stroke="url(#linearGradient-4)" opacity="0.20238904" stroke-linecap="round" stroke-linejoin="round"></path>
            <path d="M356,120.137008 L356,120.137008 C356.312042,119.954331 356.698393,119.954331 357.010435,120.137008 L357.010435,120.137008 M409.231321,150.708425 L355.788574,181.808105" id="Polygon-Copy-21" stroke="url(#linearGradient-10)" opacity="0.20238904" stroke-linecap="round" stroke-linejoin="round"></path>
            <path d="M94.222729,90.5724963 C80.5267816,82.5545449 71.1503577,77.065351 66.0934576,74.1049148 C55.2916106,67.7812425 64.6680344,73.2704363 94.222729,90.5724963 Z" id="Polygon-Copy-14" stroke="url(#linearGradient-4)" opacity="0.20238904" stroke-linecap="round" stroke-linejoin="round"></path>
            <path d="M408.001843,91.0010787 L460.222729,121.572496 C425.200777,101.069766 407.793815,90.879294 408.001843,91.0010787 Z" id="Polygon-Copy-15" stroke="url(#linearGradient-4)" opacity="0.20238904" stroke-linecap="round" stroke-linejoin="round"></path>
            <path d="M147.001843,424.001079 L199.222729,454.572496 C164.200777,434.069766 146.793815,423.879294 147.001843,424.001079 Z" id="Polygon-Copy-26" stroke="url(#linearGradient-4)" opacity="0.20238904" stroke-linecap="round" stroke-linejoin="round"></path>
            <path d="M303.225586,212.790527 L355.96582,243.116699 C320.597636,222.777467 303.017558,212.668743 303.225586,212.790527 Z" id="Polygon-Copy-16" stroke="url(#linearGradient-11)" stroke-width="2" stroke-linecap="round" stroke-linejoin="round"></path>
            <path d="M198.001825,272.001087 L250.742059,302.327259 C215.373875,281.988027 197.793797,271.879303 198.001825,272.001087 Z" id="Polygon-Copy-16" stroke="url(#linearGradient-11)" opacity="0.2" stroke-linecap="round" stroke-linejoin="round"></path>
            <path d="M277.915804,287.497257 L327.920878,316.620198 L329.912535,317.780138 L277.910593,347.648317 L277.910593,347.648317 C277.602181,347.825459 277.222889,347.825459 276.914477,347.648317 L224.912535,317.780138 L276.909266,287.497257 L276.909266,287.497257 C277.220324,287.316097 277.604746,287.316097 277.915804,287.497257 Z" id="Polygon-Copy-28" stroke="url(#linearGradient-2)" opacity="0.2" stroke-linecap="round" stroke-linejoin="round" transform="translate(277.412535, 317.571280) rotate(-60.000000) translate(-277.412535, -317.571280) "></path>
            <circle id="Oval-8" fill="#1E55B2" cx="356" cy="121" r="4"></circle>
            <circle id="Oval-8-Copy-10" fill="#2A72C0" cx="355" cy="243" r="4"></circle>
            <circle id="Oval-8-Copy-6" fill="#49B7E1" cx="356" cy="363" r="4"></circle>
            <circle id="Oval-8-Copy-5" fill="#1E55B2" cx="147" cy="121" r="4"></circle>
            <circle id="Oval-8-Copy-11" fill="#4AB9E2" cx="146" cy="243" r="4"></circle>
            <circle id="Oval-8-Copy-7" fill="#1E55B2" cx="146" cy="362" r="4"></circle>
            <circle id="Oval-8-Copy" fill="url(#linearGradient-12)" cx="200" cy="151" r="4"></circle>
            <circle id="Oval-8-Copy-8" fill="url(#linearGradient-12)" cx="199" cy="394" r="4"></circle>
            <circle id="Oval-8-Copy-4" fill="#194BAE" cx="199" cy="213" r="4"></circle>
            <circle id="Oval-8-Copy-2" fill="#3A95D1" cx="303" cy="213" r="4"></circle>
            <circle id="Oval-8-Copy-3" fill="#52CCEB" cx="303" cy="151" r="4"></circle>
            <circle id="Oval-8-Copy-9" fill="#194AAD" cx="303" cy="394" r="4"></circle>
        </g>
    </g>
</svg>