<svg xmlns="http://www.w3.org/2000/svg" width="334" height="170" viewBox="0 0 334 170">
    <defs>
        <linearGradient id="a" x1="0%" x2="0%" y1="96.655%" y2="3.018%">
            <stop offset="0%" stop-color="#2CBEDF"/>
            <stop offset="100%" stop-color="#CF9EFD"/>
        </linearGradient>
        <linearGradient id="b" x1="100%" x2="0%" y1="5.725%" y2="100%">
            <stop offset="0%" stop-color="#4DFFD9"/>
            <stop offset="100%" stop-color="#CF9EFD"/>
        </linearGradient>
        <linearGradient id="c" x1="24.719%" x2="92.56%" y1="22.554%" y2="22.554%">
            <stop offset="0%" stop-color="#BA95F1" stop-opacity="0"/>
            <stop offset="100%" stop-color="#CC99FD"/>
        </linearGradient>
        <linearGradient id="d" x1="100%" x2="0%" y1="0%" y2="92.561%">
            <stop offset="0%" stop-color="#50E3C2"/>
            <stop offset="100%" stop-color="#2CBEDF"/>
        </linearGradient>
    </defs>
    <g fill="none" fill-rule="evenodd">
        <path fill="#E2F8FF" d="M4.4 158.584c-1.717 0-2.576.656-2.576 1.968 0 .768.195 1.285.584 1.552.39.267 1.152.512 2.288.736 1.136.224 1.947.533 2.432.928.485.395.728 1.056.728 1.984 0 1.195-.296 2.056-.888 2.584-.592.528-1.459.792-2.6.792-.832 0-1.797-.075-2.896-.224l-.576-.08.112-.848c1.461.181 2.592.272 3.392.272.8 0 1.408-.195 1.824-.584.416-.39.624-.96.624-1.712s-.184-1.264-.552-1.536c-.368-.272-.955-.483-1.76-.632-.805-.15-1.395-.285-1.768-.408a3.95 3.95 0 0 1-1.048-.528 1.9 1.9 0 0 1-.696-.88c-.139-.357-.208-.808-.208-1.352 0-1.941 1.173-2.912 3.52-2.912.704 0 1.621.075 2.752.224l.528.08-.08.848c-1.472-.181-2.517-.272-3.136-.272zm9.354 3.264h-2.672v3.952c0 1.035.075 1.712.224 2.032.15.32.502.48 1.056.48l1.472-.112.064.816c-.704.107-1.242.16-1.616.16-.81 0-1.373-.2-1.688-.6-.314-.4-.472-1.165-.472-2.296v-4.432H8.938V161h1.184v-2.512h.96V161h2.672v.848zm7.018 1.536v4.288c.043.395.39.63 1.04.704l-.048.768c-.82 0-1.424-.213-1.808-.64-1.002.437-2.005.656-3.008.656-.714 0-1.258-.205-1.632-.616-.373-.41-.56-.997-.56-1.76s.19-1.328.568-1.696c.38-.368.974-.595 1.784-.68l2.72-.272v-.752c0-.597-.13-1.027-.392-1.288-.26-.261-.61-.392-1.048-.392-.682 0-1.568.064-2.656.192l-.496.048-.048-.768c1.174-.224 2.2-.336 3.08-.336.88 0 1.518.208 1.912.624.395.416.592 1.056.592 1.92zm-5.024 3.344c0 1.077.443 1.616 1.328 1.616.384 0 .806-.045 1.264-.136.46-.09.822-.184 1.088-.28l.4-.144v-2.896l-2.608.272c-.522.043-.898.192-1.128.448-.229.256-.344.63-.344 1.12zM23.263 169v-8h.944v1.152a8.772 8.772 0 0 1 1.448-.8 6.814 6.814 0 0 1 1.576-.512v.96a8.954 8.954 0 0 0-1.44.44c-.502.197-.89.37-1.168.52l-.416.24v6h-.944zm9.482-7.152h-2.672v3.952c0 1.035.075 1.712.224 2.032.15.32.501.48 1.056.48l1.472-.112.064.816c-.704.107-1.243.16-1.616.16-.81 0-1.373-.2-1.688-.6-.315-.4-.472-1.165-.472-2.296v-4.432h-1.184V161h1.184v-2.512h.96V161h2.672v.848zM296 168.552v-11.12h6.56v.896h-5.568v4.592h4.736v.88h-4.736v4.752H296zm8.218 0v-8h.944v8h-.944zm0-10v-1.2h.944v1.2h-.944zm4.298 10h-.944v-8h.944v.592c.896-.501 1.766-.752 2.608-.752 1.067 0 1.78.283 2.136.848.358.565.536 1.6.536 3.104v4.208h-.96v-4.16c0-1.227-.117-2.056-.352-2.488-.234-.432-.736-.648-1.504-.648a4.47 4.47 0 0 0-1.176.168c-.41.112-.728.227-.952.344l-.336.16v6.624zm7.595 0v-8h.944v8h-.944zm0-10v-1.2h.944v1.2h-.944zm5.77 2.72c-1.259 0-1.888.453-1.888 1.36 0 .416.139.71.416.88.277.17.904.339 1.88.504.976.165 1.664.392 2.064.68.4.288.6.84.6 1.656s-.261 1.413-.784 1.792-1.29.568-2.304.568c-.587 0-1.344-.075-2.272-.224l-.464-.064.064-.848c1.195.181 2.112.272 2.752.272.64 0 1.139-.112 1.496-.336.357-.224.536-.603.536-1.136 0-.533-.147-.888-.44-1.064-.293-.176-.923-.339-1.888-.488-.965-.15-1.645-.363-2.04-.64s-.592-.8-.592-1.568.272-1.328.816-1.68c.544-.352 1.216-.528 2.016-.528.64 0 1.44.07 2.4.208l.432.064-.032.848c-1.141-.17-2.064-.256-2.768-.256zm5.962 7.28h-.944V157h.944v4.016c.896-.416 1.76-.624 2.592-.624 1.067 0 1.779.283 2.136.848.358.565.536 1.6.536 3.104v4.208h-.96v-4.16c0-1.227-.114-2.056-.344-2.488-.23-.432-.728-.648-1.496-.648-.373 0-.765.045-1.176.136-.41.09-.728.184-.952.28l-.336.128v6.752zM23.646 99.018h-1.96V102h-1.554v-9.59h3.514c2.175 0 3.262 1.073 3.262 3.22 0 1.101-.273 1.941-.819 2.52-.546.579-1.36.868-2.443.868zm-1.96-1.344h1.946c1.12 0 1.68-.681 1.68-2.044 0-.653-.135-1.13-.406-1.428-.27-.299-.695-.448-1.274-.448h-1.946v3.92zm7.947.91V102H28.08v-9.59h3.64c2.166 0 3.248 1.017 3.248 3.052 0 1.363-.522 2.287-1.568 2.772L34.981 102h-1.708l-1.386-3.416h-2.254zm3.738-3.108c0-1.148-.55-1.722-1.652-1.722h-2.086v3.486h2.114c.56 0 .971-.161 1.232-.483.262-.322.392-.749.392-1.281zM36.405 102v-9.59h1.554V102h-1.554zm8.745-9.59h1.624L44.422 102H41.37l-2.352-9.59h1.624l1.904 8.218h.7l1.904-8.218zm1.465 9.59l2.366-9.59h3.094l2.38 9.59h-1.568l-.518-2.058h-3.682L48.17 102h-1.554zm3.57-8.288l-1.19 4.858h3.066l-1.176-4.858h-.7zm3.818.084V92.41h7v1.386H58.3V102h-1.568v-8.204h-2.73zM61.964 102v-9.59h6.048v1.358h-4.494v2.716h3.654v1.344h-3.654v2.8h4.494V102h-6.048zm12.983-8.386c-1.186 0-1.778.415-1.778 1.246 0 .43.14.735.42.917.28.182.898.406 1.855.672.956.266 1.63.583 2.023.952.392.369.588.95.588 1.743 0 1.008-.287 1.762-.861 2.261-.574.5-1.356.749-2.345.749-.794 0-1.671-.093-2.632-.28l-.504-.098.154-1.246c1.26.168 2.221.252 2.884.252 1.157 0 1.736-.513 1.736-1.54 0-.401-.131-.698-.392-.889-.262-.191-.85-.401-1.764-.63-.915-.229-1.596-.544-2.044-.945-.448-.401-.672-1.036-.672-1.904 0-.868.282-1.524.847-1.967.564-.443 1.346-.665 2.345-.665.718 0 1.568.084 2.548.252l.49.084-.126 1.26c-1.307-.15-2.231-.224-2.772-.224zM78.456 102l2.366-9.59h3.094l2.38 9.59h-1.568l-.518-2.058h-3.682L80.01 102h-1.554zm3.57-8.288l-1.19 4.858h3.066l-1.176-4.858h-.7zM92.717 102h-5.376v-9.59h1.554v8.204h3.822V102zm.948 0v-9.59h6.048v1.358h-4.494v2.716h3.654v1.344h-3.654v2.8h4.494V102h-6.048zM140.336 1.41h1.638l1.372 8.246h.294l1.82-8.218h1.82l1.82 8.218h.308l1.372-8.246h1.638l-1.89 9.59h-2.506l-1.652-7.686L144.732 11h-2.52l-1.876-9.59zm18.055 8.33l.392-.042.028 1.134c-1.064.215-2.007.322-2.828.322-1.036 0-1.78-.285-2.233-.854-.453-.57-.679-1.48-.679-2.73 0-2.483 1.013-3.724 3.038-3.724 1.96 0 2.94 1.069 2.94 3.206l-.098 1.092h-4.34c.01.579.135 1.003.378 1.274.243.27.695.406 1.358.406.663 0 1.344-.028 2.044-.084zm-.84-2.772c0-.69-.11-1.174-.329-1.449-.22-.275-.59-.413-1.113-.413s-.903.145-1.141.434c-.238.29-.362.765-.371 1.428h2.954zm11.246-.812v3.192c.01.205.063.357.16.455.099.098.25.161.456.189l-.042 1.162c-.803 0-1.423-.173-1.862-.518a5.326 5.326 0 0 1-2.254.518c-1.39 0-2.086-.742-2.086-2.226 0-.71.189-1.223.567-1.54.378-.317.959-.509 1.743-.574l1.806-.154v-.504c0-.373-.082-.635-.245-.784-.163-.15-.404-.224-.721-.224-.597 0-1.344.037-2.24.112l-.448.028-.056-1.078c1.017-.243 1.953-.364 2.807-.364.854 0 1.47.184 1.848.553.378.369.567.954.567 1.757zm-3.136 1.736c-.644.056-.966.406-.966 1.05s.285.966.854.966c.467 0 .961-.075 1.484-.224l.252-.084V7.738l-1.624.154zM170.724 11V4h1.512v.84c.793-.513 1.587-.845 2.38-.994v1.526c-.803.159-1.489.364-2.058.616l-.308.126V11h-1.526zm9.99-1.26l.393-.042.028 1.134c-1.064.215-2.007.322-2.828.322-1.036 0-1.78-.285-2.233-.854-.453-.57-.68-1.48-.68-2.73 0-2.483 1.013-3.724 3.039-3.724 1.96 0 2.94 1.069 2.94 3.206l-.098 1.092h-4.34c.01.579.135 1.003.378 1.274.242.27.695.406 1.358.406.662 0 1.344-.028 2.044-.084zm-.84-2.772c0-.69-.109-1.174-.328-1.449-.22-.275-.59-.413-1.113-.413s-.903.145-1.141.434c-.238.29-.362.765-.371 1.428h2.954zM187.468 11h-1.526V1.088h1.526v3.276c.69-.345 1.33-.518 1.918-.518.933 0 1.57.264 1.91.791.341.527.512 1.398.512 2.611V11h-1.526V7.29c0-.756-.08-1.293-.238-1.61-.159-.317-.495-.476-1.008-.476-.448 0-.896.075-1.344.224l-.224.084V11zm11.11-1.26l.393-.042.028 1.134c-1.064.215-2.007.322-2.828.322-1.036 0-1.78-.285-2.233-.854-.453-.57-.68-1.48-.68-2.73 0-2.483 1.013-3.724 3.039-3.724 1.96 0 2.94 1.069 2.94 3.206l-.098 1.092h-4.34c.009.579.135 1.003.378 1.274.242.27.695.406 1.358.406.662 0 1.344-.028 2.044-.084zm-.84-2.772c0-.69-.109-1.174-.328-1.449-.22-.275-.59-.413-1.113-.413s-.903.145-1.141.434c-.238.29-.362.765-.371 1.428h2.954zM200.716 11V4h1.512v.84c.793-.513 1.586-.845 2.38-.994v1.526c-.803.159-1.489.364-2.058.616l-.308.126V11h-1.526zm9.99-1.26l.393-.042.028 1.134c-1.064.215-2.007.322-2.828.322-1.036 0-1.78-.285-2.233-.854-.453-.57-.68-1.48-.68-2.73 0-2.483 1.013-3.724 3.039-3.724 1.96 0 2.94 1.069 2.94 3.206l-.098 1.092h-4.34c.009.579.135 1.003.378 1.274.242.27.695.406 1.358.406.662 0 1.344-.028 2.044-.084zm-.84-2.772c0-.69-.11-1.174-.328-1.449-.22-.275-.59-.413-1.113-.413s-.903.145-1.141.434c-.238.29-.362.765-.371 1.428h2.954zM153 93.554v-1.386h7v1.386h-2.702v8.204h-1.568v-8.204H153zm9.795 6.174c.317.55.924.826 1.82.826s1.5-.27 1.813-.812c.313-.541.469-1.449.469-2.723 0-1.274-.161-2.2-.483-2.779-.322-.579-.922-.868-1.799-.868-.877 0-1.48.29-1.806.868-.327.579-.49 1.5-.49 2.765 0 1.265.159 2.172.476 2.723zm4.844 1.008c-.57.784-1.577 1.176-3.024 1.176s-2.46-.394-3.038-1.183c-.579-.789-.868-2.028-.868-3.717 0-1.69.292-2.945.875-3.766.583-.821 1.594-1.232 3.031-1.232s2.445.408 3.024 1.225c.579.817.868 2.074.868 3.773 0 1.699-.29 2.94-.868 3.724zm4.237 1.022h-1.554v-9.59h1.554v4.326l1.428-.112 1.96-4.214h1.778l-2.366 4.816 2.464 4.774h-1.806l-2.03-4.004-1.428.098v3.906zm6.617 0v-9.59h6.048v1.358h-4.494v2.716h3.654v1.344h-3.654v2.8h4.494v1.372h-6.048zm7.75 0v-9.59h2.717l2.912 8.218h.21v-8.218h1.554v9.59h-2.66l-2.982-8.232h-.196v8.232h-1.554zm15.517-8.386c-1.186 0-1.778.415-1.778 1.246 0 .43.14.735.42.917.28.182.898.406 1.855.672.956.266 1.63.583 2.023.952.392.369.588.95.588 1.743 0 1.008-.287 1.762-.861 2.261-.574.5-1.356.749-2.345.749-.794 0-1.67-.093-2.632-.28l-.504-.098.154-1.246c1.26.168 2.221.252 2.884.252 1.157 0 1.736-.513 1.736-1.54 0-.401-.13-.698-.392-.889-.262-.191-.85-.401-1.764-.63-.915-.229-1.596-.544-2.044-.945-.448-.401-.672-1.036-.672-1.904 0-.868.282-1.524.847-1.967.564-.443 1.346-.665 2.345-.665.718 0 1.568.084 2.548.252l.49.084-.126 1.26c-1.307-.15-2.23-.224-2.772-.224zm3.845 8.386l2.366-9.59h3.094l2.38 9.59h-1.568l-.518-2.058h-3.682l-.518 2.058h-1.554zm3.57-8.288l-1.19 4.858h3.066l-1.176-4.858h-.7zm11.027 8.288h-5.376v-9.59h1.554v8.204h3.822v1.386zm1.283 0v-9.59h6.048v1.358h-4.494v2.716h3.654v1.344h-3.654v2.8h4.494v1.372h-6.048z"/>
        <path fill="url(#a)" fill-rule="nonzero" d="M76 185V80.499a2 2 0 1 0-4 0V185a2 2 0 0 0 4 0z" transform="rotate(90 74 132.75)"/>
        <path fill="url(#b)" fill-rule="nonzero" d="M235.5 217V48.5a.5.5 0 0 0-1 0V217a.5.5 0 0 0 1 0z" transform="rotate(90 235 132.75)"/>
        <path fill="#BA95F1" fill-rule="nonzero" d="M133.75 139.25v-14.5a.5.5 0 0 0-1 0v14.5a.5.5 0 0 0 1 0zM146 137.5a5.5 5.5 0 1 1 0-11 5.5 5.5 0 0 1 0 11zm0-1a4.5 4.5 0 1 0 0-9 4.5 4.5 0 0 0 0 9z"/>
        <path fill="url(#c)" fill-rule="nonzero" d="M113.499 95.001h65.002a.5.5 0 1 0 0-1h-65.002a.5.5 0 1 0 0 1z" transform="rotate(90 146 94.501)"/>
        <path fill="url(#d)" fill-rule="nonzero" d="M125 .983v110.019h2V.983z"/>
        <path fill="#29B1D7" fill-rule="nonzero" d="M5 129.532v4.936L9.113 132 5 129.532zm9.029 4.183l-10 6C2.696 140.515 1 139.555 1 138v-12c0-1.555 1.696-2.515 3.029-1.715l10 6c1.295.777 1.295 2.653 0 3.43z"/>
        <path fill="#2CBEDF" fill-rule="nonzero" d="M130.234 113h-8.468l4.234 7.056 4.234-7.056zm-5.091 9.514l-6-10A1 1 0 0 1 120 111h12a1 1 0 0 1 .857 1.514l-6 10a1 1 0 0 1-1.714 0z"/>
    </g>
</svg>
