<svg xmlns="http://www.w3.org/2000/svg" width="30" height="32" viewBox="0 0 30 32">
    <g fill="none" fill-rule="evenodd" stroke="#25CAF0">
        <path d="M4.733 28.114c2.499 1.325 5.408 2.217 8.727 2.677 3.32.459 6.306.163 8.962-.888 2.238-1.254 3.893-2.877 4.967-4.869 1.61-2.987 1.622-4.702 1.61-6.84-.014-2.138-.732-4.56-2.956-6.822C23.82 9.11 21.838 8.646 20.3 8.54c-1.539-.105-3.574-.048-5.268.709s-4.402 1.816-5.948 5.154c-1.545 3.339.195 8.22-.664 10.631-.573 1.607-1.802 2.634-3.687 3.08zM22.33 8.835a11.253 11.253 0 0 1 1.63-3.169c.704-.954 1.45-1.678 2.24-2.17C22.4 1.78 18.744.95 15.233 1.001c-3.51.053-6.282.884-8.317 2.493C4.653 4.943 2.968 7.077 1.864 9.9c-1.658 4.232-.51 6.979 0 8.319.51 1.34.919 2.129 2.544 3.767a10.622 10.622 0 0 0 3.71 2.453"/>
    </g>
</svg>
