<?xml version="1.0" encoding="UTF-8"?>
<svg width="425px" height="283px" viewBox="0 0 425 283" version="1.1" xmlns="http://www.w3.org/2000/svg" xmlns:xlink="http://www.w3.org/1999/xlink">
    <!-- Generator: Sketch 48.1 (47250) - http://www.bohemiancoding.com/sketch -->
    <title>use of proceeds</title>
    <desc>Created with Sketch.</desc>
    <defs>
        <linearGradient x1="88.9832823%" y1="9.04993444%" x2="22.9020979%" y2="87.3320039%" id="linearGradient-1">
            <stop stop-color="#57D8F1" offset="0%"></stop>
            <stop stop-color="#194AAD" offset="100%"></stop>
        </linearGradient>
    </defs>
    <g id="coti---token-desktop-update" stroke="none" stroke-width="1" fill="none" fill-rule="evenodd" transform="translate(-799.000000, -4337.000000)">
        <g id="use-of-proceeds" transform="translate(799.000000, 4337.000000)">
            <path d="M211,216.5 C247.726936,216.5 277.5,186.726936 277.5,150 C277.5,113.273064 247.726936,83.5 211,83.5 C174.273064,83.5 144.5,113.273064 144.5,150 C144.5,150.276142 144.723858,150.5 145,150.5 C145.276142,150.5 145.5,150.276142 145.5,150 C145.5,113.825349 174.825349,84.5 211,84.5 C247.174651,84.5 276.5,113.825349 276.5,150 C276.5,186.174651 247.174651,215.5 211,215.5 C210.723858,215.5 210.5,215.723858 210.5,216 C210.5,216.276142 210.723858,216.5 211,216.5 Z" id="Oval-8-Copy" fill="url(#linearGradient-1)" fill-rule="nonzero"></path>
            <path d="M211,97 C181.728908,97 158,120.728908 158,150 C158,179.271092 181.728908,203 211,203 C240.271092,203 264,179.271092 264,150 C264,148.895431 263.104569,148 262,148 C260.895431,148 260,148.895431 260,150 C260,177.061953 238.061953,199 211,199 C183.938047,199 162,177.061953 162,150 C162,122.938047 183.938047,101 211,101 C212.104569,101 213,100.104569 213,99 C213,97.8954305 212.104569,97 211,97 Z" id="Oval-8-Copy-2" fill="url(#linearGradient-1)" fill-rule="nonzero"></path>
            <circle id="Oval-6-Copy-3" fill="#D7297D" cx="381" cy="102" r="6"></circle>
            <circle id="Oval-6-Copy-9" fill="#184AAA" transform="translate(38.231993, 102.000000) scale(-1, 1) translate(-38.231993, -102.000000) " cx="38.2319925" cy="102" r="6"></circle>
            <path d="M6.706,95.652 L6.706,107.532 L4.708,107.532 L4.708,97.92 L1.918,99.72 L1,98.226 L4.87,95.652 L6.706,95.652 Z M11.352,96.912 C12.1080038,95.9399951 13.2359925,95.454 14.736,95.454 C16.2360075,95.454 17.3579963,95.9339952 18.102,96.894 C18.8460037,97.8540048 19.218,99.4409889 19.218,101.655 C19.218,103.869011 18.8430038,105.434995 18.093,106.353 C17.3429963,107.271005 16.2210075,107.73 14.727,107.73 C13.2329925,107.73 12.1110038,107.274005 11.361,106.362 C10.6109963,105.449995 10.236,103.887011 10.236,101.673 C10.236,99.4589889 10.6079963,97.8720048 11.352,96.912 Z M16.59,98.19 C16.2179981,97.5299967 15.6000043,97.2 14.736,97.2 C13.8719957,97.2 13.2510019,97.5269967 12.873,98.181 C12.4949981,98.8350033 12.306,99.9839918 12.306,101.628 C12.306,103.272008 12.5009981,104.408997 12.891,105.039 C13.281002,105.669003 13.8989958,105.984 14.745,105.984 C15.5910042,105.984 16.2029981,105.669003 16.581,105.039 C16.9590019,104.408997 17.148,103.272008 17.148,101.628 C17.148,99.9839918 16.9620019,98.8380032 16.59,98.19 Z M22.46,107.64 L26.456,95.094 L27.572,95.472 L23.576,108 L22.46,107.64 Z M20.336,98.01 C20.336,96.3059915 21.0289931,95.454 22.415,95.454 C23.8010069,95.454 24.494,96.3059915 24.494,98.01 C24.494,98.8740043 24.3140018,99.5219978 23.954,99.954 C23.5939982,100.386002 23.0810033,100.602 22.415,100.602 C21.7489967,100.602 21.2360018,100.386002 20.876,99.954 C20.5159982,99.5219978 20.336,98.8740043 20.336,98.01 Z M21.938,96.984 C21.8539996,97.188001 21.812,97.5299976 21.812,98.01 C21.812,98.4900024 21.8569996,98.8379989 21.947,99.054 C22.0370005,99.2700011 22.1959989,99.378 22.424,99.378 C22.6520011,99.378 22.8109996,99.2700011 22.901,99.054 C22.9910005,98.8379989 23.036,98.4900024 23.036,98.01 C23.036,97.5299976 22.9910005,97.1850011 22.901,96.975 C22.8109996,96.764999 22.6520011,96.66 22.424,96.66 C22.1959989,96.66 22.0340005,96.7679989 21.938,96.984 Z M25.538,105.138 C25.538,103.433991 26.2309931,102.582 27.617,102.582 C29.0030069,102.582 29.696,103.433991 29.696,105.138 C29.696,106.002004 29.5160018,106.649998 29.156,107.082 C28.7959982,107.514002 28.2830033,107.73 27.617,107.73 C26.9509967,107.73 26.4380018,107.514002 26.078,107.082 C25.7179982,106.649998 25.538,106.002004 25.538,105.138 Z M27.608,103.806 C27.3799989,103.806 27.2210005,103.910999 27.131,104.121 C27.0409996,104.331001 26.996,104.672998 26.996,105.147 C26.996,105.621002 27.0409996,105.968999 27.131,106.191 C27.2210005,106.413001 27.3799989,106.524 27.608,106.524 C27.8360011,106.524 27.9949996,106.416001 28.085,106.2 C28.1750005,105.983999 28.22,105.633002 28.22,105.147 C28.22,104.660998 28.1780004,104.316001 28.094,104.112 C28.0099996,103.907999 27.8480012,103.806 27.608,103.806 Z" id="10%-copy" fill="#3D3A44"></path>
            <circle id="Oval-6-Copy-8" fill="#FF8337" cx="381" cy="191" r="6"></circle>
            <circle id="Oval-6-Copy-13" fill="#37BEDD" transform="translate(38.231993, 191.000000) scale(-1, 1) translate(-38.231993, -191.000000) " cx="38.2319925" cy="191" r="6"></circle>
            <circle id="Oval-6-Copy-6" fill="#FFC15A" cx="381" cy="276" r="6"></circle>
            <circle id="Oval-6-Copy-14" fill="#48F0D5" transform="translate(38.231993, 276.000000) scale(-1, 1) translate(-38.231993, -276.000000) " cx="38.2319925" cy="276" r="6"></circle>
            <path d="M307.65625,102.5 L307.65625,101.5 L381.64771,101.5 L381.64771,102.5 L307.65625,102.5 Z M307.65625,101.5 L381.64771,101.5 L381.64771,102.5 L307.65625,102.5 L307.65625,101.5 Z" id="Stroke-49-Copy-8" fill="#D7297D" fill-rule="nonzero"></path>
            <g id="Group-18" transform="translate(107.000000, 46.000000)" fill-rule="nonzero">
                <path d="M104,-6 L104,6 C87.5978691,6 71.7908534,10.0290253 57.6683141,17.6209013 L51.9864096,7.05132411 C67.8450495,-1.47383023 85.6025049,-6 104,-6 Z" id="Path" fill="#DB50EF"></path>
                <path d="M40.6759843,14.0446059 L47.5915247,23.8515066 C38.8714755,30.000631 31.1959701,37.5392765 24.8897735,46.1470887 L15.2095901,39.0552588 C22.2840426,29.3987952 30.8932192,20.9431265 40.6759843,14.0446059 Z" id="Path" fill="#CC9EF8"></path>
                <path d="M9.08620675,48.3668983 L19.4334621,54.4442584 C10.6808689,69.3463399 6,86.3238808 6,104 L-6,104 C-6,84.1724077 -0.741324627,65.0991593 9.08620675,48.3668983 Z" id="Path" fill="#184AAA"></path>
                <path d="M-5.45466722,115.01769 L6.48635131,113.829382 C8.28210619,131.874484 15.016551,148.842439 25.8356577,163.122465 L16.2708437,170.369143 C4.1267452,154.340274 -3.43831529,135.279519 -5.45466722,115.01769 Z" id="Path" fill="#37BEDD"></path>
                <path d="M23.2620112,178.70933 L32.0679069,170.557262 C44.4185075,183.898431 60.2384517,193.600879 77.8019631,198.460706 L74.601808,210.026129 C54.875854,204.567953 37.1187528,193.677437 23.2620112,178.70933 Z" id="Path" fill="#48F0D5"></path>
                <path d="M87.4873648,212.768014 L89.2745612,200.901847 C94.1167809,201.631147 99.0341636,202 104,202 C122.699381,202 140.610342,196.759823 156.090974,187.025393 L162.478795,197.183923 C145.098537,208.112864 124.976265,214 104,214 C98.435425,214 92.9206518,213.586336 87.4873648,212.768014 Z" id="Path" fill="#FFC15A"></path>
                <path d="M171.480354,190.876111 L164.112929,181.403991 C184.940815,165.204039 198.510783,141.285834 201.412202,114.799918 L213.340842,116.106649 C210.082776,145.848261 194.848101,172.700652 171.480354,190.876111 Z" id="Path" fill="#FF8337"></path>
                <path d="M214,104 L202,104 C202,53.7740364 164.029156,11.8147073 114.47533,6.55278627 L115.742438,-5.38012776 C171.383296,0.528150712 214,47.6213442 214,104 Z" id="Path" fill="#D7297D"></path>
            </g>
            <path d="M114.223452,101.5 L114.223452,102.5 L37.2319925,102.5 L37.2319925,101.5 L114.223452,101.5 Z M114.223452,102.5 L37.2319925,102.5 L37.2319925,101.5 L114.223452,101.5 L114.223452,102.5 Z" id="Stroke-49-Copy-14" fill="#184AAA" fill-rule="nonzero"></path>
            <path d="M307.65625,191.5 L307.65625,190.5 L381.64771,190.5 L381.64771,191.5 L307.65625,191.5 Z M307.65625,190.5 L381.64771,190.5 L381.64771,191.5 L307.65625,191.5 L307.65625,190.5 Z" id="Stroke-49-Copy-13" fill="#FF8337" fill-rule="nonzero"></path>
            <path d="M111.223452,190.5 L111.223452,191.5 L37.2319925,191.5 L37.2319925,190.5 L111.223452,190.5 Z M111.223452,191.5 L37.2319925,191.5 L37.2319925,190.5 L111.223452,190.5 L111.223452,191.5 Z" id="Stroke-49-Copy-15" fill="#37BEDD" fill-rule="nonzero"></path>
            <polygon id="Line-6-Copy-2" fill="#DB50EF" fill-rule="nonzero" points="381.268007 7.5 381.268007 6.5 244.395432 6.5 207.978928 42.9165039 208.686035 43.6236107 244.809646 7.5"></polygon>
            <polygon id="Line-6-Copy-4" fill="#CC9EF8" fill-rule="nonzero" transform="translate(87.245109, 38.137489) scale(-1, 1) translate(-87.245109, -38.137489) " points="95.5069704 7.5 141.965332 7.5 141.965332 6.5 95.0927569 6.5 32.5248858 69.0678711 33.2319925 69.7749779"></polygon>
            <circle id="Oval-6-Copy-3" fill="#DB50EF" transform="translate(381.000000, 7.000000) scale(-1, 1) translate(-381.000000, -7.000000) " cx="381" cy="7" r="6"></circle>
            <path d="M400.706,0.558 L400.706,12.438 L398.708,12.438 L398.708,2.826 L395.918,4.626 L395,3.132 L398.87,0.558 L400.706,0.558 Z M405.352,1.818 C406.108004,0.84599514 407.235993,0.36 408.736,0.36 C410.236008,0.36 411.357996,0.8399952 412.102,1.8 C412.846004,2.7600048 413.218,4.34698893 413.218,6.561 C413.218,8.77501107 412.843004,10.3409954 412.093,11.259 C411.342996,12.1770046 410.221007,12.636 408.727,12.636 C407.232993,12.636 406.111004,12.1800046 405.361,11.268 C404.610996,10.3559954 404.236,8.79301107 404.236,6.579 C404.236,4.36498893 404.607996,2.7780048 405.352,1.818 Z M410.59,3.096 C410.217998,2.4359967 409.600004,2.106 408.736,2.106 C407.871996,2.106 407.251002,2.43299673 406.873,3.087 C406.494998,3.74100327 406.306,4.88999178 406.306,6.534 C406.306,8.17800822 406.500998,9.31499685 406.891,9.945 C407.281002,10.5750031 407.898996,10.89 408.745,10.89 C409.591004,10.89 410.202998,10.5750031 410.581,9.945 C410.959002,9.31499685 411.148,8.17800822 411.148,6.534 C411.148,4.88999178 410.962002,3.74400324 410.59,3.096 Z M416.46,12.546 L420.456,0 L421.572,0.378 L417.576,12.906 L416.46,12.546 Z M414.336,2.916 C414.336,1.21199148 415.028993,0.36 416.415,0.36 C417.801007,0.36 418.494,1.21199148 418.494,2.916 C418.494,3.78000432 418.314002,4.42799784 417.954,4.86 C417.593998,5.29200216 417.081003,5.508 416.415,5.508 C415.748997,5.508 415.236002,5.29200216 414.876,4.86 C414.515998,4.42799784 414.336,3.78000432 414.336,2.916 Z M415.938,1.89 C415.854,2.09400102 415.812,2.4359976 415.812,2.916 C415.812,3.3960024 415.857,3.74399892 415.947,3.96 C416.037,4.17600108 416.195999,4.284 416.424,4.284 C416.652001,4.284 416.811,4.17600108 416.901,3.96 C416.991,3.74399892 417.036,3.3960024 417.036,2.916 C417.036,2.4359976 416.991,2.09100105 416.901,1.881 C416.811,1.67099895 416.652001,1.566 416.424,1.566 C416.195999,1.566 416.034,1.67399892 415.938,1.89 Z M419.538,10.044 C419.538,8.33999148 420.230993,7.488 421.617,7.488 C423.003007,7.488 423.696,8.33999148 423.696,10.044 C423.696,10.9080043 423.516002,11.5559978 423.156,11.988 C422.795998,12.4200022 422.283003,12.636 421.617,12.636 C420.950997,12.636 420.438002,12.4200022 420.078,11.988 C419.717998,11.5559978 419.538,10.9080043 419.538,10.044 Z M421.608,8.712 C421.379999,8.712 421.221,8.81699895 421.131,9.027 C421.041,9.23700105 420.996,9.57899763 420.996,10.053 C420.996,10.5270024 421.041,10.8749989 421.131,11.097 C421.221,11.3190011 421.379999,11.43 421.608,11.43 C421.836001,11.43 421.995,11.3220011 422.085,11.106 C422.175,10.8899989 422.22,10.5390024 422.22,10.053 C422.22,9.56699757 422.178,9.22200102 422.094,9.018 C422.01,8.81399898 421.848001,8.712 421.608,8.712 Z" id="10%-copy" fill="#3D3A44"></path>
            <circle id="Oval-6-Copy-15" fill="#CC9EF8" cx="38.2319925" cy="7" r="6"></circle>
            <path d="M402.856,107 L395.206,107 L395.206,105.29 L398.14,102.266 C399.028004,101.353995 399.651998,100.640003 400.012,100.124 C400.372002,99.6079974 400.552,99.0410031 400.552,98.423 C400.552,97.8049969 400.378002,97.3640013 400.03,97.1 C399.681998,96.8359987 399.112004,96.704 398.32,96.704 C397.575996,96.704 396.754005,96.7879992 395.854,96.956 L395.404,97.028 L395.278,95.444 C396.442006,95.0959983 397.647994,94.922 398.896,94.922 C401.380012,94.922 402.622,96.025989 402.622,98.234 C402.622,99.0980043 402.433002,99.8479968 402.055,100.484 C401.676998,101.120003 401.002005,101.887995 400.03,102.788 L397.492,105.254 L402.856,105.254 L402.856,107 Z M412.992,95.12 L412.992,96.884 L407.484,96.884 L407.178,100.016 C407.994004,99.6439981 408.797996,99.458 409.59,99.458 C412.134013,99.458 413.406,100.645988 413.406,103.022 C413.406,104.366007 413.055004,105.397996 412.353,106.118 C411.650996,106.838004 410.658006,107.198 409.374,107.198 C408.833997,107.198 408.222003,107.147001 407.538,107.045 C406.853997,106.942999 406.308002,106.844 405.9,106.748 L405.288,106.586 L405.504,105.074 C406.920007,105.314001 408.131995,105.434 409.14,105.434 C409.836003,105.434 410.375998,105.242002 410.76,104.858 C411.144002,104.473998 411.336,103.928004 411.336,103.22 C411.336,102.511996 411.168002,102.002002 410.832,101.69 C410.495998,101.377998 410.058003,101.222 409.518,101.222 C408.545995,101.222 407.754003,101.341999 407.142,101.582 L406.818,101.708 L405.558,101.438 L405.882,95.12 L412.992,95.12 Z M417.044,107.108 L421.04,94.562 L422.156,94.94 L418.16,107.468 L417.044,107.108 Z M414.92,97.478 C414.92,95.7739915 415.612993,94.922 416.999,94.922 C418.385007,94.922 419.078,95.7739915 419.078,97.478 C419.078,98.3420043 418.898002,98.9899978 418.538,99.422 C418.177998,99.8540022 417.665003,100.07 416.999,100.07 C416.332997,100.07 415.820002,99.8540022 415.46,99.422 C415.099998,98.9899978 414.92,98.3420043 414.92,97.478 Z M416.522,96.452 C416.438,96.656001 416.396,96.9979976 416.396,97.478 C416.396,97.9580024 416.441,98.3059989 416.531,98.522 C416.621,98.7380011 416.779999,98.846 417.008,98.846 C417.236001,98.846 417.395,98.7380011 417.485,98.522 C417.575,98.3059989 417.62,97.9580024 417.62,97.478 C417.62,96.9979976 417.575,96.653001 417.485,96.443 C417.395,96.2329989 417.236001,96.128 417.008,96.128 C416.779999,96.128 416.618,96.2359989 416.522,96.452 Z M420.122,104.606 C420.122,102.901991 420.814993,102.05 422.201,102.05 C423.587007,102.05 424.28,102.901991 424.28,104.606 C424.28,105.470004 424.100002,106.117998 423.74,106.55 C423.379998,106.982002 422.867003,107.198 422.201,107.198 C421.534997,107.198 421.022002,106.982002 420.662,106.55 C420.301998,106.117998 420.122,105.470004 420.122,104.606 Z M422.192,103.274 C421.963999,103.274 421.805,103.378999 421.715,103.589 C421.625,103.799001 421.58,104.140998 421.58,104.615 C421.58,105.089002 421.625,105.436999 421.715,105.659 C421.805,105.881001 421.963999,105.992 422.192,105.992 C422.420001,105.992 422.579,105.884001 422.669,105.668 C422.759,105.451999 422.804,105.101002 422.804,104.615 C422.804,104.128998 422.762,103.784001 422.678,103.58 C422.594,103.375999 422.432001,103.274 422.192,103.274 Z" id="25%" fill="#3D3A44"></path>
            <path d="M401.29,184.12 L401.29,196 L399.292,196 L399.292,186.388 L396.502,188.188 L395.584,186.694 L399.454,184.12 L401.29,184.12 Z M413.1,185.92 C411.935994,185.751999 410.880005,185.668 409.932,185.668 C408.983995,185.668 408.276002,185.961997 407.808,186.55 C407.339998,187.138003 407.1,187.959995 407.088,189.016 L407.502,188.872 C408.366004,188.595999 409.091997,188.458 409.68,188.458 C412.368013,188.458 413.712,189.717987 413.712,192.238 C413.712,193.534006 413.340004,194.517997 412.596,195.19 C411.851996,195.862003 410.766007,196.198 409.338,196.198 C407.909993,196.198 406.833004,195.667005 406.107,194.605 C405.380996,193.542995 405.018,192.02801 405.018,190.06 C405.018,185.96798 406.625984,183.922 409.842,183.922 C410.742005,183.922 411.713995,184.029999 412.758,184.246 L413.28,184.354 L413.1,185.92 Z M407.412,190.618 L407.07,190.744 C407.094,193.216012 407.885992,194.452 409.446,194.452 C410.154004,194.452 410.696998,194.260002 411.075,193.876 C411.453002,193.491998 411.642,192.958003 411.642,192.274 C411.642,191.589997 411.456002,191.077002 411.084,190.735 C410.711998,190.392998 410.193003,190.222 409.527,190.222 C408.860997,190.222 408.156004,190.353999 407.412,190.618 Z M417.044,196.108 L421.04,183.562 L422.156,183.94 L418.16,196.468 L417.044,196.108 Z M414.92,186.478 C414.92,184.773991 415.612993,183.922 416.999,183.922 C418.385007,183.922 419.078,184.773991 419.078,186.478 C419.078,187.342004 418.898002,187.989998 418.538,188.422 C418.177998,188.854002 417.665003,189.07 416.999,189.07 C416.332997,189.07 415.820002,188.854002 415.46,188.422 C415.099998,187.989998 414.92,187.342004 414.92,186.478 Z M416.522,185.452 C416.438,185.656001 416.396,185.997998 416.396,186.478 C416.396,186.958002 416.441,187.305999 416.531,187.522 C416.621,187.738001 416.779999,187.846 417.008,187.846 C417.236001,187.846 417.395,187.738001 417.485,187.522 C417.575,187.305999 417.62,186.958002 417.62,186.478 C417.62,185.997998 417.575,185.653001 417.485,185.443 C417.395,185.232999 417.236001,185.128 417.008,185.128 C416.779999,185.128 416.618,185.235999 416.522,185.452 Z M420.122,193.606 C420.122,191.901991 420.814993,191.05 422.201,191.05 C423.587007,191.05 424.28,191.901991 424.28,193.606 C424.28,194.470004 424.100002,195.117998 423.74,195.55 C423.379998,195.982002 422.867003,196.198 422.201,196.198 C421.534997,196.198 421.022002,195.982002 420.662,195.55 C420.301998,195.117998 420.122,194.470004 420.122,193.606 Z M422.192,192.274 C421.963999,192.274 421.805,192.378999 421.715,192.589 C421.625,192.799001 421.58,193.140998 421.58,193.615 C421.58,194.089002 421.625,194.436999 421.715,194.659 C421.805,194.881001 421.963999,194.992 422.192,194.992 C422.420001,194.992 422.579,194.884001 422.669,194.668 C422.759,194.451999 422.804,194.101002 422.804,193.615 C422.804,193.128998 422.762,192.784001 422.678,192.58 C422.594,192.375999 422.432001,192.274 422.192,192.274 Z" id="16%" fill="#3D3A44"></path>
            <path d="M6.706,184.558 L6.706,196.438 L4.708,196.438 L4.708,186.826 L1.918,188.626 L1,187.132 L4.87,184.558 L6.706,184.558 Z M11.352,185.818 C12.1080038,184.845995 13.2359925,184.36 14.736,184.36 C16.2360075,184.36 17.3579963,184.839995 18.102,185.8 C18.8460037,186.760005 19.218,188.346989 19.218,190.561 C19.218,192.775011 18.8430038,194.340995 18.093,195.259 C17.3429963,196.177005 16.2210075,196.636 14.727,196.636 C13.2329925,196.636 12.1110038,196.180005 11.361,195.268 C10.6109963,194.355995 10.236,192.793011 10.236,190.579 C10.236,188.364989 10.6079963,186.778005 11.352,185.818 Z M16.59,187.096 C16.2179981,186.435997 15.6000043,186.106 14.736,186.106 C13.8719957,186.106 13.2510019,186.432997 12.873,187.087 C12.4949981,187.741003 12.306,188.889992 12.306,190.534 C12.306,192.178008 12.5009981,193.314997 12.891,193.945 C13.281002,194.575003 13.8989958,194.89 14.745,194.89 C15.5910042,194.89 16.2029981,194.575003 16.581,193.945 C16.9590019,193.314997 17.148,192.178008 17.148,190.534 C17.148,188.889992 16.9620019,187.744003 16.59,187.096 Z M22.46,196.546 L26.456,184 L27.572,184.378 L23.576,196.906 L22.46,196.546 Z M20.336,186.916 C20.336,185.211991 21.0289931,184.36 22.415,184.36 C23.8010069,184.36 24.494,185.211991 24.494,186.916 C24.494,187.780004 24.3140018,188.427998 23.954,188.86 C23.5939982,189.292002 23.0810033,189.508 22.415,189.508 C21.7489967,189.508 21.2360018,189.292002 20.876,188.86 C20.5159982,188.427998 20.336,187.780004 20.336,186.916 Z M21.938,185.89 C21.8539996,186.094001 21.812,186.435998 21.812,186.916 C21.812,187.396002 21.8569996,187.743999 21.947,187.96 C22.0370005,188.176001 22.1959989,188.284 22.424,188.284 C22.6520011,188.284 22.8109996,188.176001 22.901,187.96 C22.9910005,187.743999 23.036,187.396002 23.036,186.916 C23.036,186.435998 22.9910005,186.091001 22.901,185.881 C22.8109996,185.670999 22.6520011,185.566 22.424,185.566 C22.1959989,185.566 22.0340005,185.673999 21.938,185.89 Z M25.538,194.044 C25.538,192.339991 26.2309931,191.488 27.617,191.488 C29.0030069,191.488 29.696,192.339991 29.696,194.044 C29.696,194.908004 29.5160018,195.555998 29.156,195.988 C28.7959982,196.420002 28.2830033,196.636 27.617,196.636 C26.9509967,196.636 26.4380018,196.420002 26.078,195.988 C25.7179982,195.555998 25.538,194.908004 25.538,194.044 Z M27.608,192.712 C27.3799989,192.712 27.2210005,192.816999 27.131,193.027 C27.0409996,193.237001 26.996,193.578998 26.996,194.053 C26.996,194.527002 27.0409996,194.874999 27.131,195.097 C27.2210005,195.319001 27.3799989,195.43 27.608,195.43 C27.8360011,195.43 27.9949996,195.322001 28.085,195.106 C28.1750005,194.889999 28.22,194.539002 28.22,194.053 C28.22,193.566998 28.1780004,193.222001 28.094,193.018 C28.0099996,192.813999 27.8480012,192.712 27.608,192.712 Z" id="10%" fill="#3D3A44"></path>
            <path d="M401.29,270.12 L401.29,282 L399.292,282 L399.292,272.388 L396.502,274.188 L395.584,272.694 L399.454,270.12 L401.29,270.12 Z M413.136,282 L405.486,282 L405.486,280.29 L408.42,277.266 C409.308004,276.353995 409.931998,275.640003 410.292,275.124 C410.652002,274.607997 410.832,274.041003 410.832,273.423 C410.832,272.804997 410.658002,272.364001 410.31,272.1 C409.961998,271.835999 409.392004,271.704 408.6,271.704 C407.855996,271.704 407.034005,271.787999 406.134,271.956 L405.684,272.028 L405.558,270.444 C406.722006,270.095998 407.927994,269.922 409.176,269.922 C411.660012,269.922 412.902,271.025989 412.902,273.234 C412.902,274.098004 412.713002,274.847997 412.335,275.484 C411.956998,276.120003 411.282005,276.887995 410.31,277.788 L407.772,280.254 L413.136,280.254 L413.136,282 Z M417.044,282.108 L421.04,269.562 L422.156,269.94 L418.16,282.468 L417.044,282.108 Z M414.92,272.478 C414.92,270.773991 415.612993,269.922 416.999,269.922 C418.385007,269.922 419.078,270.773991 419.078,272.478 C419.078,273.342004 418.898002,273.989998 418.538,274.422 C418.177998,274.854002 417.665003,275.07 416.999,275.07 C416.332997,275.07 415.820002,274.854002 415.46,274.422 C415.099998,273.989998 414.92,273.342004 414.92,272.478 Z M416.522,271.452 C416.438,271.656001 416.396,271.997998 416.396,272.478 C416.396,272.958002 416.441,273.305999 416.531,273.522 C416.621,273.738001 416.779999,273.846 417.008,273.846 C417.236001,273.846 417.395,273.738001 417.485,273.522 C417.575,273.305999 417.62,272.958002 417.62,272.478 C417.62,271.997998 417.575,271.653001 417.485,271.443 C417.395,271.232999 417.236001,271.128 417.008,271.128 C416.779999,271.128 416.618,271.235999 416.522,271.452 Z M420.122,279.606 C420.122,277.901991 420.814993,277.05 422.201,277.05 C423.587007,277.05 424.28,277.901991 424.28,279.606 C424.28,280.470004 424.100002,281.117998 423.74,281.55 C423.379998,281.982002 422.867003,282.198 422.201,282.198 C421.534997,282.198 421.022002,281.982002 420.662,281.55 C420.301998,281.117998 420.122,280.470004 420.122,279.606 Z M422.192,278.274 C421.963999,278.274 421.805,278.378999 421.715,278.589 C421.625,278.799001 421.58,279.140998 421.58,279.615 C421.58,280.089002 421.625,280.436999 421.715,280.659 C421.805,280.881001 421.963999,280.992 422.192,280.992 C422.420001,280.992 422.579,280.884001 422.669,280.668 C422.759,280.451999 422.804,280.101002 422.804,279.615 C422.804,279.128998 422.762,278.784001 422.678,278.58 C422.594,278.375999 422.432001,278.274 422.192,278.274 Z" id="12%" fill="#3D3A44"></path>
            <path d="M6.44999999,270.12 L6.44999999,282 L4.45199999,282 L4.45199999,272.388 L1.66199999,274.188 L0.743999991,272.694 L4.61399999,270.12 L6.44999999,270.12 Z M11.096,271.38 C11.8520038,270.407995 12.9799925,269.922 14.48,269.922 C15.9800075,269.922 17.1019963,270.401995 17.846,271.362 C18.5900037,272.322005 18.962,273.908989 18.962,276.123 C18.962,278.337011 18.5870037,279.902995 17.837,280.821 C17.0869962,281.739005 15.9650075,282.198 14.471,282.198 C12.9769925,282.198 11.8550037,281.742005 11.105,280.83 C10.3549962,279.917995 9.97999999,278.355011 9.97999999,276.141 C9.97999999,273.926989 10.3519963,272.340005 11.096,271.38 Z M16.334,272.658 C15.9619981,271.997997 15.3440043,271.668 14.48,271.668 C13.6159957,271.668 12.9950019,271.994997 12.617,272.649 C12.2389981,273.303003 12.05,274.451992 12.05,276.096 C12.05,277.740008 12.244998,278.876997 12.635,279.507 C13.0250019,280.137003 13.6429958,280.452 14.489,280.452 C15.3350042,280.452 15.9469981,280.137003 16.325,279.507 C16.7030019,278.876997 16.892,277.740008 16.892,276.096 C16.892,274.451992 16.7060019,273.306003 16.334,272.658 Z M22.204,282.108 L26.2,269.562 L27.316,269.94 L23.32,282.468 L22.204,282.108 Z M20.08,272.478 C20.08,270.773991 20.7729931,269.922 22.159,269.922 C23.5450069,269.922 24.238,270.773991 24.238,272.478 C24.238,273.342004 24.0580018,273.989998 23.698,274.422 C23.3379982,274.854002 22.8250033,275.07 22.159,275.07 C21.4929967,275.07 20.9800018,274.854002 20.62,274.422 C20.2599982,273.989998 20.08,273.342004 20.08,272.478 Z M21.682,271.452 C21.5979996,271.656001 21.556,271.997998 21.556,272.478 C21.556,272.958002 21.6009995,273.305999 21.691,273.522 C21.7810004,273.738001 21.9399989,273.846 22.168,273.846 C22.3960011,273.846 22.5549995,273.738001 22.645,273.522 C22.7350004,273.305999 22.78,272.958002 22.78,272.478 C22.78,271.997998 22.7350004,271.653001 22.645,271.443 C22.5549995,271.232999 22.3960011,271.128 22.168,271.128 C21.9399989,271.128 21.7780005,271.235999 21.682,271.452 Z M25.282,279.606 C25.282,277.901991 25.9749931,277.05 27.361,277.05 C28.7470069,277.05 29.44,277.901991 29.44,279.606 C29.44,280.470004 29.2600018,281.117998 28.9,281.55 C28.5399982,281.982002 28.0270033,282.198 27.361,282.198 C26.6949967,282.198 26.1820018,281.982002 25.822,281.55 C25.4619982,281.117998 25.282,280.470004 25.282,279.606 Z M27.352,278.274 C27.1239989,278.274 26.9650004,278.378999 26.875,278.589 C26.7849995,278.799001 26.74,279.140998 26.74,279.615 C26.74,280.089002 26.7849995,280.436999 26.875,280.659 C26.9650004,280.881001 27.1239989,280.992 27.352,280.992 C27.5800011,280.992 27.7389995,280.884001 27.829,280.668 C27.9190004,280.451999 27.964,280.101002 27.964,279.615 C27.964,279.128998 27.9220004,278.784001 27.838,278.58 C27.7539996,278.375999 27.5920012,278.274 27.352,278.274 Z" id="10%" fill="#3D3A44"></path>
            <path d="M10.754,2.92 L10.754,1.12 L18.242,1.12 L18.242,3.496 L13.868,13.198 L11.996,12.658 L16.226,3.46 L16.226,2.92 L10.754,2.92 Z M22.204,13.108 L26.2,0.562 L27.316,0.94 L23.32,13.468 L22.204,13.108 Z M20.08,3.478 C20.08,1.77399148 20.7729931,0.922 22.159,0.922 C23.5450069,0.922 24.238,1.77399148 24.238,3.478 C24.238,4.34200432 24.0580018,4.98999784 23.698,5.422 C23.3379982,5.85400216 22.8250033,6.07 22.159,6.07 C21.4929967,6.07 20.9800018,5.85400216 20.62,5.422 C20.2599982,4.98999784 20.08,4.34200432 20.08,3.478 Z M21.682,2.452 C21.5979996,2.65600102 21.556,2.9979976 21.556,3.478 C21.556,3.9580024 21.6009995,4.30599892 21.691,4.522 C21.7810004,4.73800108 21.9399989,4.846 22.168,4.846 C22.3960011,4.846 22.5549995,4.73800108 22.645,4.522 C22.7350004,4.30599892 22.78,3.9580024 22.78,3.478 C22.78,2.9979976 22.7350004,2.65300105 22.645,2.443 C22.5549995,2.23299895 22.3960011,2.128 22.168,2.128 C21.9399989,2.128 21.7780005,2.23599892 21.682,2.452 Z M25.282,10.606 C25.282,8.90199148 25.9749931,8.05 27.361,8.05 C28.7470069,8.05 29.44,8.90199148 29.44,10.606 C29.44,11.4700043 29.2600018,12.1179978 28.9,12.55 C28.5399982,12.9820022 28.0270033,13.198 27.361,13.198 C26.6949967,13.198 26.1820018,12.9820022 25.822,12.55 C25.4619982,12.1179978 25.282,11.4700043 25.282,10.606 Z M27.352,9.274 C27.1239989,9.274 26.9650004,9.37899895 26.875,9.589 C26.7849995,9.79900105 26.74,10.1409976 26.74,10.615 C26.74,11.0890024 26.7849995,11.4369989 26.875,11.659 C26.9650004,11.8810011 27.1239989,11.992 27.352,11.992 C27.5800011,11.992 27.7389995,11.8840011 27.829,11.668 C27.9190004,11.4519989 27.964,11.1010024 27.964,10.615 C27.964,10.1289976 27.9220004,9.78400102 27.838,9.58 C27.7539996,9.37599898 27.5920012,9.274 27.352,9.274 Z" id="7%" fill="#3D3A44"></path>
            <path d="M299.562033,325.315461 C299.366961,325.510913 299.36727,325.827496 299.562722,326.022567 C299.758175,326.217639 300.074757,326.21733 300.269829,326.021877 L327.21752,299.021547 L327.21752,195.149776 C327.21752,194.873634 326.993662,194.649776 326.71752,194.649776 C326.441378,194.649776 326.21752,194.873634 326.21752,195.149776 L326.21752,298.607905 L299.562033,325.315461 Z" id="Stroke-49-Copy-16" fill="#FFC15A" fill-rule="nonzero" transform="translate(313.316725, 260.409223) rotate(-90.000000) translate(-313.316725, -260.409223) "></path>
            <path d="M113.755429,281.244425 L113.609327,281.597633 L113.609327,281.390812 L113.755429,281.244425 Z M113.609327,197.932683 C113.609327,197.65654 113.833185,197.432683 114.109327,197.432683 C114.38547,197.432683 114.609327,197.65654 114.609327,197.932683 L114.609327,281.804454 L77.4545118,319.031847 C77.2594403,319.227299 76.9428579,319.227608 76.7474053,319.032537 C76.5519528,318.837465 76.5516439,318.520883 76.7467154,318.32543 L113.609327,281.390812 L113.609327,197.932683 Z" id="Stroke-49-Copy-17" fill="#48F0D5" fill-rule="nonzero" transform="translate(95.604970, 258.305660) scale(-1, 1) rotate(-90.000000) translate(-95.604970, -258.305660) "></path>
        </g>
    </g>
</svg>