<svg xmlns="http://www.w3.org/2000/svg" width="211" height="162" viewBox="0 0 211 162">
    <defs>
        <linearGradient id="a" x1="152.078%" x2="22.902%" y1="17.586%" y2="87.332%">
            <stop offset="0%" stop-color="#57D8F1"/>
            <stop offset="100%" stop-color="#194AAD"/>
        </linearGradient>
    </defs>
    <g fill="none" fill-rule="evenodd" stroke="url(#a)" transform="translate(-336 -1756)">
        <path d="M341.968 1819.235c-3.34-.048-4.96 1.315-4.964 4.731 0 0-.01 68.643 0 78.288.003 3.298 1.701 4.71 4.927 4.743 38.2.386 84.292-33.134 123.003-59.454L465 1757c-38.127 25.916-85.764 62.77-123.032 62.235"/>
        <path d="M418.066 1826.456L418 1917c38.128-25.916 85.764-62.77 123.03-62.234 3.34.046 4.963-1.316 4.966-4.733 0 0 .01-68.644 0-78.287-.005-3.3-1.701-4.711-4.927-4.743-.22-.003-.44-.003-.66-.003-38.07-.002-83.854 33.289-122.343 59.456"/>
    </g>
</svg>
