<svg xmlns="http://www.w3.org/2000/svg" width="207" height="200" viewBox="0 0 207 200">
    <defs>
        <linearGradient id="a" x1="51.997%" x2="41.275%" y1="-8.887%" y2="87.96%">
            <stop offset="0%" stop-color="#57D8F1"/>
            <stop offset="100%" stop-color="#194AAD"/>
        </linearGradient>
        <linearGradient id="b" x1="-448.633%" x2="-2783.398%" y1="-6.425%" y2="100%">
            <stop offset="0%" stop-color="#57D8F1" stop-opacity=".2"/>
            <stop offset="100%" stop-color="#C991FF" stop-opacity=".5"/>
        </linearGradient>
        <linearGradient id="c" x1="7754.639%" x2="41.275%" y1="-38.291%" y2="87.96%">
            <stop offset="0%" stop-color="#57D8F1"/>
            <stop offset="99.264%" stop-color="#194BAE"/>
            <stop offset="100%" stop-color="#194AAD"/>
        </linearGradient>
        <linearGradient id="d" x1="88.983%" x2="35.074%" y1="9.05%" y2="347.183%">
            <stop offset="0%" stop-color="#57D8F1"/>
            <stop offset="100%" stop-color="#194AAD"/>
        </linearGradient>
        <linearGradient id="e" x1="88.983%" x2="22.902%" y1="9.05%" y2="87.332%">
            <stop offset="0%" stop-color="#57D8F1"/>
            <stop offset="100%" stop-color="#194AAD"/>
        </linearGradient>
        <linearGradient id="f" x1="50%" x2="50%" y1="0%" y2="100%">
            <stop offset="0%" stop-color="#4EC3E7"/>
            <stop offset="100%" stop-color="#FFF"/>
        </linearGradient>
        <linearGradient id="g" x1="88.277%" x2="17.204%" y1="8.437%" y2="90.604%">
            <stop offset="0%" stop-color="#307FC7"/>
            <stop offset="100%" stop-color="#FFF"/>
        </linearGradient>
        <linearGradient id="h" x1="5.418%" x2="64%" y1="90.604%" y2="35.115%">
            <stop offset="0%" stop-color="#307FC7"/>
            <stop offset="100%" stop-color="#FFF"/>
        </linearGradient>
    </defs>
    <g fill="none" fill-rule="evenodd">
        <path fill="url(#a)" fill-rule="nonzero" d="M199.922 147.481l-8.982 4.397a.5.5 0 0 0 .44.898l8.981-4.396a.5.5 0 0 0-.44-.899zm-17.963 8.794l-8.982 4.397a.5.5 0 1 0 .44.898l8.981-4.397a.5.5 0 1 0-.44-.898zm-17.963 8.794l-8.982 4.397a.5.5 0 0 0 .44.898l8.981-4.397a.5.5 0 0 0-.44-.898zm-17.963 8.794l-8.982 4.397a.5.5 0 0 0 .44.898l8.981-4.397a.5.5 0 0 0-.44-.898zm-17.963 8.794l-8.982 4.397a.5.5 0 1 0 .44.898l8.981-4.397a.5.5 0 1 0-.44-.898zm-17.963 8.794l-6.642 3.25a.29.29 0 0 1-.255 0l-1.708-.848a.5.5 0 0 0-.445.896l1.71.85c.361.176.78.176 1.138.001l6.641-3.251a.5.5 0 0 0-.44-.898zm-17.562-2.046l-8.956-4.448a.5.5 0 0 0-.444.895l8.956 4.449a.5.5 0 1 0 .444-.896zm-17.912-8.897l-8.956-4.448a.5.5 0 0 0-.445.895l8.956 4.449a.5.5 0 1 0 .445-.896zm-17.912-8.897l-8.956-4.448a.5.5 0 1 0-.445.896l8.956 4.448a.5.5 0 0 0 .445-.896zm-17.912-8.896l-8.956-4.449a.5.5 0 0 0-.445.896l8.956 4.448a.5.5 0 0 0 .445-.895zm-17.912-8.897l-8.908-4.425a.5.5 0 0 0-.445.896l8.908 4.424a.5.5 0 0 0 .445-.895z"/>
        <path fill="url(#b)" fill-rule="nonzero" d="M199.71 54.045v94.281h1v-94.28z"/>
        <path fill="url(#c)" fill-rule="nonzero" d="M6.034 58.498v10a.5.5 0 1 0 1 0v-10a.5.5 0 1 0-1 0zm0 20v10a.5.5 0 1 0 1 0v-10a.5.5 0 1 0-1 0zm0 20v10a.5.5 0 0 0 1 0v-10a.5.5 0 1 0-1 0zm0 20v10a.5.5 0 0 0 1 0v-10a.5.5 0 1 0-1 0zm0 20v3.004a.5.5 0 1 0 1 0v-3.004a.5.5 0 1 0-1 0z"/>
        <path fill="url(#d)" fill-rule="nonzero" d="M11.49 50.254l9.039-4.28a.5.5 0 0 0-.428-.903l-9.038 4.28a.5.5 0 1 0 .428.903zm18.076-8.56l9.038-4.28a.5.5 0 0 0-.428-.903l-9.038 4.28a.5.5 0 1 0 .428.903zm18.076-8.56l9.038-4.28a.5.5 0 0 0-.428-.903l-9.038 4.28a.5.5 0 0 0 .428.904zm18.076-8.56l9.037-4.28a.5.5 0 0 0-.427-.903l-9.038 4.28a.5.5 0 0 0 .428.904zm18.075-8.559l9.038-4.28a.5.5 0 1 0-.428-.904l-9.038 4.28a.5.5 0 0 0 .428.904zm26.627-5.533a.5.5 0 1 0 .44-.897l-7.767-3.816-1.652.782a.5.5 0 1 0 .428.904l1.216-.576 7.335 3.603zm8.976 4.41l8.975 4.408a.5.5 0 1 0 .441-.897l-8.976-4.41a.5.5 0 0 0-.44.898zm17.95 8.817l8.976 4.41a.5.5 0 1 0 .441-.898l-8.976-4.41a.5.5 0 1 0-.44.898zm17.952 8.818l8.975 4.41a.5.5 0 1 0 .441-.898l-8.975-4.41a.5.5 0 1 0-.441.898zm17.95 8.819l8.976 4.409a.5.5 0 1 0 .441-.898l-8.975-4.409a.5.5 0 1 0-.441.898zm17.952 8.818l8.224 4.04a.5.5 0 0 0 .441-.898l-8.224-4.04a.5.5 0 1 0-.441.898z"/>
        <path fill="url(#e)" fill-rule="nonzero" d="M197.645 146.574l-94.556 46.32-31.29-15.313a2 2 0 1 0-1.759 3.593l33.05 16.174 98.555-48.28V52.51L103.97 4.53a2 2 0 0 0-1.764 3.59l95.438 46.882v91.573z"/>
        <circle cx="103.372" cy="6.719" r="6.719" fill="#4FC4E8"/>
        <circle cx="199.814" cy="53.36" r="6.719" fill="#4EC3E7"/>
        <circle cx="199.814" cy="148.221" r="6.719" fill="#307FC7"/>
        <circle cx="103.372" cy="193.281" r="6.719" fill="#194AAD"/>
        <path fill="#1F58B4" fill-rule="nonzero" d="M6.534 153.07a6.034 6.034 0 1 1 0-12.068 6.034 6.034 0 0 1 0 12.067zm0-1a5.034 5.034 0 1 0 0-10.068 5.034 5.034 0 0 0 0 10.067z"/>
        <path fill="#2F7CC5" fill-rule="nonzero" d="M6.534 58.998a6.034 6.034 0 1 1 0-12.067 6.034 6.034 0 0 1 0 12.067zm0-1a5.034 5.034 0 1 0 0-10.067 5.034 5.034 0 0 0 0 10.067z"/>
        <path fill="url(#f)" fill-rule="nonzero" d="M200.683 52.295l-94.424 46.68.443.897 94.424-46.68z"/>
        <path fill="url(#g)" fill-rule="nonzero" d="M200.789 121.066l-55.007 28.094.455.89 55.006-28.093z" transform="rotate(53 173.513 135.558)"/>
        <path fill="url(#h)" fill-rule="nonzero" d="M66.401 55.454L11.394 83.547l.455.89 55.007-28.093z" transform="rotate(53 39.125 69.946)"/>
    </g>
</svg>
