<svg xmlns="http://www.w3.org/2000/svg" width="133" height="102" viewBox="0 0 133 102">
    <g fill="none" fill-rule="evenodd" stroke="#FFF">
        <path d="M4.096 40.117c-2.081-.03-3.091.827-3.093 2.974 0 0-.006 43.145 0 49.207.002 2.073 1.06 2.961 3.07 2.981 23.805.243 52.529-20.826 76.653-37.369L80.766 1c-23.76 16.289-53.445 39.453-76.67 39.117"/>
        <path d="M52.041 44.37L52 101.28c23.761-16.289 53.447-39.453 76.671-39.116 2.081.029 3.092-.827 3.094-2.975 0 0 .006-43.145 0-49.206-.003-2.074-1.06-2.961-3.07-2.981-.137-.002-.274-.002-.411-.002-23.725-.001-52.257 20.923-76.243 37.37"/>
        <path d="M80.65 57.505L80.673 25c-9.863 6.125-19.582 12.983-28.65 19.201L52 76.707c9.863-6.126 19.582-12.983 28.65-19.202"/>
    </g>
</svg>
