<svg xmlns="http://www.w3.org/2000/svg" width="28" height="28" viewBox="0 0 28 28">
    <path fill="#25CAF0" fill-rule="nonzero" d="M24.227 0H3.773A3.773 3.773 0 0 0 0 3.773v20.454A3.773 3.773 0 0 0 3.773 28h10.088l.017-10.006h-2.6a.613.613 0 0 1-.613-.61l-.012-3.226a.613.613 0 0 1 .613-.616h2.595v-3.116c0-3.617 2.209-5.586 5.435-5.586h2.647c.339 0 .614.275.614.614v2.719a.613.613 0 0 1-.613.613l-1.625.001c-1.755 0-2.094.834-2.094 2.057v2.698h3.855c.367 0 .652.321.609.686l-.382 3.225a.613.613 0 0 1-.61.541h-3.455L18.225 28h6.002A3.773 3.773 0 0 0 28 24.227V3.773A3.773 3.773 0 0 0 24.227 0z"/>
</svg>
