<svg xmlns="http://www.w3.org/2000/svg" width="26" height="27" viewBox="0 0 26 27">
    <path fill="#25CAF0" fill-rule="nonzero" d="M7 26.093c0 .5-.43.907-.959.907H1.959c-.53 0-.959-.406-.959-.907V9.907c0-.5.43-.907.959-.907h4.082c.53 0 .959.406.959.907v16.186zM3.5 7a3.5 3.5 0 1 1 0-7 3.5 3.5 0 0 1 0 7zM26 26.178c0 .454-.36.822-.805.822h-3.997a.813.813 0 0 1-.804-.822V18.7c0-1.116.32-4.89-2.856-4.89-2.463 0-2.963 2.584-3.063 3.743v8.626c0 .454-.36.822-.805.822H9.805A.813.813 0 0 1 9 26.178V10.09c0-.454.36-.821.805-.821h3.865c.445 0 .805.367.805.821v1.391c.913-1.4 2.27-2.48 5.161-2.48C26.036 9 26 15.106 26 18.461v7.717z"/>
</svg>
