<svg xmlns="http://www.w3.org/2000/svg" width="34" height="28" viewBox="0 0 34 28">
    <path fill="#25CAF0" fill-rule="nonzero" d="M16.93 28c-8.38 0-15.197-4.47-15.197-9.963 0-.38.032-.755.096-1.124A3.772 3.772 0 0 1 0 13.692c.002-2.089 1.724-3.78 3.85-3.784.948 0 1.852.341 2.551.95 2.636-1.662 6.181-2.708 10.092-2.78l2.568-7.7.56.13 5.998 1.387A3.178 3.178 0 0 1 28.536 0c1.75.002 3.168 1.396 3.17 3.115-.002 1.72-1.42 3.113-3.17 3.115-1.748-.002-3.166-1.393-3.17-3.11l-5.46-1.264-2.08 6.235c3.77.145 7.173 1.194 9.714 2.82a3.867 3.867 0 0 1 2.61-1.002c2.125.002 3.848 1.695 3.85 3.783a3.746 3.746 0 0 1-1.957 3.296c.056.345.084.695.084 1.05C32.126 23.53 25.31 28 16.93 28zm5.725-14c-1.296 0-2.384 1.148-2.384 2.52 0 1.37 1.088 2.48 2.384 2.48C23.951 19 25 17.89 25 16.52c0-1.372-1.05-2.52-2.345-2.52zm-10.274 0C11.087 14 10 15.15 10 16.52c0 1.369 1.086 2.48 2.381 2.48 1.295 0 2.345-1.111 2.345-2.48 0-1.37-1.05-2.52-2.345-2.52zm16.22-2.336c1.474 1.158 2.555 2.536 3.108 4.05a2.503 2.503 0 0 0 1.02-2.022c-.002-1.4-1.156-2.534-2.58-2.535-.558-.001-1.101.177-1.547.507zM3.85 11.157c-1.424.002-2.578 1.136-2.58 2.535 0 .757.344 1.46.913 1.935.57-1.502 1.663-2.87 3.142-4.016a2.615 2.615 0 0 0-1.475-.454zm24.686-9.91c-1.047 0-1.9.838-1.9 1.868 0 1.029.853 1.866 1.9 1.866s1.899-.837 1.899-1.866c0-1.03-.852-1.867-1.9-1.867zm-11.538 23.2c2.545 0 4.337-.546 5.48-1.67a.616.616 0 0 0 .165-.602.63.63 0 0 0-.449-.441.643.643 0 0 0-.613.16c-.894.878-2.393 1.305-4.583 1.305-2.19 0-3.688-.427-4.58-1.304a.643.643 0 0 0-.899 0 .617.617 0 0 0 0 .882c1.143 1.124 2.935 1.67 5.48 1.67z"/>
</svg>
