<svg xmlns="http://www.w3.org/2000/svg" width="34" height="28" viewBox="0 0 34 28">
    <path fill="#25CAF0" fill-rule="nonzero" d="M34 3.315a13.805 13.805 0 0 1-4.006 1.113A7.074 7.074 0 0 0 33.06.517a13.853 13.853 0 0 1-4.43 1.715A6.924 6.924 0 0 0 23.54 0c-3.853 0-6.976 3.165-6.976 7.068 0 .554.062 1.094.18 1.611C10.948 8.384 5.809 5.57 2.368 1.294a7.107 7.107 0 0 0-.944 3.553 7.09 7.09 0 0 0 3.103 5.884 6.877 6.877 0 0 1-3.16-.884v.089c0 3.425 2.404 6.281 5.595 6.931a6.902 6.902 0 0 1-3.15.121c.888 2.808 3.464 4.852 6.516 4.909a13.878 13.878 0 0 1-8.663 3.026c-.563 0-1.118-.033-1.664-.099A19.554 19.554 0 0 0 10.693 28c12.83 0 19.846-10.771 19.846-20.112 0-.306-.006-.611-.02-.915A14.278 14.278 0 0 0 34 3.315z"/>
</svg>
